{
.appVersion = "895";
copyright = "Copyright (c) 2011, Denis Masharov (denis.masharov@gmail.com)";
customParameters = (
{
name = license;
value = "This Font Software is licensed under the SIL Open Font License, Version 1.1. This license is available with a FAQ at: http://scripts.sil.org/OFL";
},
{
name = licenseURL;
value = "http://scripts.sil.org/OFL";
},
{
name = panose;
value = (
2,
0,
0,
0,
0,
0,
0,
0,
0,
0
);
},
{
name = unicodeRanges;
value = (
0,
1,
2,
3,
5,
9,
29,
31,
33,
35,
38,
60,
62
);
},
{
name = codePageRanges;
value = (
1252,
1250,
1251,
1254,
1257
);
},
{
name = glyphOrder;
value = (
.notdef,
uni0000,
uni000D,
NULL,
CR,
space,
exclam,
quotedbl,
numbersign,
dollar,
percent,
ampersand,
quotesingle,
parenleft,
parenright,
asterisk,
plus,
comma,
hyphen,
period,
slash,
zero,
one,
two,
three,
four,
five,
six,
seven,
eight,
nine,
colon,
semicolon,
less,
equal,
greater,
question,
at,
A,
B,
C,
D,
E,
F,
G,
H,
I,
J,
K,
L,
M,
N,
O,
P,
Q,
R,
S,
T,
U,
V,
W,
X,
Y,
Z,
bracketleft,
backslash,
bracketright,
asciicircum,
underscore,
grave,
a,
b,
c,
d,
e,
f,
g,
h,
i,
j,
k,
l,
m,
n,
o,
p,
q,
r,
s,
t,
u,
v,
w,
x,
y,
z,
braceleft,
bar,
braceright,
asciitilde,
exclamdown,
cent,
sterling,
currency,
yen,
brokenbar,
section,
dieresis,
copyright,
guillemotleft,
logicalnot,
uni00AD,
registered,
macron,
degree,
plusminus,
acute,
mu,
paragraph,
periodcentered,
cedilla,
guillemotright,
questiondown,
Agrave,
Aacute,
Acircumflex,
Atilde,
Adieresis,
Aring,
AE,
Ccedilla,
Egrave,
Eacute,
Ecircumflex,
Edieresis,
Igrave,
Iacute,
Icircumflex,
Idieresis,
Eth,
Ntilde,
Ograve,
Oacute,
Ocircumflex,
Otilde,
Odieresis,
multiply,
Oslash,
Ugrave,
Uacute,
Ucircumflex,
Udieresis,
Yacute,
Thorn,
germandbls,
agrave,
aacute,
acircumflex,
atilde,
adieresis,
aring,
ae,
ccedilla,
egrave,
eacute,
ecircumflex,
edieresis,
igrave,
iacute,
icircumflex,
idieresis,
eth,
ntilde,
ograve,
oacute,
ocircumflex,
otilde,
odieresis,
divide,
oslash,
ugrave,
uacute,
ucircumflex,
udieresis,
yacute,
thorn,
ydieresis,

glyphs = (
{
glyphname = exclam;
lastChange = "2016-07-05 19:32:38 +0000";
layers = (
{
layerId = "6418A72B-B7AF-4A99-B2A7-67092BA5BFD7";
paths = (
{
closed = 1;
nodes = (
"131 100 LINE",
"131 750 LINE",
"98 750 LINE",
"98 100 LINE"
);
},
{
closed = 1;
nodes = (
"135 -7 OFFCURVE",
"146 3 OFFCURVE",
"146 24 CURVE SMOOTH",
"146 45 OFFCURVE",
"135 55 OFFCURVE",
"113 55 CURVE SMOOTH",
"91 55 OFFCURVE",
"80 45 OFFCURVE",
"80 24 CURVE SMOOTH",
"80 3 OFFCURVE",
"91 -7 OFFCURVE",
"113 -7 CURVE SMOOTH"
);
}
);
width = 226;
}
);
note = exclam;
unicode = 0021;
},
{
glyphname = quotedbl;
lastChange = "2016-07-05 19:32:38 +0000";
layers = (
{
layerId = "6418A72B-B7AF-4A99-B2A7-67092BA5BFD7";
paths = (
{
closed = 1;
nodes = (
"103 810 LINE",
"70 810 LINE",
"70 631 LINE",
"103 631 LINE"
);
},
{
closed = 1;
nodes = (
"205 810 LINE",
"172 810 LINE",
"172 631 LINE",
"205 631 LINE"
);
}
);
width = 275;
}
);
note = quotedbl;
unicode = 0022;
},
{
glyphname = numbersign;
lastChange = "2016-07-05 19:32:38 +0000";
layers = (
{
layerId = "6418A72B-B7AF-4A99-B2A7-67092BA5BFD7";
paths = (
{
closed = 1;
nodes = (
"257 465 LINE",
"190 312 LINE",
"15 312 LINE",
"15 281 LINE",
"176 281 LINE",
"53 0 LINE",
"84 0 LINE",
"208 281 LINE",
"394 281 LINE",
"270 0 LINE",
"302 0 LINE",
"426 281 LINE",
"657 281 LINE",
"657 312 LINE",
"439 312 LINE",
"507 465 LINE",
"657 465 LINE",
"657 496 LINE",
"521 496 LINE",
"632 748 LINE",
"599 748 LINE",
"488 496 LINE",
"303 496 LINE",
"414 748 LINE",
"381 748 LINE",
"270 496 LINE",
"15 496 LINE",
"15 465 LINE"
);
},
{
closed = 1;
nodes = (
"407 312 LINE",
"222 312 LINE",
"290 465 LINE",
"475 465 LINE"
);
}
);
width = 672;
}
);
note = numbersign;
unicode = 0023;
},
{
glyphname = dollar;
lastChange = "2016-07-05 19:32:38 +0000";
layers = (
{
layerId = "6418A72B-B7AF-4A99-B2A7-67092BA5BFD7";
paths = (
{
closed = 1;
nodes = (
"150 18 OFFCURVE",
"70 70 OFFCURVE",
"35 141 CURVE",
"35 89 LINE",
"75 29 OFFCURVE",
"151 -11 OFFCURVE",
"234 -14 CURVE",
"234 -73 LINE",
"265 -73 LINE",
"265 -12 LINE",
"381 4 OFFCURVE",
"472 101 OFFCURVE",
"472 221 CURVE SMOOTH",
"472 268 OFFCURVE",
"458 309 OFFCURVE",
"429 344 CURVE SMOOTH",
"418 357 OFFCURVE",
"401 371 OFFCURVE",
"380 385 CURVE SMOOTH",
"337 413 OFFCURVE",
"317 421 OFFCURVE",
"265 444 CURVE",
"265 730 LINE",
"318 722 OFFCURVE",
"376 687 OFFCURVE",
"399 644 CURVE",
"399 692 LINE",
"365 733 OFFCURVE",
"320 755 OFFCURVE",
"265 759 CURVE",
"265 815 LINE",
"234 815 LINE",
"234 759 LINE",
"150 750 OFFCURVE",
"73 689 OFFCURVE",
"73 600 CURVE SMOOTH",
"73 511 OFFCURVE",
"134 466 OFFCURVE",
"234 422 CURVE",
"234 15 LINE"
);
},
{
closed = 1;
nodes = (
"422 311 OFFCURVE",
"441 270 OFFCURVE",
"441 219 CURVE SMOOTH",
"441 116 OFFCURVE",
"364 33 OFFCURVE",
"265 17 CURVE",
"265 410 LINE",
"314 389 OFFCURVE",
"354 366 OFFCURVE",
"384 342 CURVE SMOOTH"
);
},
{
closed = 1;
nodes = (
"151 495 OFFCURVE",
"106 529 OFFCURVE",
"106 597 CURVE SMOOTH",
"106 665 OFFCURVE",
"166 718 OFFCURVE",
"234 730 CURVE",
"234 456 LINE"
);
}
);
width = 507;
}
);
note = dollar;
unicode = 0024;
},
{
glyphname = percent;
lastChange = "2016-07-05 19:32:38 +0000";
layers = (
{
layerId = "6418A72B-B7AF-4A99-B2A7-67092BA5BFD7";
paths = (
{
closed = 1;
nodes = (
"599 -11 OFFCURVE",
"672 65 OFFCURVE",
"672 153 CURVE SMOOTH",
"672 241 OFFCURVE",
"599 315 OFFCURVE",
"508 315 CURVE SMOOTH",
"416 315 OFFCURVE",
"343 241 OFFCURVE",
"343 153 CURVE SMOOTH",
"343 65 OFFCURVE",
"416 -11 OFFCURVE",
"501 -11 CURVE SMOOTH",
"511 -11 LINE SMOOTH"
);
},
{
closed = 1;
nodes = (
"640 80 OFFCURVE",
"579 18 OFFCURVE",
"508 18 CURVE SMOOTH",
"437 18 OFFCURVE",
"375 80 OFFCURVE",
"375 152 CURVE SMOOTH",
"375 223 OFFCURVE",
"437 286 OFFCURVE",
"508 286 CURVE SMOOTH",
"579 286 OFFCURVE",
"640 223 OFFCURVE",
"640 152 CURVE SMOOTH"
);
},
{
closed = 1;
nodes = (
"275 435 OFFCURVE",
"347 511 OFFCURVE",
"347 599 CURVE SMOOTH",
"347 687 OFFCURVE",
"275 761 OFFCURVE",
"184 761 CURVE SMOOTH",
"92 761 OFFCURVE",
"20 687 OFFCURVE",
"20 599 CURVE SMOOTH",
"20 511 OFFCURVE",
"91 435 OFFCURVE",
"178 435 CURVE SMOOTH",
"188 435 LINE SMOOTH"
);
},
{
closed = 1;
nodes = (
"302 665 OFFCURVE",
"315 633 OFFCURVE",
"315 597 CURVE SMOOTH",
"315 525 OFFCURVE",
"256 464 OFFCURVE",
"184 464 CURVE SMOOTH",
"112 464 OFFCURVE",
"50 526 OFFCURVE",
"50 598 CURVE SMOOTH",
"50 669 OFFCURVE",
"112 732 OFFCURVE",
"184 732 CURVE SMOOTH",
"220 732 OFFCURVE",
"251 719 OFFCURVE",
"277 692 CURVE SMOOTH"
);
},
{
closed = 1;
nodes = (
"72 0 LINE",
"631 750 LINE",
"592 750 LINE",
"35 0 LINE"
);
}
);
width = 692;
}
);
note = percent;
unicode = 0025;
},
{
glyphname = ampersand;
lastChange = "2016-07-05 19:32:38 +0000";
layers = (
{
layerId = "6418A72B-B7AF-4A99-B2A7-67092BA5BFD7";
paths = (
{
closed = 1;
nodes = (
"35 101 OFFCURVE",
"149 -14 OFFCURVE",
"289 -14 CURVE SMOOTH",
"388 -14 OFFCURVE",
"483 48 OFFCURVE",
"512 128 CURVE",
"512 0 LINE",
"542 0 LINE",
"542 460 LINE",
"681 460 LINE",
"681 488 LINE",
"373 488 LINE",
"373 460 LINE",
"512 460 LINE",
"512 237 LINE SMOOTH",
"512 114 OFFCURVE",
"410 15 OFFCURVE",
"289 15 CURVE SMOOTH",
"168 15 OFFCURVE",
"66 116 OFFCURVE",
"66 237 CURVE SMOOTH",
"66 357 OFFCURVE",
"169 460 OFFCURVE",
"289 460 CURVE SMOOTH",
"297 460 LINE",
"297 488 LINE",
"283 488 LINE SMOOTH",
"216 488 OFFCURVE",
"160 545 OFFCURVE",
"160 610 CURVE SMOOTH",
"160 675 OFFCURVE",
"219 732 OFFCURVE",
"277 732 CURVE SMOOTH",
"335 732 OFFCURVE",
"381 699 OFFCURVE",
"400 655 CURVE",
"400 708 LINE",
"369 743 OFFCURVE",
"331 760 OFFCURVE",
"286 760 CURVE SMOOTH",
"195 760 OFFCURVE",
"128 693 OFFCURVE",
"128 609 CURVE SMOOTH",
"128 554 OFFCURVE",
"164 500 OFFCURVE",
"213 476 CURVE",
"108 444 OFFCURVE",
"35 345 OFFCURVE",
"35 238 CURVE SMOOTH"
);
}
);
width = 696;
}
);
note = ampersand;
unicode = 0026;
},
{
glyphname = quotesingle;
lastChange = "2016-07-05 19:32:38 +0000";
layers = (
{
layerId = "6418A72B-B7AF-4A99-B2A7-67092BA5BFD7";
paths = (
{
closed = 1;
nodes = (
"108 810 LINE",
"75 810 LINE",
"75 632 LINE",
"108 632 LINE"
);
}
);
width = 183;
}
);
note = quotesingle;
unicode = 0027;
},
{
glyphname = parenleft;
lastChange = "2016-07-05 19:32:38 +0000";
layers = (
{
layerId = "6418A72B-B7AF-4A99-B2A7-67092BA5BFD7";
paths = (
{
closed = 1;
nodes = (
"188 60 OFFCURVE",
"118 205 OFFCURVE",
"118 365 CURVE SMOOTH",
"118 527 OFFCURVE",
"181 666 OFFCURVE",
"308 782 CURVE",
"308 818 LINE",
"169 705 OFFCURVE",
"85 540 OFFCURVE",
"85 368 CURVE SMOOTH",
"85 195 OFFCURVE",
"171 29 OFFCURVE",
"308 -87 CURVE",
"308 -48 LINE"
);
}
);
width = 333;
}
);
note = parenleft;
unicode = 0028;
},
{
glyphname = parenright;
lastChange = "2016-07-05 19:32:38 +0000";
layers = (
{
layerId = "6418A72B-B7AF-4A99-B2A7-67092BA5BFD7";
paths = (
{
closed = 1;
nodes = (
"25 779 LINE",
"146 672 OFFCURVE",
"216 525 OFFCURVE",
"216 365 CURVE SMOOTH",
"216 205 OFFCURVE",
"146 59 OFFCURVE",
"25 -48 CURVE",
"25 -86 LINE",
"164 29 OFFCURVE",
"249 193 OFFCURVE",
"249 367 CURVE SMOOTH",
"249 541 OFFCURVE",
"168 700 OFFCURVE",
"29 811 CURVE",
"25 809 LINE"
);
}
);
width = 334;
}
);
note = parenright;
unicode = 0029;
},
{
glyphname = asterisk;
lastChange = "2016-07-05 19:32:38 +0000";
layers = (
{
layerId = "6418A72B-B7AF-4A99-B2A7-67092BA5BFD7";
paths = (
{
closed = 1;
nodes = (
"75 725 LINE",
"55 705 LINE",
"126 635 LINE",
"35 635 LINE",
"35 609 LINE",
"125 609 LINE",
"56 542 LINE",
"77 521 LINE",
"146 591 LINE",
"146 501 LINE",
"171 501 LINE",
"171 590 LINE",
"238 521 LINE",
"260 542 LINE",
"191 609 LINE",
"278 609 LINE",
"278 635 LINE",
"191 635 LINE",
"261 705 LINE",
"240 725 LINE",
"171 654 LINE",
"171 745 LINE",
"146 745 LINE",
"146 654 LINE"
);
}
);
width = 313;
}
);
note = asterisk;
unicode = 002A;
},
{
glyphname = plus;
lastChange = "2016-07-05 19:32:38 +0000";
layers = (
{
layerId = "6418A72B-B7AF-4A99-B2A7-67092BA5BFD7";
paths = (
{
closed = 1;
nodes = (
"188 253 LINE",
"188 387 LINE",
"326 387 LINE",
"326 418 LINE",
"188 418 LINE",
"188 557 LINE",
"155 557 LINE",
"155 418 LINE",
"15 418 LINE",
"15 387 LINE",
"155 387 LINE",
"155 253 LINE"
);
}
);
width = 341;
}
);
note = plus;
unicode = 002B;
},
{
glyphname = comma;
lastChange = "2016-07-05 19:32:38 +0000";
layers = (
{
layerId = "6418A72B-B7AF-4A99-B2A7-67092BA5BFD7";
paths = (
{
closed = 1;
nodes = (
"101 8 LINE",
"103 14 OFFCURVE",
"104 19 OFFCURVE",
"104 24 CURVE SMOOTH",
"104 45 OFFCURVE",
"93 55 OFFCURVE",
"70 55 CURVE SMOOTH",
"47 55 OFFCURVE",
"35 45 OFFCURVE",
"35 24 CURVE SMOOTH",
"35 3 OFFCURVE",
"45 -7 OFFCURVE",
"66 -7 CURVE",
"66 -63 LINE",
"70 -63 LINE"
);
}
);
width = 139;
}
);
note = comma;
unicode = 002C;
},
{
glyphname = hyphen;
lastChange = "2016-07-05 19:32:38 +0000";
layers = (
{
layerId = "6418A72B-B7AF-4A99-B2A7-67092BA5BFD7";
paths = (
{
closed = 1;
nodes = (
"40 418 LINE",
"40 387 LINE",
"351 387 LINE",
"351 418 LINE"
);
}
);
width = 391;
}
);
note = hyphen;
unicode = 002D;
},
{
glyphname = period;
lastChange = "2016-07-05 19:32:38 +0000";
layers = (
{
layerId = "6418A72B-B7AF-4A99-B2A7-67092BA5BFD7";
paths = (
{
closed = 1;
nodes = (
"93 -7 OFFCURVE",
"104 3 OFFCURVE",
"104 24 CURVE SMOOTH",
"104 45 OFFCURVE",
"93 55 OFFCURVE",
"70 55 CURVE SMOOTH",
"47 55 OFFCURVE",
"35 45 OFFCURVE",
"35 24 CURVE SMOOTH",
"35 3 OFFCURVE",
"47 -7 OFFCURVE",
"70 -7 CURVE SMOOTH"
);
}
);
width = 139;
}
);
note = period;
unicode = 002E;
},
{
glyphname = slash;
lastChange = "2016-07-05 19:32:38 +0000";
layers = (
{
layerId = "6418A72B-B7AF-4A99-B2A7-67092BA5BFD7";
paths = (
{
closed = 1;
nodes = (
"62 0 LINE",
"621 748 LINE",
"582 748 LINE",
"25 0 LINE"
);
}
);
width = 646;
}
);
note = slash;
unicode = 002F;
},
{
glyphname = zero;
lastChange = "2016-07-05 19:32:38 +0000";
layers = (
{
layerId = "6418A72B-B7AF-4A99-B2A7-67092BA5BFD7";
paths = (
{
closed = 1;
nodes = (
"503 -13 OFFCURVE",
"567 5 OFFCURVE",
"626 41 CURVE SMOOTH",
"744 112 OFFCURVE",
"816 238 OFFCURVE",
"816 373 CURVE SMOOTH",
"816 586 OFFCURVE",
"641 761 OFFCURVE",
"428 761 CURVE SMOOTH",
"215 761 OFFCURVE",
"40 584 OFFCURVE",
"40 376 CURVE SMOOTH",
"40 167 OFFCURVE",
"213 -13 OFFCURVE",
"420 -13 CURVE SMOOTH",
"435 -13 LINE SMOOTH"
);
},
{
closed = 1;
nodes = (
"783 177 OFFCURVE",
"623 16 OFFCURVE",
"428 16 CURVE SMOOTH",
"232 16 OFFCURVE",
"73 177 OFFCURVE",
"73 374 CURVE SMOOTH",
"73 570 OFFCURVE",
"232 732 OFFCURVE",
"428 732 CURVE SMOOTH",
"623 732 OFFCURVE",
"783 570 OFFCURVE",
"783 374 CURVE SMOOTH"
);
}
);
width = 856;
}
);
note = zero;
unicode = 0030;
},
{
glyphname = one;
lastChange = "2016-07-05 19:32:38 +0000";
layers = (
{
layerId = "6418A72B-B7AF-4A99-B2A7-67092BA5BFD7";
paths = (
{
closed = 1;
nodes = (
"166 748 LINE",
"15 748 LINE",
"15 719 LINE",
"133 719 LINE",
"133 0 LINE",
"166 0 LINE"
);
}
);
width = 241;
}
);
note = one;
unicode = 0031;
},
{
glyphname = two;
lastChange = "2016-07-05 19:32:38 +0000";
layers = (
{
layerId = "6418A72B-B7AF-4A99-B2A7-67092BA5BFD7";
paths = (
{
closed = 1;
nodes = (
"556 379 OFFCURVE",
"499 293 OFFCURVE",
"385 221 CURVE SMOOTH",
"36 0 LINE",
"586 0 LINE",
"586 33 LINE",
"140 33 LINE",
"412 203 LINE SMOOTH",
"530 277 OFFCURVE",
"589 369 OFFCURVE",
"589 479 CURVE SMOOTH",
"589 631 OFFCURVE",
"480 759 OFFCURVE",
"317 759 CURVE SMOOTH",
"153 759 OFFCURVE",
"30 631 OFFCURVE",
"30 462 CURVE",
"61 462 LINE",
"61 611 OFFCURVE",
"170 731 OFFCURVE",
"315 731 CURVE SMOOTH",
"460 731 OFFCURVE",
"556 615 OFFCURVE",
"556 480 CURVE SMOOTH"
);
}
);
width = 637;
}
);
note = two;
unicode = 0032;
},
{
glyphname = three;
lastChange = "2016-07-05 19:32:38 +0000";
layers = (
{
layerId = "6418A72B-B7AF-4A99-B2A7-67092BA5BFD7";
paths = (
{
closed = 1;
nodes = (
"544 330 OFFCURVE",
"496 410 OFFCURVE",
"423 454 CURVE",
"458 493 OFFCURVE",
"476 537 OFFCURVE",
"476 586 CURVE SMOOTH",
"476 684 OFFCURVE",
"393 761 OFFCURVE",
"289 761 CURVE SMOOTH",
"184 761 OFFCURVE",
"100 678 OFFCURVE",
"97 575 CURVE",
"129 575 LINE",
"132 662 OFFCURVE",
"205 733 OFFCURVE",
"290 733 CURVE SMOOTH",
"374 733 OFFCURVE",
"444 663 OFFCURVE",
"444 582 CURVE SMOOTH",
"444 537 OFFCURVE",
"424 490 OFFCURVE",
"389 463 CURVE SMOOTH",
"371 449 LINE",
"390 441 LINE SMOOTH",
"462 410 OFFCURVE",
"511 321 OFFCURVE",
"511 237 CURVE SMOOTH",
"511 114 OFFCURVE",
"409 18 OFFCURVE",
"285 18 CURVE SMOOTH",
"161 18 OFFCURVE",
"61 115 OFFCURVE",
"61 236 CURVE SMOOTH",
"61 252 LINE",
"30 252 LINE",
"30 231 LINE SMOOTH",
"30 99 OFFCURVE",
"146 -10 OFFCURVE",
"287 -10 CURVE SMOOTH",
"428 -10 OFFCURVE",
"544 102 OFFCURVE",
"544 242 CURVE SMOOTH"
);
}
);
width = 589;
}
);
note = three;
unicode = 0033;
},
{
glyphname = four;
lastChange = "2016-07-05 19:32:38 +0000";
layers = (
{
layerId = "6418A72B-B7AF-4A99-B2A7-67092BA5BFD7";
paths = (
{
closed = 1;
nodes = (
"388 91 LINE",
"475 91 LINE",
"475 124 LINE",
"388 124 LINE",
"388 760 LINE",
"17 91 LINE",
"355 91 LINE",
"355 0 LINE",
"388 0 LINE"
);
},
{
closed = 1;
nodes = (
"355 645 LINE",
"355 124 LINE",
"66 124 LINE"
);
}
);
width = 490;
}
);
note = four;
unicode = 0034;
},
{
glyphname = five;
lastChange = "2016-07-05 19:32:38 +0000";
layers = (
{
layerId = "6418A72B-B7AF-4A99-B2A7-67092BA5BFD7";
paths = (
{
closed = 1;
nodes = (
"76 416 LINE",
"111 416 LINE",
"159 485 OFFCURVE",
"236 529 OFFCURVE",
"319 529 CURVE SMOOTH",
"459 529 OFFCURVE",
"572 413 OFFCURVE",
"572 273 CURVE SMOOTH",
"572 132 OFFCURVE",
"459 18 OFFCURVE",
"319 18 CURVE SMOOTH",
"208 18 OFFCURVE",
"108 95 OFFCURVE",
"76 202 CURVE",
"45 202 LINE",
"74 79 OFFCURVE",
"192 -10 OFFCURVE",
"319 -10 CURVE SMOOTH",
"476 -10 OFFCURVE",
"604 116 OFFCURVE",
"604 273 CURVE SMOOTH",
"604 429 OFFCURVE",
"478 557 OFFCURVE",
"319 557 CURVE SMOOTH",
"238 557 OFFCURVE",
"160 524 OFFCURVE",
"113 464 CURVE",
"140 721 LINE",
"521 721 LINE",
"521 750 LINE",
"111 750 LINE"
);
}
);
width = 649;
}
);
note = five;
unicode = 0035;
},
{
glyphname = six;
lastChange = "2016-07-05 19:32:38 +0000";
layers = (
{
layerId = "6418A72B-B7AF-4A99-B2A7-67092BA5BFD7";
paths = (
{
closed = 1;
nodes = (
"276 555 OFFCURVE",
"216 540 OFFCURVE",
"193 523 CURVE",
"391 750 LINE",
"353 750 LINE",
"134 499 LINE SMOOTH",
"67 422 OFFCURVE",
"33 345 OFFCURVE",
"33 268 CURVE SMOOTH",
"33 114 OFFCURVE",
"159 -12 OFFCURVE",
"316 -12 CURVE SMOOTH",
"472 -12 OFFCURVE",
"601 114 OFFCURVE",
"601 269 CURVE SMOOTH",
"601 424 OFFCURVE",
"471 555 OFFCURVE",
"324 555 CURVE SMOOTH"
);
},
{
closed = 1;
nodes = (
"64 409 OFFCURVE",
"180 527 OFFCURVE",
"316 527 CURVE SMOOTH",
"452 527 OFFCURVE",
"565 410 OFFCURVE",
"565 270 CURVE SMOOTH",
"565 130 OFFCURVE",
"454 16 OFFCURVE",
"316 16 CURVE SMOOTH",
"178 16 OFFCURVE",
"64 130 OFFCURVE",
"64 270 CURVE SMOOTH"
);
}
);
width = 631;
}
);
note = six;
unicode = 0036;
},
{
glyphname = seven;
lastChange = "2016-07-05 19:32:38 +0000";
layers = (
{
layerId = "6418A72B-B7AF-4A99-B2A7-67092BA5BFD7";
paths = (
{
closed = 1;
nodes = (
"463 719 LINE",
"92 0 LINE",
"129 0 LINE",
"515 748 LINE",
"20 748 LINE",
"20 719 LINE"
);
}
);
width = 535;
}
);
note = seven;
unicode = 0037;
},
{
glyphname = eight;
lastChange = "2016-07-05 19:32:38 +0000";
layers = (
{
layerId = "6418A72B-B7AF-4A99-B2A7-67092BA5BFD7";
paths = (
{
closed = 1;
nodes = (
"435 693 OFFCURVE",
"366 760 OFFCURVE",
"280 760 CURVE SMOOTH",
"194 760 OFFCURVE",
"125 693 OFFCURVE",
"125 609 CURVE SMOOTH",
"125 554 OFFCURVE",
"161 500 OFFCURVE",
"210 476 CURVE",
"105 444 OFFCURVE",
"30 345 OFFCURVE",
"30 238 CURVE SMOOTH",
"30 101 OFFCURVE",
"145 -14 OFFCURVE",
"285 -14 CURVE SMOOTH",
"425 -14 OFFCURVE",
"539 99 OFFCURVE",
"539 238 CURVE SMOOTH",
"539 347 OFFCURVE",
"461 451 OFFCURVE",
"353 478 CURVE",
"404 505 OFFCURVE",
"435 554 OFFCURVE",
"435 609 CURVE SMOOTH"
);
},
{
closed = 1;
nodes = (
"346 732 OFFCURVE",
"403 675 OFFCURVE",
"403 610 CURVE SMOOTH",
"403 545 OFFCURVE",
"346 488 OFFCURVE",
"280 488 CURVE SMOOTH",
"214 488 OFFCURVE",
"157 545 OFFCURVE",
"157 610 CURVE SMOOTH",
"157 675 OFFCURVE",
"214 732 OFFCURVE",
"280 732 CURVE SMOOTH"
);
},
{
closed = 1;
nodes = (
"63 357 OFFCURVE",
"165 460 OFFCURVE",
"286 460 CURVE SMOOTH",
"406 460 OFFCURVE",
"506 358 OFFCURVE",
"506 237 CURVE SMOOTH",
"506 116 OFFCURVE",
"406 15 OFFCURVE",
"285 15 CURVE SMOOTH",
"164 15 OFFCURVE",
"63 116 OFFCURVE",
"63 237 CURVE SMOOTH"
);
}
);
width = 569;
}
);
note = eight;
unicode = 0038;
},
{
glyphname = nine;
lastChange = "2016-07-05 19:32:38 +0000";
layers = (
{
layerId = "6418A72B-B7AF-4A99-B2A7-67092BA5BFD7";
paths = (
{
closed = 1;
nodes = (
"353 195 OFFCURVE",
"413 210 OFFCURVE",
"436 227 CURVE",
"238 0 LINE",
"276 0 LINE",
"495 251 LINE SMOOTH",
"562 328 OFFCURVE",
"596 405 OFFCURVE",
"596 482 CURVE SMOOTH",
"596 635 OFFCURVE",
"470 762 OFFCURVE",
"314 762 CURVE SMOOTH",
"157 762 OFFCURVE",
"28 636 OFFCURVE",
"28 481 CURVE SMOOTH",
"28 325 OFFCURVE",
"157 195 OFFCURVE",
"305 195 CURVE SMOOTH"
);
},
{
closed = 1;
nodes = (
"565 341 OFFCURVE",
"449 223 OFFCURVE",
"313 223 CURVE SMOOTH",
"177 223 OFFCURVE",
"64 340 OFFCURVE",
"64 480 CURVE SMOOTH",
"64 620 OFFCURVE",
"176 734 OFFCURVE",
"314 734 CURVE SMOOTH",
"452 734 OFFCURVE",
"565 620 OFFCURVE",
"565 481 CURVE SMOOTH"
);
}
);
width = 631;
}
);
note = nine;
unicode = 0039;
},
{
glyphname = colon;
lastChange = "2016-07-05 19:32:38 +0000";
layers = (
{
layerId = "6418A72B-B7AF-4A99-B2A7-67092BA5BFD7";
paths = (
{
closed = 1;
nodes = (
"141 -7 OFFCURVE",
"152 3 OFFCURVE",
"152 24 CURVE SMOOTH",
"152 45 OFFCURVE",
"141 55 OFFCURVE",
"119 55 CURVE SMOOTH",
"96 55 OFFCURVE",
"85 45 OFFCURVE",
"85 24 CURVE SMOOTH",
"85 3 OFFCURVE",
"96 -7 OFFCURVE",
"119 -7 CURVE SMOOTH"
);
},
{
closed = 1;
nodes = (
"141 261 OFFCURVE",
"152 271 OFFCURVE",
"152 292 CURVE SMOOTH",
"152 313 OFFCURVE",
"141 323 OFFCURVE",
"119 323 CURVE SMOOTH",
"96 323 OFFCURVE",
"85 313 OFFCURVE",
"85 292 CURVE SMOOTH",
"85 271 OFFCURVE",
"96 261 OFFCURVE",
"119 261 CURVE SMOOTH"
);
}
);
width = 237;
}
);
note = colon;
unicode = 003A;
},
{
glyphname = semicolon;
lastChange = "2016-07-05 19:32:38 +0000";
layers = (
{
layerId = "6418A72B-B7AF-4A99-B2A7-67092BA5BFD7";
paths = (
{
closed = 1;
nodes = (
"143 261 OFFCURVE",
"154 271 OFFCURVE",
"154 292 CURVE SMOOTH",
"154 313 OFFCURVE",
"143 323 OFFCURVE",
"120 323 CURVE SMOOTH",
"97 323 OFFCURVE",
"85 313 OFFCURVE",
"85 292 CURVE SMOOTH",
"85 271 OFFCURVE",
"97 261 OFFCURVE",
"120 261 CURVE SMOOTH"
);
},
{
closed = 1;
nodes = (
"151 8 LINE",
"153 14 OFFCURVE",
"154 19 OFFCURVE",
"154 24 CURVE SMOOTH",
"154 45 OFFCURVE",
"143 55 OFFCURVE",
"120 55 CURVE SMOOTH",
"97 55 OFFCURVE",
"85 45 OFFCURVE",
"85 24 CURVE SMOOTH",
"85 3 OFFCURVE",
"95 -7 OFFCURVE",
"116 -7 CURVE",
"116 -63 LINE",
"120 -63 LINE"
);
}
);
width = 239;
}
);
note = semicolon;
unicode = 003B;
},
{
glyphname = less;
lastChange = "2016-07-05 19:32:38 +0000";
layers = (
{
layerId = "6418A72B-B7AF-4A99-B2A7-67092BA5BFD7";
paths = (
{
closed = 1;
nodes = (
"388 229 LINE",
"388 269 LINE",
"117 429 LINE",
"388 588 LINE",
"388 626 LINE",
"75 444 LINE",
"75 414 LINE"
);
}
);
width = 408;
}
);
note = less;
unicode = 003C;
},
{
glyphname = equal;
lastChange = "2016-07-05 19:32:38 +0000";
layers = (
{
layerId = "6418A72B-B7AF-4A99-B2A7-67092BA5BFD7";
paths = (
{
closed = 1;
nodes = (
"50 492 LINE",
"50 461 LINE",
"361 461 LINE",
"361 492 LINE"
);
},
{
closed = 1;
nodes = (
"50 362 LINE",
"50 333 LINE",
"361 333 LINE",
"361 362 LINE"
);
}
);
width = 411;
}
);
note = equal;
unicode = 003D;
},
{
glyphname = greater;
lastChange = "2016-07-05 19:32:38 +0000";
layers = (
{
layerId = "6418A72B-B7AF-4A99-B2A7-67092BA5BFD7";
paths = (
{
closed = 1;
nodes = (
"346 429 LINE",
"75 269 LINE",
"75 229 LINE",
"388 414 LINE",
"388 443 LINE",
"75 626 LINE",
"75 588 LINE"
);
}
);
width = 408;
}
);
note = greater;
unicode = 003E;
},
{
glyphname = question;
lastChange = "2016-07-05 19:32:38 +0000";
layers = (
{
layerId = "6418A72B-B7AF-4A99-B2A7-67092BA5BFD7";
paths = (
{
closed = 1;
nodes = (
"84 646 OFFCURVE",
"172 733 OFFCURVE",
"301 733 CURVE SMOOTH",
"430 733 OFFCURVE",
"529 638 OFFCURVE",
"529 515 CURVE SMOOTH",
"529 391 OFFCURVE",
"437 290 OFFCURVE",
"304 290 CURVE SMOOTH",
"290 290 LINE",
"290 96 LINE",
"322 96 LINE",
"322 261 LINE",
"388 265 OFFCURVE",
"444 290 OFFCURVE",
"490 335 CURVE",
"537 394 OFFCURVE",
"561 455 OFFCURVE",
"561 520 CURVE SMOOTH",
"561 648 OFFCURVE",
"451 762 OFFCURVE",
"303 762 CURVE SMOOTH",
"154 762 OFFCURVE",
"53 659 OFFCURVE",
"45 511 CURVE",
"79 511 LINE"
);
},
{
closed = 1;
nodes = (
"332 -7 OFFCURVE",
"343 3 OFFCURVE",
"343 24 CURVE SMOOTH",
"343 45 OFFCURVE",
"332 55 OFFCURVE",
"309 55 CURVE SMOOTH",
"286 55 OFFCURVE",
"274 45 OFFCURVE",
"274 24 CURVE SMOOTH",
"274 3 OFFCURVE",
"286 -7 OFFCURVE",
"309 -7 CURVE SMOOTH"
);
}
);
width = 646;
}
);
note = question;
unicode = 003F;
},
{
glyphname = at;
lastChange = "2016-07-05 19:32:38 +0000";
layers = (
{
layerId = "6418A72B-B7AF-4A99-B2A7-67092BA5BFD7";
paths = (
{
closed = 1;
nodes = (
"656 -13 OFFCURVE",
"830 168 OFFCURVE",
"830 378 CURVE SMOOTH",
"830 588 OFFCURVE",
"656 763 OFFCURVE",
"441 763 CURVE SMOOTH",
"226 763 OFFCURVE",
"50 586 OFFCURVE",
"50 378 CURVE SMOOTH",
"50 169 OFFCURVE",
"225 -13 OFFCURVE",
"432 -13 CURVE SMOOTH",
"447 -13 LINE SMOOTH"
);
},
{
closed = 1;
nodes = (
"797 179 OFFCURVE",
"636 16 OFFCURVE",
"440 16 CURVE SMOOTH",
"244 16 OFFCURVE",
"83 179 OFFCURVE",
"83 376 CURVE SMOOTH",
"83 572 OFFCURVE",
"244 734 OFFCURVE",
"441 734 CURVE SMOOTH",
"637 734 OFFCURVE",
"797 572 OFFCURVE",
"797 376 CURVE SMOOTH"
);
},
{
closed = 1;
nodes = (
"644 495 LINE",
"601 567 OFFCURVE",
"523 611 OFFCURVE",
"440 611 CURVE SMOOTH",
"309 611 OFFCURVE",
"202 504 OFFCURVE",
"202 375 CURVE SMOOTH",
"202 246 OFFCURVE",
"309 139 OFFCURVE",
"440 139 CURVE SMOOTH",
"523 139 OFFCURVE",
"601 183 OFFCURVE",
"644 255 CURVE",
"644 150 LINE",
"676 150 LINE",
"676 600 LINE",
"644 600 LINE"
);
},
{
closed = 1;
nodes = (
"234 486 OFFCURVE",
"329 583 OFFCURVE",
"441 583 CURVE SMOOTH",
"553 583 OFFCURVE",
"646 487 OFFCURVE",
"646 375 CURVE SMOOTH",
"646 262 OFFCURVE",
"554 167 OFFCURVE",
"442 167 CURVE SMOOTH",
"329 167 OFFCURVE",
"234 262 OFFCURVE",
"234 374 CURVE SMOOTH"
);
}
);
width = 880;
}
);
note = at;
unicode = 0040;
},
{
glyphname = A;
lastChange = "2016-07-07 22:10:37 +0000";
layers = (
{
anchors = (
{
name = bottom;
position = "{405, 0}";
},
{
name = ogonek;
position = "{728, 10}";
},
{
name = top;
position = "{405, 750}";
}
);
layerId = "6418A72B-B7AF-4A99-B2A7-67092BA5BFD7";
paths = (
{
closed = 1;
nodes = (
"61 0 LINE",
"201 286 LINE",
"602 286 LINE",
"744 0 LINE",
"779 0 LINE",
"404 768 LINE",
"30 0 LINE"
);
},
{
closed = 1;
nodes = (
"214 315 LINE",
"401 699 LINE",
"590 315 LINE"
);
}
);
width = 809;
}
);
note = A;
unicode = 0041;
},
{
glyphname = B;
lastChange = "2016-07-05 19:32:38 +0000";
layers = (
{
layerId = "6418A72B-B7AF-4A99-B2A7-67092BA5BFD7";
paths = (
{
closed = 1;
nodes = (
"107 0 LINE SMOOTH",
"246 0 OFFCURVE",
"357 109 OFFCURVE",
"357 237 CURVE SMOOTH",
"357 364 OFFCURVE",
"281 452 OFFCURVE",
"178 477 CURVE",
"222 493 OFFCURVE",
"260 555 OFFCURVE",
"260 606 CURVE SMOOTH",
"260 690 OFFCURVE",
"194 750 OFFCURVE",
"107 750 CURVE SMOOTH",
"75 750 LINE",
"75 0 LINE"
);
},
{
closed = 1;
nodes = (
"231 459 OFFCURVE",
"326 361 OFFCURVE",
"326 244 CURVE SMOOTH",
"326 127 OFFCURVE",
"230 28 OFFCURVE",
"115 28 CURVE SMOOTH",
"107 28 LINE",
"107 459 LINE",
"115 459 LINE SMOOTH"
);
},
{
closed = 1;
nodes = (
"176 722 OFFCURVE",
"229 670 OFFCURVE",
"229 607 CURVE SMOOTH",
"229 543 OFFCURVE",
"175 486 OFFCURVE",
"115 486 CURVE SMOOTH",
"107 486 LINE",
"107 722 LINE",
"115 722 LINE SMOOTH"
);
}
);
width = 387;
}
);
note = B;
unicode = 0042;
},
{
glyphname = C;
lastChange = "2016-07-05 19:32:38 +0000";
layers = (
{
layerId = "6418A72B-B7AF-4A99-B2A7-67092BA5BFD7";
paths = (
{
closed = 1;
nodes = (
"511 -11 OFFCURVE",
"577 8 OFFCURVE",
"638 45 CURVE",
"638 82 LINE",
"575 39 OFFCURVE",
"508 18 OFFCURVE",
"435 18 CURVE SMOOTH",
"239 18 OFFCURVE",
"78 181 OFFCURVE",
"78 378 CURVE SMOOTH",
"78 574 OFFCURVE",
"239 736 OFFCURVE",
"435 736 CURVE SMOOTH",
"508 736 OFFCURVE",
"575 715 OFFCURVE",
"638 672 CURVE",
"638 709 LINE",
"574 746 OFFCURVE",
"506 765 OFFCURVE",
"435 765 CURVE SMOOTH",
"222 765 OFFCURVE",
"45 589 OFFCURVE",
"45 377 CURVE SMOOTH",
"45 310 OFFCURVE",
"62 246 OFFCURVE",
"97 187 CURVE SMOOTH",
"165 67 OFFCURVE",
"292 -11 OFFCURVE",
"429 -11 CURVE SMOOTH",
"440 -11 LINE SMOOTH"
);
}
);
width = 698;
}
);
note = C;
unicode = 0043;
},
{
glyphname = D;
lastChange = "2016-07-05 19:32:38 +0000";
layers = (
{
layerId = "6418A72B-B7AF-4A99-B2A7-67092BA5BFD7";
paths = (
{
closed = 1;
nodes = (
"107 0 LINE SMOOTH",
"332 0 OFFCURVE",
"481 169 OFFCURVE",
"481 375 CURVE SMOOTH",
"481 581 OFFCURVE",
"331 750 OFFCURVE",
"107 750 CURVE SMOOTH",
"75 750 LINE",
"75 0 LINE"
);
},
{
closed = 1;
nodes = (
"310 720 OFFCURVE",
"448 563 OFFCURVE",
"448 375 CURVE SMOOTH",
"448 186 OFFCURVE",
"310 31 OFFCURVE",
"115 31 CURVE SMOOTH",
"107 31 LINE",
"107 720 LINE",
"115 720 LINE SMOOTH"
);
}
);
width = 526;
}
);
note = D;
unicode = 0044;
},
{
glyphname = E;
lastChange = "2016-07-05 19:32:38 +0000";
layers = (
{
layerId = "6418A72B-B7AF-4A99-B2A7-67092BA5BFD7";
paths = (
{
closed = 1;
nodes = (
"344 0 LINE",
"344 29 LINE",
"108 29 LINE",
"108 284 LINE",
"305 284 LINE",
"305 313 LINE",
"108 313 LINE",
"108 721 LINE",
"344 721 LINE",
"344 750 LINE",
"75 750 LINE",
"75 0 LINE"
);
}
);
width = 369;
}
);
note = E;
unicode = 0045;
},
{
glyphname = F;
lastChange = "2016-07-05 19:32:38 +0000";
layers = (
{
layerId = "6418A72B-B7AF-4A99-B2A7-67092BA5BFD7";
paths = (
{
closed = 1;
nodes = (
"108 0 LINE",
"108 286 LINE",
"303 286 LINE",
"303 315 LINE",
"108 315 LINE",
"108 721 LINE",
"342 721 LINE",
"342 750 LINE",
"75 750 LINE",
"75 0 LINE"
);
}
);
width = 367;
}
);
note = F;
unicode = 0046;
},
{
glyphname = G;
lastChange = "2016-07-05 19:32:38 +0000";
layers = (
{
layerId = "6418A72B-B7AF-4A99-B2A7-67092BA5BFD7";
paths = (
{
closed = 1;
nodes = (
"605 60 LINE",
"546 32 OFFCURVE",
"490 18 OFFCURVE",
"435 18 CURVE SMOOTH",
"239 18 OFFCURVE",
"78 181 OFFCURVE",
"78 378 CURVE SMOOTH",
"78 574 OFFCURVE",
"239 736 OFFCURVE",
"435 736 CURVE SMOOTH",
"508 736 OFFCURVE",
"575 715 OFFCURVE",
"638 672 CURVE",
"638 709 LINE",
"574 746 OFFCURVE",
"506 765 OFFCURVE",
"435 765 CURVE SMOOTH",
"222 765 OFFCURVE",
"45 589 OFFCURVE",
"45 377 CURVE SMOOTH",
"45 310 OFFCURVE",
"62 246 OFFCURVE",
"97 187 CURVE SMOOTH",
"165 67 OFFCURVE",
"292 -11 OFFCURVE",
"429 -11 CURVE SMOOTH",
"440 -11 LINE SMOOTH",
"513 -11 OFFCURVE",
"579 7 OFFCURVE",
"638 44 CURVE",
"638 315 LINE",
"357 315 LINE",
"357 286 LINE",
"605 286 LINE"
);
}
);
width = 693;
}
);
note = G;
unicode = 0047;
},
{
glyphname = H;
lastChange = "2016-07-05 19:32:38 +0000";
layers = (
{
layerId = "6418A72B-B7AF-4A99-B2A7-67092BA5BFD7";
paths = (
{
closed = 1;
nodes = (
"108 315 LINE",
"108 750 LINE",
"75 750 LINE",
"75 0 LINE",
"108 0 LINE",
"108 286 LINE",
"622 286 LINE",
"622 0 LINE",
"655 0 LINE",
"655 750 LINE",
"622 750 LINE",
"622 315 LINE"
);
}
);
width = 730;
}
);
note = H;
unicode = 0048;
},
{
glyphname = I;
lastChange = "2016-07-05 19:32:38 +0000";
layers = (
{
layerId = "6418A72B-B7AF-4A99-B2A7-67092BA5BFD7";
paths = (
{
closed = 1;
nodes = (
"113 0 LINE",
"113 750 LINE",
"80 750 LINE",
"80 0 LINE"
);
}
);
width = 193;
}
);
note = I;
unicode = 0049;
},
{
glyphname = J;
lastChange = "2016-07-05 19:32:38 +0000";
layers = (
{
layerId = "6418A72B-B7AF-4A99-B2A7-67092BA5BFD7";
paths = (
{
closed = 1;
nodes = (
"359 226 LINE SMOOTH",
"359 102 OFFCURVE",
"288 14 OFFCURVE",
"171 14 CURVE SMOOTH",
"112 14 OFFCURVE",
"62 37 OFFCURVE",
"20 83 CURVE",
"20 42 LINE",
"65 4 OFFCURVE",
"114 -15 OFFCURVE",
"167 -15 CURVE SMOOTH",
"177 -15 LINE SMOOTH",
"305 -15 OFFCURVE",
"392 85 OFFCURVE",
"392 230 CURVE SMOOTH",
"392 750 LINE",
"174 750 LINE",
"174 721 LINE",
"359 721 LINE"
);
}
);
width = 467;
}
);
note = J;
unicode = 004A;
},
{
glyphname = K;
lastChange = "2016-07-05 19:32:38 +0000";
layers = (
{
layerId = "6418A72B-B7AF-4A99-B2A7-67092BA5BFD7";
paths = (
{
closed = 1;
nodes = (
"108 0 LINE",
"108 417 LINE",
"508 0 LINE",
"552 0 LINE",
"121 451 LINE",
"464 750 LINE",
"424 750 LINE",
"107 475 LINE",
"107 750 LINE",
"75 750 LINE",
"75 0 LINE"
);
}
);
width = 572;
}
);
note = K;
unicode = 004B;
},
{
glyphname = L;
lastChange = "2016-07-05 19:32:38 +0000";
layers = (
{
layerId = "6418A72B-B7AF-4A99-B2A7-67092BA5BFD7";
paths = (
{
closed = 1;
nodes = (
"75 0 LINE",
"340 0 LINE",
"340 29 LINE",
"108 29 LINE",
"108 750 LINE",
"75 750 LINE"
);
}
);
width = 360;
}
);
note = L;
unicode = 004C;
},
{
glyphname = M;
lastChange = "2016-07-05 19:32:38 +0000";
layers = (
{
layerId = "6418A72B-B7AF-4A99-B2A7-67092BA5BFD7";
paths = (
{
closed = 1;
nodes = (
"460 58 LINE",
"123 750 LINE",
"75 750 LINE",
"75 0 LINE",
"105 0 LINE",
"105 711 LINE",
"457 -14 LINE",
"811 711 LINE",
"811 0 LINE",
"844 0 LINE",
"844 750 LINE",
"798 750 LINE"
);
}
);
width = 919;
}
);
note = M;
unicode = 004D;
},
{
glyphname = N;
lastChange = "2016-07-05 19:32:38 +0000";
layers = (
{
layerId = "6418A72B-B7AF-4A99-B2A7-67092BA5BFD7";
paths = (
{
closed = 1;
nodes = (
"75 761 LINE",
"75 0 LINE",
"104 0 LINE",
"104 668 LINE",
"656 -11 LINE",
"656 750 LINE",
"627 750 LINE",
"627 83 LINE"
);
}
);
width = 731;
}
);
note = N;
unicode = 004E;
},
{
glyphname = O;
lastChange = "2016-07-07 22:06:00 +0000";
layers = (
{
anchors = (
{
name = bottom;
position = "{435, 0}";
},
{
name = center;
position = "{435, 375}";
},
{
name = ogonek;
position = "{783, 10}";
},
{
name = top;
position = "{435, 750}";
},
{
name = topleft;
position = "{20, 750}";
},
{
name = topright;
position = "{850, 750}";
}
);
layerId = "6418A72B-B7AF-4A99-B2A7-67092BA5BFD7";
paths = (
{
closed = 1;
nodes = (
"651 -13 OFFCURVE",
"825 168 OFFCURVE",
"825 378 CURVE SMOOTH",
"825 588 OFFCURVE",
"651 763 OFFCURVE",
"436 763 CURVE SMOOTH",
"221 763 OFFCURVE",
"45 586 OFFCURVE",
"45 378 CURVE SMOOTH",
"45 169 OFFCURVE",
"220 -13 OFFCURVE",
"427 -13 CURVE SMOOTH",
"442 -13 LINE SMOOTH"
);
},
{
closed = 1;
nodes = (
"792 179 OFFCURVE",
"631 16 OFFCURVE",
"435 16 CURVE SMOOTH",
"239 16 OFFCURVE",
"78 179 OFFCURVE",
"78 376 CURVE SMOOTH",
"78 572 OFFCURVE",
"239 734 OFFCURVE",
"436 734 CURVE SMOOTH",
"632 734 OFFCURVE",
"792 572 OFFCURVE",
"792 376 CURVE SMOOTH"
);
}
);
width = 870;
}
);
note = O;
unicode = 004F;
},
{
glyphname = P;
lastChange = "2016-07-05 19:32:38 +0000";
layers = (
{
layerId = "6418A72B-B7AF-4A99-B2A7-67092BA5BFD7";
paths = (
{
closed = 1;
nodes = (
"107 0 LINE",
"107 273 LINE",
"115 273 LINE SMOOTH",
"236 273 OFFCURVE",
"357 381 OFFCURVE",
"357 510 CURVE SMOOTH",
"357 639 OFFCURVE",
"246 750 OFFCURVE",
"107 750 CURVE SMOOTH",
"74 750 LINE",
"74 0 LINE"
);
},
{
closed = 1;
nodes = (
"115 721 LINE SMOOTH",
"224 721 OFFCURVE",
"324 623 OFFCURVE",
"324 510 CURVE SMOOTH",
"324 397 OFFCURVE",
"227 301 OFFCURVE",
"115 301 CURVE SMOOTH",
"107 301 LINE",
"107 721 LINE"
);
}
);
width = 390;
}
);
note = P;
unicode = 0050;
},
{
glyphname = Q;
lastChange = "2016-07-05 19:32:38 +0000";
layers = (
{
layerId = "6418A72B-B7AF-4A99-B2A7-67092BA5BFD7";
paths = (
{
closed = 1;
nodes = (
"825 589 OFFCURVE",
"651 764 OFFCURVE",
"436 764 CURVE SMOOTH",
"221 764 OFFCURVE",
"45 588 OFFCURVE",
"45 376 CURVE SMOOTH",
"45 309 OFFCURVE",
"62 245 OFFCURVE",
"97 186 CURVE SMOOTH",
"165 66 OFFCURVE",
"292 -12 OFFCURVE",
"429 -12 CURVE SMOOTH",
"440 -12 LINE SMOOTH",
"515 -12 OFFCURVE",
"585 9 OFFCURVE",
"648 50 CURVE",
"710 -12 LINE",
"754 -12 LINE",
"673 69 LINE",
"765 142 OFFCURVE",
"825 257 OFFCURVE",
"825 376 CURVE SMOOTH"
);
},
{
closed = 1;
nodes = (
"239 17 OFFCURVE",
"78 180 OFFCURVE",
"78 377 CURVE SMOOTH",
"78 573 OFFCURVE",
"239 735 OFFCURVE",
"436 735 CURVE SMOOTH",
"632 735 OFFCURVE",
"792 573 OFFCURVE",
"792 376 CURVE SMOOTH",
"792 267 OFFCURVE",
"735 159 OFFCURVE",
"650 91 CURVE",
"496 243 LINE",
"453 243 LINE",
"626 72 LINE",
"566 35 OFFCURVE",
"502 17 OFFCURVE",
"435 17 CURVE SMOOTH"
);
}
);
width = 870;
}
);
note = Q;
unicode = 0051;
},
{
glyphname = R;
lastChange = "2016-07-05 19:32:38 +0000";
layers = (
{
layerId = "6418A72B-B7AF-4A99-B2A7-67092BA5BFD7";
paths = (
{
closed = 1;
nodes = (
"107 0 LINE",
"107 238 LINE",
"334 0 LINE",
"377 0 LINE",
"119 272 LINE",
"126 272 LINE SMOOTH",
"241 272 OFFCURVE",
"362 382 OFFCURVE",
"362 511 CURVE SMOOTH",
"362 639 OFFCURVE",
"247 750 OFFCURVE",
"118 750 CURVE SMOOTH",
"75 750 LINE",
"75 0 LINE"
);
},
{
closed = 1;
nodes = (
"120 721 LINE SMOOTH",
"229 721 OFFCURVE",
"330 623 OFFCURVE",
"330 510 CURVE SMOOTH",
"330 397 OFFCURVE",
"233 301 OFFCURVE",
"125 301 CURVE SMOOTH",
"107 301 LINE",
"107 721 LINE"
);
}
);
width = 407;
}
);
note = R;
unicode = 0052;
},
{
glyphname = S;
lastChange = "2016-07-05 19:32:38 +0000";
layers = (
{
layerId = "6418A72B-B7AF-4A99-B2A7-67092BA5BFD7";
paths = (
{
closed = 1;
nodes = (
"341 740 OFFCURVE",
"292 763 OFFCURVE",
"231 763 CURVE SMOOTH",
"143 763 OFFCURVE",
"75 712 OFFCURVE",
"75 619 CURVE SMOOTH",
"75 612 LINE SMOOTH",
"75 582 OFFCURVE",
"84 554 OFFCURVE",
"101 529 CURVE SMOOTH",
"136 478 OFFCURVE",
"190 451 OFFCURVE",
"251 412 CURVE SMOOTH",
"282 393 OFFCURVE",
"310 374 OFFCURVE",
"336 357 CURVE SMOOTH",
"388 321 OFFCURVE",
"427 264 OFFCURVE",
"427 197 CURVE SMOOTH",
"427 191 LINE SMOOTH",
"427 84 OFFCURVE",
"342 15 OFFCURVE",
"242 15 CURVE SMOOTH",
"142 15 OFFCURVE",
"75 67 OFFCURVE",
"40 143 CURVE",
"40 89 LINE",
"86 20 OFFCURVE",
"151 -14 OFFCURVE",
"234 -14 CURVE SMOOTH",
"361 -14 OFFCURVE",
"458 66 OFFCURVE",
"458 193 CURVE SMOOTH",
"458 203 LINE SMOOTH",
"458 267 OFFCURVE",
"429 322 OFFCURVE",
"389 359 CURVE SMOOTH",
"348 395 OFFCURVE",
"296 428 OFFCURVE",
"246 457 CURVE SMOOTH",
"196 485 OFFCURVE",
"108 531 OFFCURVE",
"108 615 CURVE SMOOTH",
"108 620 LINE SMOOTH",
"108 691 OFFCURVE",
"161 734 OFFCURVE",
"226 734 CURVE SMOOTH",
"291 734 OFFCURVE",
"346 700 OFFCURVE",
"377 644 CURVE",
"377 695 LINE"
);
}
);
width = 498;
}
);
note = S;
unicode = 0053;
},
{
glyphname = T;
lastChange = "2016-07-05 19:32:38 +0000";
layers = (
{
layerId = "6418A72B-B7AF-4A99-B2A7-67092BA5BFD7";
paths = (
{
closed = 1;
nodes = (
"20 721 LINE",
"193 721 LINE",
"193 0 LINE",
"226 0 LINE",
"226 721 LINE",
"397 721 LINE",
"397 750 LINE",
"20 750 LINE"
);
}
);
width = 417;
}
);
note = T;
unicode = 0054;
},
{
glyphname = U;
lastChange = "2016-07-05 19:32:38 +0000";
layers = (
{
layerId = "6418A72B-B7AF-4A99-B2A7-67092BA5BFD7";
paths = (
{
closed = 1;
nodes = (
"425 -14 OFFCURVE",
"522 82 OFFCURVE",
"522 213 CURVE SMOOTH",
"522 750 LINE",
"489 750 LINE",
"489 212 LINE SMOOTH",
"489 97 OFFCURVE",
"407 15 OFFCURVE",
"299 15 CURVE SMOOTH",
"191 15 OFFCURVE",
"108 99 OFFCURVE",
"108 212 CURVE SMOOTH",
"108 750 LINE",
"75 750 LINE",
"75 211 LINE SMOOTH",
"75 82 OFFCURVE",
"171 -14 OFFCURVE",
"294 -14 CURVE SMOOTH",
"304 -14 LINE SMOOTH"
);
}
);
width = 597;
}
);
note = U;
unicode = 0055;
},
{
glyphname = V;
lastChange = "2016-07-05 19:32:38 +0000";
layers = (
{
layerId = "6418A72B-B7AF-4A99-B2A7-67092BA5BFD7";
paths = (
{
closed = 1;
nodes = (
"734 750 LINE",
"396 55 LINE",
"56 750 LINE",
"20 750 LINE",
"393 -17 LINE",
"766 750 LINE"
);
}
);
width = 786;
}
);
note = V;
unicode = 0056;
},
{
glyphname = W;
lastChange = "2016-07-05 19:32:38 +0000";
layers = (
{
layerId = "6418A72B-B7AF-4A99-B2A7-67092BA5BFD7";
paths = (
{
closed = 1;
nodes = (
"667 -13 LINE",
"1000 750 LINE",
"973 750 LINE",
"670 60 LINE",
"528 389 LINE",
"684 750 LINE",
"656 750 LINE",
"513 421 LINE",
"374 750 LINE",
"338 750 LINE",
"493 388 LINE",
"354 63 LINE",
"57 750 LINE",
"20 750 LINE",
"349 -13 LINE",
"508 353 LINE"
);
}
);
width = 1023;
}
);
note = W;
unicode = 0057;
},
{
glyphname = X;
lastChange = "2016-07-07 22:04:29 +0000";
layers = (
{
anchors = (
{
name = bottom;
position = "{242, 0}";
},
{
name = bottomright;
position = "{442, 0}";
},
{
name = top;
position = "{242, 750}";
}
);
layerId = "6418A72B-B7AF-4A99-B2A7-67092BA5BFD7";
paths = (
{
closed = 1;
nodes = (
"242 453 LINE",
"96 750 LINE",
"58 750 LINE",
"223 419 LINE",
"20 0 LINE",
"51 0 LINE",
"239 385 LINE",
"426 0 LINE",
"463 0 LINE",
"258 420 LINE",
"419 750 LINE",
"387 750 LINE"
);
}
);
width = 483;
}
);
note = X;
unicode = 0058;
},
{
glyphname = Y;
lastChange = "2016-07-05 19:32:38 +0000";
layers = (
{
layerId = "6418A72B-B7AF-4A99-B2A7-67092BA5BFD7";
paths = (
{
closed = 1;
nodes = (
"504 750 LINE",
"474 750 LINE",
"267 335 LINE",
"56 750 LINE",
"20 750 LINE",
"248 300 LINE",
"248 0 LINE",
"281 0 LINE",
"281 300 LINE"
);
}
);
width = 524;
}
);
note = Y;
unicode = 0059;
},
{
glyphname = Z;
lastChange = "2016-07-05 19:32:38 +0000";
layers = (
{
layerId = "6418A72B-B7AF-4A99-B2A7-67092BA5BFD7";
paths = (
{
closed = 1;
nodes = (
"405 750 LINE",
"25 750 LINE",
"25 721 LINE",
"355 721 LINE",
"25 0 LINE",
"402 0 LINE",
"402 29 LINE",
"74 29 LINE"
);
}
);
width = 427;
}
);
note = Z;
unicode = 005A;
},
{
glyphname = bracketleft;
lastChange = "2016-07-05 19:32:38 +0000";
layers = (
{
layerId = "6418A72B-B7AF-4A99-B2A7-67092BA5BFD7";
paths = (
{
closed = 1;
nodes = (
"200 816 LINE",
"72 816 LINE",
"72 -83 LINE",
"200 -83 LINE",
"200 -54 LINE",
"105 -54 LINE",
"105 787 LINE",
"200 787 LINE"
);
}
);
width = 215;
}
);
note = bracketleft;
unicode = 005B;
},
{
glyphname = backslash;
lastChange = "2016-07-05 19:32:38 +0000";
layers = (
{
layerId = "6418A72B-B7AF-4A99-B2A7-67092BA5BFD7";
paths = (
{
closed = 1;
nodes = (
"621 0 LINE",
"63 748 LINE",
"25 748 LINE",
"583 0 LINE"
);
}
);
width = 646;
}
);
note = backslash;
unicode = 005C;
},
{
glyphname = bracketright;
lastChange = "2016-07-05 19:32:38 +0000";
layers = (
{
layerId = "6418A72B-B7AF-4A99-B2A7-67092BA5BFD7";
paths = (
{
closed = 1;
nodes = (
"15 -83 LINE",
"145 -83 LINE",
"145 816 LINE",
"15 816 LINE",
"15 787 LINE",
"112 787 LINE",
"112 -54 LINE",
"15 -54 LINE"
);
}
);
width = 215;
}
);
note = bracketright;
unicode = 005D;
},
{
glyphname = asciicircum;
lastChange = "2016-07-05 19:32:38 +0000";
layers = (
{
layerId = "6418A72B-B7AF-4A99-B2A7-67092BA5BFD7";
paths = (
{
closed = 1;
nodes = (
"15 540 LINE",
"57 540 LINE",
"166 648 LINE",
"274 540 LINE",
"315 540 LINE",
"177 679 LINE",
"155 679 LINE"
);
}
);
width = 330;
}
);
note = asciicircum;
unicode = 005E;
},
{
glyphname = underscore;
lastChange = "2016-07-05 19:32:38 +0000";
layers = (
{
layerId = "6418A72B-B7AF-4A99-B2A7-67092BA5BFD7";
paths = (
{
closed = 1;
nodes = (
"25 31 LINE",
"25 0 LINE",
"333 0 LINE",
"333 31 LINE"
);
}
);
width = 358;
}
);
note = underscore;
unicode = 005F;
},
{
glyphname = grave;
lastChange = "2016-07-05 19:32:38 +0000";
layers = (
{
layerId = "6418A72B-B7AF-4A99-B2A7-67092BA5BFD7";
paths = (
{
closed = 1;
nodes = (
"196 529 LINE",
"56 644 LINE",
"15 644 LINE",
"154 529 LINE"
);
}
);
width = 211;
}
);
note = grave;
unicode = 0060;
},
{
glyphname = a;
lastChange = "2016-07-05 19:32:38 +0000";
layers = (
{
layerId = "6418A72B-B7AF-4A99-B2A7-67092BA5BFD7";
paths = (
{
closed = 1;
nodes = (
"477 337 LINE",
"446 412 OFFCURVE",
"358 461 OFFCURVE",
"273 461 CURVE SMOOTH",
"142 461 OFFCURVE",
"35 354 OFFCURVE",
"35 225 CURVE SMOOTH",
"35 96 OFFCURVE",
"142 -11 OFFCURVE",
"273 -11 CURVE SMOOTH",
"358 -11 OFFCURVE",
"440 36 OFFCURVE",
"477 112 CURVE",
"477 0 LINE",
"509 0 LINE",
"509 450 LINE",
"477 450 LINE"
);
},
{
closed = 1;
nodes = (
"67 336 OFFCURVE",
"162 433 OFFCURVE",
"274 433 CURVE SMOOTH",
"386 433 OFFCURVE",
"479 337 OFFCURVE",
"479 225 CURVE SMOOTH",
"479 112 OFFCURVE",
"387 17 OFFCURVE",
"275 17 CURVE SMOOTH",
"162 17 OFFCURVE",
"67 112 OFFCURVE",
"67 224 CURVE SMOOTH"
);
}
);
width = 569;
}
);
note = a;
unicode = 0061;
},
{
glyphname = b;
lastChange = "2016-07-05 19:32:38 +0000";
layers = (
{
layerId = "6418A72B-B7AF-4A99-B2A7-67092BA5BFD7";
paths = (
{
closed = 1;
nodes = (
"92 109 LINE",
"132 36 OFFCURVE",
"216 -11 OFFCURVE",
"296 -11 CURVE SMOOTH",
"428 -11 OFFCURVE",
"534 96 OFFCURVE",
"534 225 CURVE SMOOTH",
"534 354 OFFCURVE",
"428 461 OFFCURVE",
"296 461 CURVE SMOOTH",
"213 461 OFFCURVE",
"128 413 OFFCURVE",
"92 340 CURVE",
"92 750 LINE",
"60 750 LINE",
"60 0 LINE",
"92 0 LINE"
);
},
{
closed = 1;
nodes = (
"90 336 OFFCURVE",
"185 433 OFFCURVE",
"297 433 CURVE SMOOTH",
"409 433 OFFCURVE",
"502 337 OFFCURVE",
"502 225 CURVE SMOOTH",
"502 112 OFFCURVE",
"410 17 OFFCURVE",
"298 17 CURVE SMOOTH",
"185 17 OFFCURVE",
"90 112 OFFCURVE",
"90 224 CURVE SMOOTH"
);
}
);
width = 569;
}
);
note = b;
unicode = 0062;
},
{
glyphname = c;
lastChange = "2016-07-05 19:32:38 +0000";
layers = (
{
layerId = "6418A72B-B7AF-4A99-B2A7-67092BA5BFD7";
paths = (
{
closed = 1;
nodes = (
"347 -13 OFFCURVE",
"404 13 OFFCURVE",
"451 64 CURVE",
"451 116 LINE",
"410 53 OFFCURVE",
"342 15 OFFCURVE",
"273 15 CURVE SMOOTH",
"162 15 OFFCURVE",
"67 110 OFFCURVE",
"67 223 CURVE SMOOTH",
"67 336 OFFCURVE",
"162 431 OFFCURVE",
"273 431 CURVE SMOOTH",
"342 431 OFFCURVE",
"410 392 OFFCURVE",
"451 331 CURVE",
"451 382 LINE",
"403 433 OFFCURVE",
"345 459 OFFCURVE",
"277 459 CURVE SMOOTH",
"141 459 OFFCURVE",
"35 352 OFFCURVE",
"35 225 CURVE SMOOTH",
"35 97 OFFCURVE",
"141 -13 OFFCURVE",
"269 -13 CURVE SMOOTH",
"278 -13 LINE SMOOTH"
);
}
);
width = 476;
}
);
note = c;
unicode = 0063;
},
{
glyphname = d;
lastChange = "2016-07-05 19:32:38 +0000";
layers = (
{
layerId = "6418A72B-B7AF-4A99-B2A7-67092BA5BFD7";
paths = (
{
closed = 1;
nodes = (
"477 340 LINE",
"441 413 OFFCURVE",
"356 461 OFFCURVE",
"273 461 CURVE SMOOTH",
"141 461 OFFCURVE",
"35 354 OFFCURVE",
"35 225 CURVE SMOOTH",
"35 96 OFFCURVE",
"141 -11 OFFCURVE",
"273 -11 CURVE SMOOTH",
"353 -11 OFFCURVE",
"437 36 OFFCURVE",
"477 109 CURVE",
"477 0 LINE",
"509 0 LINE",
"509 750 LINE",
"477 750 LINE"
);
},
{
closed = 1;
nodes = (
"67 337 OFFCURVE",
"160 433 OFFCURVE",
"272 433 CURVE SMOOTH",
"384 433 OFFCURVE",
"479 336 OFFCURVE",
"479 224 CURVE SMOOTH",
"479 112 OFFCURVE",
"384 17 OFFCURVE",
"272 17 CURVE SMOOTH",
"159 17 OFFCURVE",
"67 112 OFFCURVE",
"67 225 CURVE SMOOTH"
);
}
);
width = 569;
}
);
note = d;
unicode = 0064;
},
{
glyphname = e;
lastChange = "2016-07-05 19:32:38 +0000";
layers = (
{
layerId = "6418A72B-B7AF-4A99-B2A7-67092BA5BFD7";
paths = (
{
closed = 1;
nodes = (
"352 -12 OFFCURVE",
"410 14 OFFCURVE",
"457 66 CURVE",
"457 117 LINE",
"416 56 OFFCURVE",
"351 16 OFFCURVE",
"271 16 CURVE SMOOTH",
"231 16 OFFCURVE",
"189 33 OFFCURVE",
"146 68 CURVE",
"460 378 LINE",
"411 433 OFFCURVE",
"352 460 OFFCURVE",
"283 460 CURVE SMOOTH",
"146 460 OFFCURVE",
"40 353 OFFCURVE",
"40 226 CURVE SMOOTH",
"40 99 OFFCURVE",
"149 -12 OFFCURVE",
"276 -12 CURVE SMOOTH",
"285 -12 LINE SMOOTH"
);
},
{
closed = 1;
nodes = (
"328 432 OFFCURVE",
"375 414 OFFCURVE",
"416 378 CURVE",
"125 89 LINE",
"90 129 OFFCURVE",
"72 176 OFFCURVE",
"72 229 CURVE SMOOTH",
"72 336 OFFCURVE",
"169 432 OFFCURVE",
"275 432 CURVE SMOOTH"
);
}
);
width = 495;
}
);
note = e;
unicode = 0065;
},
{
glyphname = f;
lastChange = "2016-07-05 19:32:38 +0000";
layers = (
{
layerId = "6418A72B-B7AF-4A99-B2A7-67092BA5BFD7";
paths = (
{
closed = 1;
nodes = (
"136 632 OFFCURVE",
"60 562 OFFCURVE",
"60 463 CURVE SMOOTH",
"60 0 LINE",
"92 0 LINE",
"92 172 LINE",
"232 172 LINE",
"232 200 LINE",
"92 200 LINE",
"92 463 LINE SMOOTH",
"92 544 OFFCURVE",
"154 604 OFFCURVE",
"231 604 CURVE",
"231 632 LINE"
);
}
);
width = 252;
}
);
note = f;
unicode = 0066;
},
{
glyphname = g;
lastChange = "2016-07-05 19:32:38 +0000";
layers = (
{
layerId = "6418A72B-B7AF-4A99-B2A7-67092BA5BFD7";
paths = (
{
closed = 1;
nodes = (
"442 414 OFFCURVE",
"360 460 OFFCURVE",
"273 460 CURVE SMOOTH",
"142 460 OFFCURVE",
"35 353 OFFCURVE",
"35 224 CURVE SMOOTH",
"35 95 OFFCURVE",
"142 -12 OFFCURVE",
"273 -12 CURVE SMOOTH",
"356 -12 OFFCURVE",
"442 36 OFFCURVE",
"478 109 CURVE",
"478 42 LINE SMOOTH",
"478 -95 OFFCURVE",
"395 -180 OFFCURVE",
"278 -180 CURVE SMOOTH",
"201 -180 OFFCURVE",
"118 -132 OFFCURVE",
"83 -68 CURVE",
"83 -114 LINE",
"123 -170 OFFCURVE",
"202 -208 OFFCURVE",
"278 -208 CURVE SMOOTH",
"417 -208 OFFCURVE",
"510 -113 OFFCURVE",
"510 42 CURVE SMOOTH",
"510 450 LINE",
"478 450 LINE",
"478 338 LINE"
);
},
{
closed = 1;
nodes = (
"67 337 OFFCURVE",
"162 432 OFFCURVE",
"275 432 CURVE SMOOTH",
"387 432 OFFCURVE",
"479 337 OFFCURVE",
"479 224 CURVE SMOOTH",
"479 111 OFFCURVE",
"387 16 OFFCURVE",
"275 16 CURVE SMOOTH",
"162 16 OFFCURVE",
"67 111 OFFCURVE",
"67 224 CURVE SMOOTH"
);
}
);
width = 570;
}
);
note = g;
unicode = 0067;
},
{
glyphname = h;
lastChange = "2016-07-05 19:32:38 +0000";
layers = (
{
layerId = "6418A72B-B7AF-4A99-B2A7-67092BA5BFD7";
paths = (
{
closed = 1;
nodes = (
"92 354 OFFCURVE",
"173 433 OFFCURVE",
"265 433 CURVE SMOOTH",
"357 433 OFFCURVE",
"432 355 OFFCURVE",
"432 262 CURVE SMOOTH",
"432 0 LINE",
"464 0 LINE",
"464 262 LINE SMOOTH",
"464 373 OFFCURVE",
"377 461 OFFCURVE",
"265 461 CURVE SMOOTH",
"183 461 OFFCURVE",
"125 428 OFFCURVE",
"92 363 CURVE",
"92 749 LINE",
"60 749 LINE",
"60 0 LINE",
"92 0 LINE",
"92 262 LINE SMOOTH"
);
}
);
width = 514;
}
);
note = h;
unicode = 0068;
},
{
glyphname = i;
lastChange = "2016-07-05 19:32:38 +0000";
layers = (
{
layerId = "6418A72B-B7AF-4A99-B2A7-67092BA5BFD7";
paths = (
{
closed = 1;
nodes = (
"73 0 LINE",
"105 0 LINE",
"105 449 LINE",
"73 449 LINE"
);
},
{
closed = 1;
nodes = (
"108 559 OFFCURVE",
"118 568 OFFCURVE",
"118 586 CURVE SMOOTH",
"118 604 OFFCURVE",
"108 613 OFFCURVE",
"89 613 CURVE SMOOTH",
"70 613 OFFCURVE",
"60 604 OFFCURVE",
"60 586 CURVE SMOOTH",
"60 568 OFFCURVE",
"70 559 OFFCURVE",
"89 559 CURVE SMOOTH"
);
}
);
width = 178;
}
);
note = i;
unicode = 0069;
},
{
glyphname = j;
lastChange = "2016-07-05 19:32:38 +0000";
layers = (
{
layerId = "6418A72B-B7AF-4A99-B2A7-67092BA5BFD7";
paths = (
{
closed = 1;
nodes = (
"91 -198 OFFCURVE",
"168 -128 OFFCURVE",
"168 -29 CURVE SMOOTH",
"168 450 LINE",
"136 450 LINE",
"136 -29 LINE SMOOTH",
"136 -110 OFFCURVE",
"74 -170 OFFCURVE",
"-5 -170 CURVE",
"-5 -198 LINE"
);
},
{
closed = 1;
nodes = (
"172 559 OFFCURVE",
"182 568 OFFCURVE",
"182 586 CURVE SMOOTH",
"182 604 OFFCURVE",
"172 613 OFFCURVE",
"153 613 CURVE SMOOTH",
"134 613 OFFCURVE",
"124 604 OFFCURVE",
"124 586 CURVE SMOOTH",
"124 568 OFFCURVE",
"134 559 OFFCURVE",
"153 559 CURVE SMOOTH"
);
}
);
width = 242;
}
);
note = j;
unicode = 006A;
},
{
glyphname = k;
lastChange = "2016-07-05 19:32:38 +0000";
layers = (
{
layerId = "6418A72B-B7AF-4A99-B2A7-67092BA5BFD7";
paths = (
{
closed = 1;
nodes = (
"92 0 LINE",
"92 237 LINE",
"320 0 LINE",
"363 0 LINE",
"105 270 LINE",
"311 450 LINE",
"270 450 LINE",
"92 294 LINE",
"92 748 LINE",
"60 748 LINE",
"60 0 LINE"
);
}
);
width = 388;
}
);
note = k;
unicode = 006B;
},
{
glyphname = l;
lastChange = "2016-07-05 19:32:38 +0000";
layers = (
{
layerId = "6418A72B-B7AF-4A99-B2A7-67092BA5BFD7";
paths = (
{
closed = 1;
nodes = (
"154 19 OFFCURVE",
"92 79 OFFCURVE",
"92 160 CURVE SMOOTH",
"92 750 LINE",
"60 750 LINE",
"60 160 LINE SMOOTH",
"60 61 OFFCURVE",
"136 -9 OFFCURVE",
"231 -9 CURVE",
"231 19 LINE"
);
}
);
width = 251;
}
);
note = l;
unicode = 006C;
},
{
glyphname = m;
lastChange = "2016-07-05 19:32:38 +0000";
layers = (
{
layerId = "6418A72B-B7AF-4A99-B2A7-67092BA5BFD7";
paths = (
{
closed = 1;
nodes = (
"348 418 OFFCURVE",
"290 461 OFFCURVE",
"234 461 CURVE SMOOTH",
"177 461 OFFCURVE",
"119 427 OFFCURVE",
"92 387 CURVE",
"92 450 LINE",
"60 450 LINE",
"60 0 LINE",
"92 0 LINE",
"92 300 LINE SMOOTH",
"92 371 OFFCURVE",
"154 433 OFFCURVE",
"226 433 CURVE SMOOTH",
"298 433 OFFCURVE",
"356 372 OFFCURVE",
"356 300 CURVE SMOOTH",
"356 0 LINE",
"388 0 LINE",
"388 300 LINE SMOOTH",
"388 371 OFFCURVE",
"453 433 OFFCURVE",
"525 433 CURVE SMOOTH",
"596 433 OFFCURVE",
"654 375 OFFCURVE",
"654 298 CURVE SMOOTH",
"654 0 LINE",
"686 0 LINE",
"686 298 LINE SMOOTH",
"686 398 OFFCURVE",
"614 461 OFFCURVE",
"533 461 CURVE SMOOTH",
"452 461 OFFCURVE",
"392 419 OFFCURVE",
"372 355 CURVE"
);
}
);
width = 746;
}
);
note = m;
unicode = 006D;
},
{
glyphname = n;
lastChange = "2016-07-05 19:32:38 +0000";
layers = (
{
layerId = "6418A72B-B7AF-4A99-B2A7-67092BA5BFD7";
paths = (
{
closed = 1;
nodes = (
"92 354 OFFCURVE",
"174 433 OFFCURVE",
"266 433 CURVE SMOOTH",
"358 433 OFFCURVE",
"432 354 OFFCURVE",
"432 262 CURVE SMOOTH",
"432 0 LINE",
"464 0 LINE",
"464 262 LINE SMOOTH",
"464 373 OFFCURVE",
"378 461 OFFCURVE",
"266 461 CURVE SMOOTH",
"184 461 OFFCURVE",
"126 427 OFFCURVE",
"92 359 CURVE",
"92 450 LINE",
"60 450 LINE",
"60 0 LINE",
"92 0 LINE",
"92 262 LINE SMOOTH"
);
}
);
width = 524;
}
);
note = n;
unicode = 006E;
},
{
glyphname = o;
lastChange = "2016-07-05 19:32:38 +0000";
layers = (
{
layerId = "6418A72B-B7AF-4A99-B2A7-67092BA5BFD7";
paths = (
{
closed = 1;
nodes = (
"407 -11 OFFCURVE",
"511 99 OFFCURVE",
"511 227 CURVE SMOOTH",
"511 354 OFFCURVE",
"405 461 OFFCURVE",
"274 461 CURVE SMOOTH",
"142 461 OFFCURVE",
"35 354 OFFCURVE",
"35 227 CURVE SMOOTH",
"35 100 OFFCURVE",
"141 -11 OFFCURVE",
"269 -11 CURVE SMOOTH",
"278 -11 LINE SMOOTH"
);
},
{
closed = 1;
nodes = (
"479 112 OFFCURVE",
"387 17 OFFCURVE",
"275 17 CURVE SMOOTH",
"162 17 OFFCURVE",
"67 112 OFFCURVE",
"67 224 CURVE SMOOTH",
"67 336 OFFCURVE",
"162 433 OFFCURVE",
"274 433 CURVE SMOOTH",
"386 433 OFFCURVE",
"479 337 OFFCURVE",
"479 225 CURVE SMOOTH"
);
}
);
width = 546;
}
);
note = o;
unicode = 006F;
},
{
glyphname = p;
lastChange = "2016-07-05 19:32:38 +0000";
layers = (
{
layerId = "6418A72B-B7AF-4A99-B2A7-67092BA5BFD7";
paths = (
{
closed = 1;
nodes = (
"92 109 LINE",
"132 36 OFFCURVE",
"216 -11 OFFCURVE",
"296 -11 CURVE SMOOTH",
"428 -11 OFFCURVE",
"534 96 OFFCURVE",
"534 225 CURVE SMOOTH",
"534 354 OFFCURVE",
"428 461 OFFCURVE",
"296 461 CURVE SMOOTH",
"213 461 OFFCURVE",
"128 413 OFFCURVE",
"92 340 CURVE",
"92 450 LINE",
"60 450 LINE",
"60 -200 LINE",
"92 -200 LINE"
);
},
{
closed = 1;
nodes = (
"90 336 OFFCURVE",
"185 433 OFFCURVE",
"297 433 CURVE SMOOTH",
"409 433 OFFCURVE",
"502 337 OFFCURVE",
"502 225 CURVE SMOOTH",
"502 112 OFFCURVE",
"410 17 OFFCURVE",
"298 17 CURVE SMOOTH",
"185 17 OFFCURVE",
"90 112 OFFCURVE",
"90 224 CURVE SMOOTH"
);
}
);
width = 569;
}
);
note = p;
unicode = 0070;
},
{
glyphname = q;
lastChange = "2016-07-05 19:32:38 +0000";
layers = (
{
layerId = "6418A72B-B7AF-4A99-B2A7-67092BA5BFD7";
paths = (
{
closed = 1;
nodes = (
"477 337 LINE",
"446 412 OFFCURVE",
"358 461 OFFCURVE",
"273 461 CURVE SMOOTH",
"142 461 OFFCURVE",
"35 354 OFFCURVE",
"35 225 CURVE SMOOTH",
"35 96 OFFCURVE",
"142 -11 OFFCURVE",
"273 -11 CURVE SMOOTH",
"358 -11 OFFCURVE",
"440 36 OFFCURVE",
"477 112 CURVE",
"477 -200 LINE",
"509 -200 LINE",
"509 450 LINE",
"477 450 LINE"
);
},
{
closed = 1;
nodes = (
"67 336 OFFCURVE",
"162 433 OFFCURVE",
"274 433 CURVE SMOOTH",
"386 433 OFFCURVE",
"479 337 OFFCURVE",
"479 225 CURVE SMOOTH",
"479 112 OFFCURVE",
"387 17 OFFCURVE",
"275 17 CURVE SMOOTH",
"162 17 OFFCURVE",
"67 112 OFFCURVE",
"67 224 CURVE SMOOTH"
);
}
);
width = 569;
}
);
note = q;
unicode = 0071;
},
{
glyphname = r;
lastChange = "2016-07-05 19:32:38 +0000";
layers = (
{
layerId = "6418A72B-B7AF-4A99-B2A7-67092BA5BFD7";
paths = (
{
closed = 1;
nodes = (
"294 450 OFFCURVE",
"264 461 OFFCURVE",
"233 461 CURVE SMOOTH",
"170 461 OFFCURVE",
"116 428 OFFCURVE",
"92 383 CURVE",
"92 450 LINE",
"60 450 LINE",
"60 0 LINE",
"92 0 LINE",
"92 300 LINE SMOOTH",
"92 371 OFFCURVE",
"155 433 OFFCURVE",
"226 433 CURVE SMOOTH",
"261 433 OFFCURVE",
"294 418 OFFCURVE",
"323 389 CURVE",
"323 429 LINE"
);
}
);
width = 348;
}
);
note = r;
unicode = 0072;
},
{
glyphname = s;
lastChange = "2016-07-05 19:32:38 +0000";
layers = (
{
layerId = "6418A72B-B7AF-4A99-B2A7-67092BA5BFD7";
paths = (
{
closed = 1;
nodes = (
"191 434 OFFCURVE",
"218 418 OFFCURVE",
"239 386 CURVE",
"239 427 LINE",
"218 450 OFFCURVE",
"192 462 OFFCURVE",
"162 462 CURVE SMOOTH",
"102 462 OFFCURVE",
"60 425 OFFCURVE",
"60 378 CURVE SMOOTH",
"60 330 OFFCURVE",
"95 295 OFFCURVE",
"137 271 CURVE",
"158 258 OFFCURVE",
"179 246 OFFCURVE",
"200 233 CURVE SMOOTH",
"243 208 OFFCURVE",
"277 173 OFFCURVE",
"277 121 CURVE SMOOTH",
"277 68 OFFCURVE",
"223 17 OFFCURVE",
"154 17 CURVE SMOOTH",
"98 17 OFFCURVE",
"57 45 OFFCURVE",
"32 101 CURVE",
"32 53 LINE",
"53 14 OFFCURVE",
"104 -11 OFFCURVE",
"157 -11 CURVE SMOOTH",
"241 -11 OFFCURVE",
"309 52 OFFCURVE",
"309 131 CURVE SMOOTH",
"309 158 OFFCURVE",
"302 181 OFFCURVE",
"287 202 CURVE SMOOTH",
"257 243 OFFCURVE",
"211 267 OFFCURVE",
"169 291 CURVE SMOOTH",
"127 314 OFFCURVE",
"92 342 OFFCURVE",
"92 375 CURVE SMOOTH",
"92 408 OFFCURVE",
"123 434 OFFCURVE",
"158 434 CURVE SMOOTH"
);
}
);
width = 344;
}
);
note = s;
unicode = 0073;
},
{
glyphname = t;
lastChange = "2016-07-07 19:12:51 +0000";
layers = (
{
layerId = "6418A72B-B7AF-4A99-B2A7-67092BA5BFD7";
paths = (
{
closed = 1;
nodes = (
"144 22 OFFCURVE",
"82 82 OFFCURVE",
"82 163 CURVE SMOOTH",
"82 422 LINE",
"220 422 LINE",
"220 450 LINE",
"82 450 LINE",
"82 631 LINE",
"50 631 LINE",
"50 163 LINE SMOOTH",
"50 64 OFFCURVE",
"126 -6 OFFCURVE",
"221 -6 CURVE",
"221 22 LINE"
);
}
);
width = 241;
}
);
note = t;
unicode = 0074;
},
{
glyphname = u;
lastChange = "2016-07-05 19:32:38 +0000";
layers = (
{
layerId = "6418A72B-B7AF-4A99-B2A7-67092BA5BFD7";
paths = (
{
closed = 1;
nodes = (
"422 96 OFFCURVE",
"340 17 OFFCURVE",
"248 17 CURVE SMOOTH",
"156 17 OFFCURVE",
"82 96 OFFCURVE",
"82 188 CURVE SMOOTH",
"82 450 LINE",
"50 450 LINE",
"50 188 LINE SMOOTH",
"50 77 OFFCURVE",
"136 -11 OFFCURVE",
"248 -11 CURVE SMOOTH",
"330 -11 OFFCURVE",
"388 23 OFFCURVE",
"422 91 CURVE",
"422 0 LINE",
"454 0 LINE",
"454 450 LINE",
"422 450 LINE",
"422 188 LINE SMOOTH"
);
}
);
width = 504;
}
);
note = u;
unicode = 0075;
},
{
glyphname = v;
lastChange = "2016-07-07 22:05:18 +0000";
layers = (
{
layerId = "6418A72B-B7AF-4A99-B2A7-67092BA5BFD7";
paths = (
{
closed = 1;
nodes = (
"60 450 LINE",
"25 450 LINE",
"247 -13 LINE",
"468 450 LINE",
"433 450 LINE",
"235 34 LINE",
"260 34 LINE"
);
}
);
width = 493;
}
);
note = v;
unicode = 0076;
},
{
glyphname = w;
lastChange = "2016-07-05 19:32:38 +0000";
layers = (
{
layerId = "6418A72B-B7AF-4A99-B2A7-67092BA5BFD7";
paths = (
{
closed = 1;
nodes = (
"344 208 LINE",
"446 -11 LINE",
"659 449 LINE",
"630 449 LINE",
"447 55 LINE",
"361 240 LINE",
"459 450 LINE",
"429 450 LINE",
"346 271 LINE",
"265 448 LINE",
"233 448 LINE",
"330 240 LINE",
"243 57 LINE",
"58 450 LINE",
"25 450 LINE",
"241 -11 LINE"
);
}
);
width = 684;
}
);
note = w;
unicode = 0077;
},
{
glyphname = x;
lastChange = "2016-07-05 19:32:38 +0000";
layers = (
{
layerId = "6418A72B-B7AF-4A99-B2A7-67092BA5BFD7";
paths = (
{
closed = 1;
nodes = (
"316 450 LINE",
"216 298 LINE",
"116 450 LINE",
"79 450 LINE",
"198 270 LINE",
"21 0 LINE",
"53 0 LINE",
"214 245 LINE",
"376 0 LINE",
"413 0 LINE",
"232 273 LINE",
"348 450 LINE"
);
}
);
width = 433;
}
);
note = x;
unicode = 0078;
},
{
glyphname = y;
lastChange = "2016-07-05 19:32:38 +0000";
layers = (
{
layerId = "6418A72B-B7AF-4A99-B2A7-67092BA5BFD7";
paths = (
{
closed = 1;
nodes = (
"422 96 OFFCURVE",
"344 17 OFFCURVE",
"252 17 CURVE SMOOTH",
"160 17 OFFCURVE",
"82 96 OFFCURVE",
"82 188 CURVE SMOOTH",
"82 450 LINE",
"50 450 LINE",
"50 188 LINE SMOOTH",
"50 79 OFFCURVE",
"140 -11 OFFCURVE",
"251 -11 CURVE SMOOTH",
"332 -11 OFFCURVE",
"389 22 OFFCURVE",
"422 87 CURVE",
"422 11 LINE SMOOTH",
"422 -89 OFFCURVE",
"339 -171 OFFCURVE",
"240 -171 CURVE SMOOTH",
"173 -171 OFFCURVE",
"108 -130 OFFCURVE",
"71 -66 CURVE",
"69 -116 LINE",
"111 -171 OFFCURVE",
"168 -199 OFFCURVE",
"240 -199 CURVE SMOOTH",
"360 -199 OFFCURVE",
"454 -105 OFFCURVE",
"454 14 CURVE SMOOTH",
"454 450 LINE",
"422 450 LINE",
"422 188 LINE SMOOTH"
);
}
);
width = 504;
}
);
note = y;
unicode = 0079;
},
{
glyphname = z;
lastChange = "2016-07-05 19:32:38 +0000";
layers = (
{
layerId = "6418A72B-B7AF-4A99-B2A7-67092BA5BFD7";
paths = (
{
closed = 1;
nodes = (
"338 450 LINE",
"52 450 LINE",
"52 422 LINE",
"281 422 LINE",
"25 0 LINE",
"335 0 LINE",
"335 28 LINE",
"81 28 LINE"
);
}
);
width = 363;
}
);
note = z;
unicode = 007A;
},
{
glyphname = braceleft;
lastChange = "2016-07-05 19:32:38 +0000";
layers = (
{
layerId = "6418A72B-B7AF-4A99-B2A7-67092BA5BFD7";
paths = (
{
closed = 1;
nodes = (
"167 720 OFFCURVE",
"194 766 OFFCURVE",
"237 787 CURVE",
"237 817 LINE",
"177 788 OFFCURVE",
"134 730 OFFCURVE",
"134 667 CURVE SMOOTH",
"134 506 LINE SMOOTH",
"134 447 OFFCURVE",
"90 391 OFFCURVE",
"34 375 CURVE",
"90 359 OFFCURVE",
"134 305 OFFCURVE",
"134 246 CURVE SMOOTH",
"134 77 LINE SMOOTH",
"134 14 OFFCURVE",
"177 -47 OFFCURVE",
"237 -75 CURVE",
"237 -45 LINE",
"194 -21 OFFCURVE",
"167 24 OFFCURVE",
"167 77 CURVE SMOOTH",
"167 246 LINE SMOOTH",
"167 303 OFFCURVE",
"145 346 OFFCURVE",
"100 375 CURVE",
"143 403 OFFCURVE",
"167 454 OFFCURVE",
"167 506 CURVE SMOOTH",
"167 667 LINE SMOOTH"
);
}
);
width = 257;
}
);
note = braceleft;
unicode = 007B;
},
{
glyphname = bar;
lastChange = "2016-07-05 19:32:38 +0000";
layers = (
{
layerId = "6418A72B-B7AF-4A99-B2A7-67092BA5BFD7";
paths = (
{
closed = 1;
nodes = (
"108 748 LINE",
"75 748 LINE",
"75 0 LINE",
"108 0 LINE"
);
}
);
width = 183;
}
);
note = bar;
unicode = 007C;
},
{
glyphname = braceright;
lastChange = "2016-07-05 19:32:38 +0000";
layers = (
{
layerId = "6418A72B-B7AF-4A99-B2A7-67092BA5BFD7";
paths = (
{
closed = 1;
nodes = (
"125 730 OFFCURVE",
"81 788 OFFCURVE",
"20 817 CURVE",
"20 787 LINE",
"64 766 OFFCURVE",
"92 720 OFFCURVE",
"92 667 CURVE SMOOTH",
"92 506 LINE SMOOTH",
"92 454 OFFCURVE",
"117 402 OFFCURVE",
"158 375 CURVE",
"114 346 OFFCURVE",
"92 303 OFFCURVE",
"92 246 CURVE SMOOTH",
"92 77 LINE SMOOTH",
"92 22 OFFCURVE",
"68 -19 OFFCURVE",
"20 -45 CURVE",
"20 -75 LINE",
"80 -48 OFFCURVE",
"125 16 OFFCURVE",
"125 77 CURVE SMOOTH",
"125 246 LINE SMOOTH",
"125 305 OFFCURVE",
"170 359 OFFCURVE",
"223 375 CURVE",
"170 391 OFFCURVE",
"125 449 OFFCURVE",
"125 506 CURVE SMOOTH",
"125 667 LINE SMOOTH"
);
}
);
width = 257;
}
);
note = braceright;
unicode = 007D;
},
{
glyphname = asciitilde;
lastChange = "2016-07-05 19:32:38 +0000";
layers = (
{
layerId = "6418A72B-B7AF-4A99-B2A7-67092BA5BFD7";
paths = (
{
closed = 1;
nodes = (
"431 365 OFFCURVE",
"404 343 OFFCURVE",
"379 343 CURVE SMOOTH",
"354 343 OFFCURVE",
"319 355 OFFCURVE",
"276 379 CURVE SMOOTH",
"232 403 OFFCURVE",
"194 415 OFFCURVE",
"163 415 CURVE",
"130 412 OFFCURVE",
"101 396 OFFCURVE",
"75 367 CURVE",
"75 316 LINE",
"102 360 OFFCURVE",
"131 383 OFFCURVE",
"164 386 CURVE",
"189 386 OFFCURVE",
"225 374 OFFCURVE",
"270 350 CURVE SMOOTH",
"315 326 OFFCURVE",
"351 314 OFFCURVE",
"378 314 CURVE SMOOTH",
"405 314 OFFCURVE",
"431 329 OFFCURVE",
"458 360 CURVE",
"458 408 LINE"
);
}
);
width = 533;
}
);
note = asciitilde;
unicode = 007E;
},
{
glyphname = exclamdown;
lastChange = "2016-07-05 19:32:38 +0000";
layers = (
{
layerId = "6418A72B-B7AF-4A99-B2A7-67092BA5BFD7";
paths = (
{
closed = 1;
nodes = (
"98 650 LINE",
"98 0 LINE",
"131 0 LINE",
"131 650 LINE"
);
},
{
closed = 1;
nodes = (
"135 695 OFFCURVE",
"146 705 OFFCURVE",
"146 726 CURVE SMOOTH",
"146 747 OFFCURVE",
"135 757 OFFCURVE",
"113 757 CURVE SMOOTH",
"91 757 OFFCURVE",
"80 747 OFFCURVE",
"80 726 CURVE SMOOTH",
"80 705 OFFCURVE",
"91 695 OFFCURVE",
"113 695 CURVE SMOOTH"
);
}
);
width = 226;
}
);
note = exclamdown;
unicode = 00A1;
},
{
glyphname = cent;
lastChange = "2016-07-05 19:32:38 +0000";
layers = (
{
layerId = "6418A72B-B7AF-4A99-B2A7-67092BA5BFD7";
paths = (
{
closed = 1;
nodes = (
"320 -9 LINE",
"324 -9 LINE SMOOTH",
"395 -9 OFFCURVE",
"463 17 OFFCURVE",
"506 64 CURVE",
"506 116 LINE",
"465 56 OFFCURVE",
"397 19 OFFCURVE",
"325 19 CURVE SMOOTH",
"320 19 LINE",
"320 428 LINE",
"325 428 LINE SMOOTH",
"396 428 OFFCURVE",
"465 391 OFFCURVE",
"506 331 CURVE",
"506 382 LINE",
"460 431 OFFCURVE",
"400 456 OFFCURVE",
"325 456 CURVE SMOOTH",
"320 456 LINE",
"320 564 LINE",
"286 564 LINE",
"286 456 LINE",
"281 456 LINE SMOOTH",
"136 456 OFFCURVE",
"50 351 OFFCURVE",
"50 225 CURVE SMOOTH",
"50 99 OFFCURVE",
"141 -9 OFFCURVE",
"282 -9 CURVE SMOOTH",
"286 -9 LINE",
"286 -155 LINE",
"320 -155 LINE"
);
},
{
closed = 1;
nodes = (
"281 19 LINE SMOOTH",
"156 19 OFFCURVE",
"85 110 OFFCURVE",
"85 223 CURVE SMOOTH",
"85 336 OFFCURVE",
"156 428 OFFCURVE",
"281 428 CURVE SMOOTH",
"286 428 LINE",
"286 19 LINE"
);
}
);
width = 541;
}
);
note = cent;
unicode = 00A2;
},
{
glyphname = sterling;
lastChange = "2016-07-05 19:32:38 +0000";
layers = (
{
layerId = "6418A72B-B7AF-4A99-B2A7-67092BA5BFD7";
paths = (
{
closed = 1;
nodes = (
"177 656 OFFCURVE",
"234 733 OFFCURVE",
"330 733 CURVE SMOOTH",
"378 733 OFFCURVE",
"428 709 OFFCURVE",
"460 673 CURVE",
"460 708 LINE",
"422 741 OFFCURVE",
"380 758 OFFCURVE",
"335 758 CURVE SMOOTH",
"326 758 LINE SMOOTH",
"218 758 OFFCURVE",
"145 669 OFFCURVE",
"145 548 CURVE SMOOTH",
"145 312 LINE",
"53 312 LINE",
"53 284 LINE",
"145 284 LINE",
"145 101 LINE",
"95 96 OFFCURVE",
"53 62 OFFCURVE",
"20 0 CURVE",
"56 0 LINE",
"83 45 OFFCURVE",
"112 68 OFFCURVE",
"145 71 CURVE",
"178 71 LINE SMOOTH",
"204 71 OFFCURVE",
"240 59 OFFCURVE",
"285 35 CURVE SMOOTH",
"330 10 OFFCURVE",
"365 -2 OFFCURVE",
"392 -2 CURVE SMOOTH",
"431 -2 OFFCURVE",
"470 30 OFFCURVE",
"509 94 CURVE",
"473 94 LINE",
"446 51 OFFCURVE",
"419 29 OFFCURVE",
"394 29 CURVE SMOOTH",
"369 29 OFFCURVE",
"334 41 OFFCURVE",
"291 65 CURVE SMOOTH",
"247 89 OFFCURVE",
"209 101 OFFCURVE",
"178 101 CURVE",
"178 284 LINE",
"379 284 LINE",
"379 312 LINE",
"177 312 LINE",
"177 548 LINE SMOOTH"
);
}
);
width = 529;
}
);
note = sterling;
unicode = 00A3;
},
{
glyphname = currency;
lastChange = "2016-07-05 19:32:38 +0000";
layers = (
{
layerId = "6418A72B-B7AF-4A99-B2A7-67092BA5BFD7";
paths = (
{
closed = 1;
nodes = (
"50 723 LINE",
"135 640 LINE",
"68 561 OFFCURVE",
"35 471 OFFCURVE",
"35 371 CURVE SMOOTH",
"35 271 OFFCURVE",
"69 185 OFFCURVE",
"136 113 CURVE",
"51 27 LINE",
"75 2 LINE",
"161 88 LINE",
"232 21 OFFCURVE",
"317 -12 OFFCURVE",
"418 -12 CURVE SMOOTH",
"519 -12 OFFCURVE",
"608 21 OFFCURVE",
"686 88 CURVE",
"769 5 LINE",
"793 30 LINE",
"708 113 LINE",
"775 188 OFFCURVE",
"808 275 OFFCURVE",
"808 372 CURVE SMOOTH",
"808 469 OFFCURVE",
"774 557 OFFCURVE",
"706 635 CURVE",
"793 722 LINE",
"771 748 LINE",
"682 658 LINE",
"605 727 OFFCURVE",
"517 761 OFFCURVE",
"418 761 CURVE SMOOTH",
"318 761 OFFCURVE",
"232 729 OFFCURVE",
"159 664 CURVE",
"75 749 LINE"
);
},
{
closed = 1;
nodes = (
"743 561 OFFCURVE",
"777 477 OFFCURVE",
"777 377 CURVE SMOOTH",
"777 177 OFFCURVE",
"609 20 OFFCURVE",
"419 20 CURVE SMOOTH",
"229 20 OFFCURVE",
"69 170 OFFCURVE",
"69 371 CURVE SMOOTH",
"69 572 OFFCURVE",
"225 728 OFFCURVE",
"425 728 CURVE SMOOTH",
"525 728 OFFCURVE",
"609 695 OFFCURVE",
"676 628 CURVE SMOOTH"
);
}
);
width = 843;
}
);
note = currency;
unicode = 00A4;
},
{
glyphname = yen;
lastChange = "2016-07-05 19:32:38 +0000";
layers = (
{
layerId = "6418A72B-B7AF-4A99-B2A7-67092BA5BFD7";
paths = (
{
closed = 1;
nodes = (
"286 203 LINE",
"286 302 LINE",
"424 302 LINE",
"424 333 LINE",
"302 333 LINE",
"509 750 LINE",
"478 750 LINE",
"271 335 LINE",
"60 750 LINE",
"25 750 LINE",
"236 333 LINE",
"113 333 LINE",
"113 302 LINE",
"253 302 LINE",
"253 203 LINE",
"113 203 LINE",
"113 174 LINE",
"253 174 LINE",
"253 0 LINE",
"286 0 LINE",
"286 174 LINE",
"424 174 LINE",
"424 203 LINE"
);
}
);
width = 534;
}
);
note = yen;
unicode = 00A5;
},
{
glyphname = brokenbar;
lastChange = "2016-07-05 19:32:38 +0000";
layers = (
{
layerId = "6418A72B-B7AF-4A99-B2A7-67092BA5BFD7";
paths = (
{
closed = 1;
nodes = (
"90 283 LINE",
"90 0 LINE",
"125 0 LINE",
"125 283 LINE"
);
},
{
closed = 1;
nodes = (
"90 750 LINE",
"90 466 LINE",
"125 466 LINE",
"125 750 LINE"
);
}
);
width = 215;
}
);
note = brokenbar;
unicode = 00A6;
},
{
glyphname = section;
lastChange = "2016-07-05 19:32:38 +0000";
layers = (
{
layerId = "6418A72B-B7AF-4A99-B2A7-67092BA5BFD7";
paths = (
{
closed = 1;
nodes = (
"50 354 OFFCURVE",
"53 336 OFFCURVE",
"60 319 CURVE SMOOTH",
"75 285 OFFCURVE",
"110 254 OFFCURVE",
"165 225 CURVE SMOOTH",
"191 211 LINE SMOOTH",
"256 178 OFFCURVE",
"288 143 OFFCURVE",
"288 106 CURVE SMOOTH",
"288 55 OFFCURVE",
"247 21 OFFCURVE",
"195 21 CURVE SMOOTH",
"160 21 OFFCURVE",
"130 42 OFFCURVE",
"105 84 CURVE",
"105 29 LINE",
"130 4 OFFCURVE",
"160 -8 OFFCURVE",
"195 -8 CURVE SMOOTH",
"266 -8 OFFCURVE",
"321 42 OFFCURVE",
"321 101 CURVE SMOOTH",
"321 160 OFFCURVE",
"290 186 OFFCURVE",
"231 222 CURVE",
"312 230 OFFCURVE",
"376 299 OFFCURVE",
"376 369 CURVE SMOOTH",
"376 439 OFFCURVE",
"354 472 OFFCURVE",
"261 525 CURVE SMOOTH",
"233 540 LINE",
"232 541 OFFCURVE",
"227 544 OFFCURVE",
"218 549 CURVE SMOOTH",
"209 554 OFFCURVE",
"203 557 OFFCURVE",
"200 560 CURVE",
"197 562 OFFCURVE",
"191 566 OFFCURVE",
"183 572 CURVE",
"174 577 OFFCURVE",
"168 582 OFFCURVE",
"165 587 CURVE",
"161 591 OFFCURVE",
"155 597 OFFCURVE",
"148 606 CURVE",
"141 614 OFFCURVE",
"137 626 OFFCURVE",
"137 642 CURVE SMOOTH",
"137 691 OFFCURVE",
"174 727 OFFCURVE",
"232 727 CURVE SMOOTH",
"261 727 OFFCURVE",
"288 707 OFFCURVE",
"314 667 CURVE",
"314 720 LINE",
"287 743 OFFCURVE",
"257 755 OFFCURVE",
"225 755 CURVE SMOOTH",
"160 755 OFFCURVE",
"105 703 OFFCURVE",
"105 646 CURVE SMOOTH",
"105 589 OFFCURVE",
"135 562 OFFCURVE",
"194 526 CURVE",
"114 521 OFFCURVE",
"50 455 OFFCURVE",
"50 375 CURVE SMOOTH"
);
},
{
closed = 1;
nodes = (
"328 439 OFFCURVE",
"341 410 OFFCURVE",
"341 376 CURVE SMOOTH",
"341 307 OFFCURVE",
"284 251 OFFCURVE",
"215 251 CURVE SMOOTH",
"146 251 OFFCURVE",
"85 305 OFFCURVE",
"85 374 CURVE SMOOTH",
"85 443 OFFCURVE",
"142 499 OFFCURVE",
"211 499 CURVE SMOOTH",
"246 499 OFFCURVE",
"276 487 OFFCURVE",
"302 463 CURVE SMOOTH"
);
}
);
width = 426;
}
);
note = section;
unicode = 00A7;
},
{
glyphname = dieresis;
lastChange = "2016-07-05 19:32:38 +0000";
layers = (
{
layerId = "6418A72B-B7AF-4A99-B2A7-67092BA5BFD7";
paths = (
{
closed = 1;
nodes = (
"63 558 OFFCURVE",
"73 567 OFFCURVE",
"73 585 CURVE SMOOTH",
"73 603 OFFCURVE",
"63 612 OFFCURVE",
"44 612 CURVE SMOOTH",
"25 612 OFFCURVE",
"15 603 OFFCURVE",
"15 585 CURVE SMOOTH",
"15 567 OFFCURVE",
"25 558 OFFCURVE",
"44 558 CURVE SMOOTH"
);
},
{
closed = 1;
nodes = (
"168 558 OFFCURVE",
"177 567 OFFCURVE",
"177 585 CURVE SMOOTH",
"177 603 OFFCURVE",
"168 612 OFFCURVE",
"150 612 CURVE SMOOTH",
"131 612 OFFCURVE",
"122 603 OFFCURVE",
"122 585 CURVE SMOOTH",
"122 567 OFFCURVE",
"131 558 OFFCURVE",
"150 558 CURVE SMOOTH"
);
}
);
width = 192;
}
);
note = dieresis;
unicode = 00A8;
},
{
glyphname = copyright;
lastChange = "2016-07-05 19:32:38 +0000";
layers = (
{
layerId = "6418A72B-B7AF-4A99-B2A7-67092BA5BFD7";
paths = (
{
closed = 1;
nodes = (
"661 -13 OFFCURVE",
"835 168 OFFCURVE",
"835 378 CURVE SMOOTH",
"835 588 OFFCURVE",
"661 763 OFFCURVE",
"446 763 CURVE SMOOTH",
"231 763 OFFCURVE",
"55 586 OFFCURVE",
"55 378 CURVE SMOOTH",
"55 169 OFFCURVE",
"230 -13 OFFCURVE",
"437 -13 CURVE SMOOTH",
"452 -13 LINE SMOOTH"
);
},
{
closed = 1;
nodes = (
"802 179 OFFCURVE",
"641 16 OFFCURVE",
"445 16 CURVE SMOOTH",
"249 16 OFFCURVE",
"88 179 OFFCURVE",
"88 376 CURVE SMOOTH",
"88 572 OFFCURVE",
"249 734 OFFCURVE",
"446 734 CURVE SMOOTH",
"642 734 OFFCURVE",
"802 572 OFFCURVE",
"802 376 CURVE SMOOTH"
);
},
{
closed = 1;
nodes = (
"520 140 OFFCURVE",
"577 166 OFFCURVE",
"624 217 CURVE",
"624 269 LINE",
"583 206 OFFCURVE",
"515 168 OFFCURVE",
"446 168 CURVE SMOOTH",
"335 168 OFFCURVE",
"240 263 OFFCURVE",
"240 376 CURVE SMOOTH",
"240 489 OFFCURVE",
"335 584 OFFCURVE",
"446 584 CURVE SMOOTH",
"515 584 OFFCURVE",
"583 545 OFFCURVE",
"624 484 CURVE",
"624 535 LINE",
"576 586 OFFCURVE",
"518 612 OFFCURVE",
"450 612 CURVE SMOOTH",
"314 612 OFFCURVE",
"208 505 OFFCURVE",
"208 378 CURVE SMOOTH",
"208 251 OFFCURVE",
"314 140 OFFCURVE",
"438 140 CURVE SMOOTH",
"453 140 LINE SMOOTH"
);
}
);
width = 890;
}
);
note = copyright;
unicode = 00A9;
},
{
glyphname = logicalnot;
lastChange = "2016-07-05 19:32:38 +0000";
layers = (
{
layerId = "6418A72B-B7AF-4A99-B2A7-67092BA5BFD7";
paths = (
{
closed = 1;
nodes = (
"360 313 LINE",
"50 313 LINE",
"50 282 LINE",
"329 282 LINE",
"329 188 LINE",
"360 188 LINE"
);
}
);
width = 410;
}
);
note = logicalnot;
unicode = 00AC;
},
{
glyphname = registered;
lastChange = "2016-07-05 19:32:38 +0000";
layers = (
{
layerId = "6418A72B-B7AF-4A99-B2A7-67092BA5BFD7";
paths = (
{
closed = 1;
nodes = (
"661 -13 OFFCURVE",
"835 168 OFFCURVE",
"835 378 CURVE SMOOTH",
"835 588 OFFCURVE",
"661 763 OFFCURVE",
"446 763 CURVE SMOOTH",
"231 763 OFFCURVE",
"55 586 OFFCURVE",
"55 378 CURVE SMOOTH",
"55 169 OFFCURVE",
"230 -13 OFFCURVE",
"437 -13 CURVE SMOOTH",
"452 -13 LINE SMOOTH"
);
},
{
closed = 1;
nodes = (
"802 179 OFFCURVE",
"641 16 OFFCURVE",
"445 16 CURVE SMOOTH",
"249 16 OFFCURVE",
"88 179 OFFCURVE",
"88 376 CURVE SMOOTH",
"88 572 OFFCURVE",
"249 734 OFFCURVE",
"446 734 CURVE SMOOTH",
"642 734 OFFCURVE",
"802 572 OFFCURVE",
"802 376 CURVE SMOOTH"
);
},
{
closed = 1;
nodes = (
"548 154 LINE",
"589 154 LINE",
"473 312 LINE",
"538 328 OFFCURVE",
"584 385 OFFCURVE",
"584 461 CURVE SMOOTH",
"584 536 OFFCURVE",
"517 604 OFFCURVE",
"436 604 CURVE SMOOTH",
"337 604 LINE",
"337 154 LINE",
"368 154 LINE",
"368 309 LINE",
"438 309 LINE"
);
},
{
closed = 1;
nodes = (
"499 577 OFFCURVE",
"555 520 OFFCURVE",
"555 457 CURVE SMOOTH",
"555 393 OFFCURVE",
"499 336 OFFCURVE",
"438 336 CURVE SMOOTH",
"368 336 LINE",
"368 577 LINE",
"438 577 LINE SMOOTH"
);
}
);
width = 890;
}
);
note = registered;
unicode = 00AE;
},
{
glyphname = macron;
lastChange = "2016-07-05 19:32:38 +0000";
layers = (
{
layerId = "6418A72B-B7AF-4A99-B2A7-67092BA5BFD7";
paths = (
{
closed = 1;
nodes = (
"75 594 LINE",
"75 566 LINE",
"272 566 LINE",
"272 594 LINE"
);
}
);
width = 341;
}
);
note = macron;
unicode = 00AF;
},
{
glyphname = degree;
lastChange = "2016-07-05 19:32:38 +0000";
layers = (
{
layerId = "6418A72B-B7AF-4A99-B2A7-67092BA5BFD7";
paths = (
{
closed = 1;
nodes = (
"137 600 OFFCURVE",
"171 635 OFFCURVE",
"171 676 CURVE SMOOTH",
"171 716 OFFCURVE",
"138 750 OFFCURVE",
"96 750 CURVE SMOOTH",
"54 750 OFFCURVE",
"20 716 OFFCURVE",
"20 676 CURVE SMOOTH",
"20 635 OFFCURVE",
"53 600 OFFCURVE",
"93 600 CURVE SMOOTH",
"97 600 LINE SMOOTH"
);
},
{
closed = 1;
nodes = (
"145 647 OFFCURVE",
"123 624 OFFCURVE",
"96 624 CURVE SMOOTH",
"68 624 OFFCURVE",
"45 648 OFFCURVE",
"45 675 CURVE SMOOTH",
"45 702 OFFCURVE",
"68 726 OFFCURVE",
"96 726 CURVE SMOOTH",
"123 726 OFFCURVE",
"145 703 OFFCURVE",
"145 675 CURVE SMOOTH"
);
}
);
width = 191;
}
);
note = degree;
unicode = 00B0;
},
{
glyphname = plusminus;
lastChange = "2016-07-05 19:32:38 +0000";
layers = (
{
layerId = "6418A72B-B7AF-4A99-B2A7-67092BA5BFD7";
paths = (
{
closed = 1;
nodes = (
"243 253 LINE",
"243 387 LINE",
"381 387 LINE",
"381 418 LINE",
"243 418 LINE",
"243 557 LINE",
"210 557 LINE",
"210 418 LINE",
"70 418 LINE",
"70 387 LINE",
"210 387 LINE",
"210 253 LINE"
);
},
{
closed = 1;
nodes = (
"70 199 LINE",
"70 168 LINE",
"381 168 LINE",
"381 199 LINE"
);
}
);
width = 451;
}
);
note = plusminus;
unicode = 00B1;
},
{
glyphname = acute;
lastChange = "2016-07-05 19:32:38 +0000";
layers = (
{
layerId = "6418A72B-B7AF-4A99-B2A7-67092BA5BFD7";
paths = (
{
closed = 1;
nodes = (
"57 529 LINE",
"196 644 LINE",
"155 644 LINE",
"15 529 LINE"
);
}
);
width = 211;
}
);
note = acute;
unicode = 00B4;
},
{
glyphname = paragraph;
lastChange = "2016-07-05 19:32:38 +0000";
layers = (
{
layerId = "6418A72B-B7AF-4A99-B2A7-67092BA5BFD7";
paths = (
{
closed = 1;
nodes = (
"413 721 LINE",
"413 -200 LINE",
"444 -200 LINE",
"444 721 LINE",
"534 721 LINE",
"534 750 LINE",
"223 750 LINE SMOOTH",
"140 750 OFFCURVE",
"75 683 OFFCURVE",
"75 603 CURVE SMOOTH",
"75 522 OFFCURVE",
"139 455 OFFCURVE",
"220 455 CURVE SMOOTH",
"240 455 LINE",
"240 -200 LINE",
"271 -200 LINE",
"271 721 LINE"
);
}
);
width = 564;
}
);
note = paragraph;
unicode = 00B6;
},
{
glyphname = periodcentered;
lastChange = "2016-07-05 19:32:38 +0000";
layers = (
{
layerId = "6418A72B-B7AF-4A99-B2A7-67092BA5BFD7";
paths = (
{
closed = 1;
nodes = (
"127 261 OFFCURVE",
"137 271 OFFCURVE",
"137 292 CURVE SMOOTH",
"137 313 OFFCURVE",
"127 323 OFFCURVE",
"106 323 CURVE SMOOTH",
"85 323 OFFCURVE",
"75 313 OFFCURVE",
"75 292 CURVE SMOOTH",
"75 271 OFFCURVE",
"85 261 OFFCURVE",
"106 261 CURVE SMOOTH"
);
}
);
width = 212;
}
);
note = periodcentered;
unicode = 00B7;
},
{
glyphname = cedilla;
lastChange = "2016-07-05 19:32:38 +0000";
layers = (
{
layerId = "6418A72B-B7AF-4A99-B2A7-67092BA5BFD7";
paths = (
{
closed = 1;
nodes = (
"81 -75 OFFCURVE",
"103 -97 OFFCURVE",
"103 -125 CURVE SMOOTH",
"103 -153 OFFCURVE",
"81 -175 OFFCURVE",
"50 -175 CURVE SMOOTH",
"15 -175 LINE",
"15 -200 LINE",
"50 -200 LINE SMOOTH",
"94 -200 OFFCURVE",
"127 -167 OFFCURVE",
"127 -127 CURVE SMOOTH",
"127 -123 LINE SMOOTH",
"127 -83 OFFCURVE",
"93 -49 OFFCURVE",
"50 -49 CURVE SMOOTH",
"40 -49 LINE",
"40 9 LINE",
"15 9 LINE",
"15 -75 LINE",
"50 -75 LINE SMOOTH"
);
}
);
width = 142;
}
);
note = cedilla;
unicode = 00B8;
},
{
glyphname = questiondown;
lastChange = "2016-07-05 19:32:38 +0000";
layers = (
{
layerId = "6418A72B-B7AF-4A99-B2A7-67092BA5BFD7";
paths = (
{
closed = 1;
nodes = (
"532 109 OFFCURVE",
"444 22 OFFCURVE",
"315 22 CURVE SMOOTH",
"186 22 OFFCURVE",
"87 117 OFFCURVE",
"87 241 CURVE SMOOTH",
"87 364 OFFCURVE",
"179 465 OFFCURVE",
"312 465 CURVE SMOOTH",
"326 465 LINE",
"326 659 LINE",
"294 659 LINE",
"294 494 LINE",
"228 490 OFFCURVE",
"172 465 OFFCURVE",
"126 420 CURVE",
"79 361 OFFCURVE",
"55 300 OFFCURVE",
"55 236 CURVE SMOOTH",
"55 107 OFFCURVE",
"165 -7 OFFCURVE",
"314 -7 CURVE SMOOTH",
"462 -7 OFFCURVE",
"563 96 OFFCURVE",
"571 244 CURVE",
"537 244 LINE"
);
},
{
closed = 1;
nodes = (
"285 762 OFFCURVE",
"273 752 OFFCURVE",
"273 731 CURVE SMOOTH",
"273 710 OFFCURVE",
"285 700 OFFCURVE",
"308 700 CURVE SMOOTH",
"331 700 OFFCURVE",
"342 710 OFFCURVE",
"342 731 CURVE SMOOTH",
"342 752 OFFCURVE",
"331 762 OFFCURVE",
"308 762 CURVE SMOOTH"
);
}
);
width = 626;
}
);
note = questiondown;
unicode = 00BF;
},
{
glyphname = Agrave;
lastChange = "2016-07-05 19:32:38 +0000";
layers = (
{
layerId = "6418A72B-B7AF-4A99-B2A7-67092BA5BFD7";
paths = (
{
closed = 1;
nodes = (
"61 0 LINE",
"201 286 LINE",
"602 286 LINE",
"744 0 LINE",
"779 0 LINE",
"404 768 LINE",
"30 0 LINE"
);
},
{
closed = 1;
nodes = (
"214 315 LINE",
"401 699 LINE",
"590 315 LINE"
);
},
{
closed = 1;
nodes = (
"495 829 LINE",
"355 944 LINE",
"314 944 LINE",
"453 829 LINE"
);
}
);
width = 809;
}
);
note = Agrave;
unicode = 00C0;
},
{
glyphname = Aacute;
lastChange = "2016-07-05 19:32:38 +0000";
layers = (
{
layerId = "6418A72B-B7AF-4A99-B2A7-67092BA5BFD7";
paths = (
{
closed = 1;
nodes = (
"61 0 LINE",
"201 286 LINE",
"602 286 LINE",
"744 0 LINE",
"779 0 LINE",
"404 768 LINE",
"30 0 LINE"
);
},
{
closed = 1;
nodes = (
"214 315 LINE",
"401 699 LINE",
"590 315 LINE"
);
},
{
closed = 1;
nodes = (
"356 829 LINE",
"495 944 LINE",
"454 944 LINE",
"314 829 LINE"
);
}
);
width = 809;
}
);
note = Aacute;
unicode = 00C1;
},
{
glyphname = Acircumflex;
lastChange = "2016-07-05 19:32:38 +0000";
layers = (
{
layerId = "6418A72B-B7AF-4A99-B2A7-67092BA5BFD7";
paths = (
{
closed = 1;
nodes = (
"61 0 LINE",
"201 286 LINE",
"602 286 LINE",
"744 0 LINE",
"779 0 LINE",
"404 768 LINE",
"30 0 LINE"
);
},
{
closed = 1;
nodes = (
"214 315 LINE",
"401 699 LINE",
"590 315 LINE"
);
},
{
closed = 1;
nodes = (
"257 829 LINE",
"299 829 LINE",
"405 920 LINE",
"512 829 LINE",
"553 829 LINE",
"421 944 LINE",
"391 944 LINE"
);
}
);
width = 809;
}
);
note = Acircumflex;
unicode = 00C2;
},
{
glyphname = Atilde;
lastChange = "2016-07-05 19:32:38 +0000";
layers = (
{
layerId = "6418A72B-B7AF-4A99-B2A7-67092BA5BFD7";
paths = (
{
closed = 1;
nodes = (
"61 0 LINE",
"201 286 LINE",
"602 286 LINE",
"744 0 LINE",
"779 0 LINE",
"404 768 LINE",
"30 0 LINE"
);
},
{
closed = 1;
nodes = (
"214 315 LINE",
"401 699 LINE",
"590 315 LINE"
);
},
{
closed = 1;
nodes = (
"514 847 OFFCURVE",
"544 873 OFFCURVE",
"575 924 CURVE",
"544 924 LINE",
"523 891 OFFCURVE",
"504 875 OFFCURVE",
"486 875 CURVE SMOOTH",
"467 875 OFFCURVE",
"443 884 OFFCURVE",
"413 902 CURVE SMOOTH",
"383 919 OFFCURVE",
"358 928 OFFCURVE",
"338 928 CURVE SMOOTH",
"329 928 LINE SMOOTH",
"292 928 OFFCURVE",
"260 901 OFFCURVE",
"234 848 CURVE",
"265 848 LINE",
"308 919 OFFCURVE",
"341 911 OFFCURVE",
"407 875 CURVE SMOOTH",
"440 856 OFFCURVE",
"466 847 OFFCURVE",
"485 847 CURVE SMOOTH"
);
}
);
width = 809;
}
);
note = Atilde;
unicode = 00C3;
},
{
glyphname = Adieresis;
lastChange = "2016-07-05 19:32:38 +0000";
layers = (
{
layerId = "6418A72B-B7AF-4A99-B2A7-67092BA5BFD7";
paths = (
{
closed = 1;
nodes = (
"61 0 LINE",
"201 286 LINE",
"602 286 LINE",
"744 0 LINE",
"779 0 LINE",
"404 768 LINE",
"30 0 LINE"
);
},
{
closed = 1;
nodes = (
"214 315 LINE",
"401 699 LINE",
"590 315 LINE"
);
},
{
closed = 1;
nodes = (
"371 858 OFFCURVE",
"381 867 OFFCURVE",
"381 885 CURVE SMOOTH",
"381 903 OFFCURVE",
"371 912 OFFCURVE",
"352 912 CURVE SMOOTH",
"333 912 OFFCURVE",
"323 903 OFFCURVE",
"323 885 CURVE SMOOTH",
"323 867 OFFCURVE",
"333 858 OFFCURVE",
"352 858 CURVE SMOOTH"
);
},
{
closed = 1;
nodes = (
"476 858 OFFCURVE",
"485 867 OFFCURVE",
"485 885 CURVE SMOOTH",
"485 903 OFFCURVE",
"476 912 OFFCURVE",
"458 912 CURVE SMOOTH",
"439 912 OFFCURVE",
"430 903 OFFCURVE",
"430 885 CURVE SMOOTH",
"430 867 OFFCURVE",
"439 858 OFFCURVE",
"458 858 CURVE SMOOTH"
);
}
);
width = 809;
}
);
note = Adieresis;
unicode = 00C4;
},
{
glyphname = Aring;
lastChange = "2016-07-05 19:32:38 +0000";
layers = (
{
layerId = "6418A72B-B7AF-4A99-B2A7-67092BA5BFD7";
paths = (
{
closed = 1;
nodes = (
"61 0 LINE",
"201 286 LINE",
"602 286 LINE",
"744 0 LINE",
"779 0 LINE",
"404 768 LINE",
"30 0 LINE"
);
},
{
closed = 1;
nodes = (
"214 315 LINE",
"401 699 LINE",
"590 315 LINE"
);
},
{
closed = 1;
nodes = (
"446 812 OFFCURVE",
"480 847 OFFCURVE",
"480 888 CURVE SMOOTH",
"480 928 OFFCURVE",
"447 962 OFFCURVE",
"405 962 CURVE SMOOTH",
"363 962 OFFCURVE",
"329 928 OFFCURVE",
"329 888 CURVE SMOOTH",
"329 847 OFFCURVE",
"362 812 OFFCURVE",
"402 812 CURVE SMOOTH",
"406 812 LINE SMOOTH"
);
},
{
closed = 1;
nodes = (
"454 859 OFFCURVE",
"432 836 OFFCURVE",
"405 836 CURVE SMOOTH",
"377 836 OFFCURVE",
"354 860 OFFCURVE",
"354 887 CURVE SMOOTH",
"354 914 OFFCURVE",
"377 938 OFFCURVE",
"405 938 CURVE SMOOTH",
"432 938 OFFCURVE",
"454 915 OFFCURVE",
"454 887 CURVE SMOOTH"
);
}
);
width = 809;
}
);
note = Aring;
unicode = 00C5;
},
{
glyphname = AE;
lastChange = "2016-07-05 19:32:38 +0000";
layers = (
{
layerId = "6418A72B-B7AF-4A99-B2A7-67092BA5BFD7";
paths = (
{
closed = 1;
nodes = (
"25 0 LINE",
"56 0 LINE",
"196 286 LINE",
"397 286 LINE",
"397 0 LINE",
"666 0 LINE",
"666 29 LINE",
"430 29 LINE",
"430 287 LINE",
"627 287 LINE",
"627 316 LINE",
"430 316 LINE",
"430 721 LINE",
"666 721 LINE",
"666 750 LINE",
"397 750 LINE"
);
},
{
closed = 1;
nodes = (
"397 692 LINE",
"397 315 LINE",
"209 315 LINE"
);
}
);
width = 691;
}
);
note = AE;
unicode = 00C6;
},
{
glyphname = Ccedilla;
lastChange = "2016-07-05 19:32:38 +0000";
layers = (
{
layerId = "6418A72B-B7AF-4A99-B2A7-67092BA5BFD7";
paths = (
{
closed = 1;
nodes = (
"483 -75 OFFCURVE",
"505 -97 OFFCURVE",
"505 -125 CURVE SMOOTH",
"505 -153 OFFCURVE",
"483 -175 OFFCURVE",
"452 -175 CURVE SMOOTH",
"417 -175 LINE",
"417 -200 LINE",
"452 -200 LINE SMOOTH",
"496 -200 OFFCURVE",
"529 -167 OFFCURVE",
"529 -127 CURVE SMOOTH",
"529 -123 LINE SMOOTH",
"529 -83 OFFCURVE",
"495 -49 OFFCURVE",
"452 -49 CURVE SMOOTH",
"442 -49 LINE",
"442 -11 LINE",
"450 -11 LINE SMOOTH",
"521 -11 OFFCURVE",
"587 8 OFFCURVE",
"648 45 CURVE",
"648 82 LINE",
"585 39 OFFCURVE",
"518 18 OFFCURVE",
"445 18 CURVE SMOOTH",
"249 18 OFFCURVE",
"88 181 OFFCURVE",
"88 378 CURVE SMOOTH",
"88 574 OFFCURVE",
"249 736 OFFCURVE",
"445 736 CURVE SMOOTH",
"518 736 OFFCURVE",
"585 715 OFFCURVE",
"648 672 CURVE",
"648 709 LINE",
"584 746 OFFCURVE",
"516 765 OFFCURVE",
"445 765 CURVE SMOOTH",
"232 765 OFFCURVE",
"55 587 OFFCURVE",
"55 383 CURVE SMOOTH",
"55 178 OFFCURVE",
"218 1 OFFCURVE",
"417 -10 CURVE",
"417 -75 LINE",
"452 -75 LINE SMOOTH"
);
}
);
width = 718;
}
);
note = Ccedilla;
unicode = 00C7;
},
{
glyphname = Egrave;
lastChange = "2016-07-05 19:32:38 +0000";
layers = (
{
layerId = "6418A72B-B7AF-4A99-B2A7-67092BA5BFD7";
paths = (
{
closed = 1;
nodes = (
"354 0 LINE",
"354 29 LINE",
"118 29 LINE",
"118 284 LINE",
"315 284 LINE",
"315 313 LINE",
"118 313 LINE",
"118 721 LINE",
"354 721 LINE",
"354 750 LINE",
"85 750 LINE",
"85 0 LINE"
);
},
{
closed = 1;
nodes = (
"312 829 LINE",
"172 944 LINE",
"131 944 LINE",
"270 829 LINE"
);
}
);
width = 389;
}
);
note = Egrave;
unicode = 00C8;
},
{
glyphname = Eacute;
lastChange = "2016-07-05 19:32:38 +0000";
layers = (
{
layerId = "6418A72B-B7AF-4A99-B2A7-67092BA5BFD7";
paths = (
{
closed = 1;
nodes = (
"354 0 LINE",
"354 29 LINE",
"118 29 LINE",
"118 284 LINE",
"315 284 LINE",
"315 313 LINE",
"118 313 LINE",
"118 721 LINE",
"354 721 LINE",
"354 750 LINE",
"85 750 LINE",
"85 0 LINE"
);
},
{
closed = 1;
nodes = (
"172 829 LINE",
"311 944 LINE",
"270 944 LINE",
"130 829 LINE"
);
}
);
width = 389;
}
);
note = Eacute;
unicode = 00C9;
},
{
glyphname = Ecircumflex;
lastChange = "2016-07-05 19:32:38 +0000";
layers = (
{
layerId = "6418A72B-B7AF-4A99-B2A7-67092BA5BFD7";
paths = (
{
closed = 1;
nodes = (
"354 0 LINE",
"354 29 LINE",
"118 29 LINE",
"118 284 LINE",
"315 284 LINE",
"315 313 LINE",
"118 313 LINE",
"118 721 LINE",
"354 721 LINE",
"354 750 LINE",
"85 750 LINE",
"85 0 LINE"
);
},
{
closed = 1;
nodes = (
"74 829 LINE",
"116 829 LINE",
"222 920 LINE",
"329 829 LINE",
"370 829 LINE",
"238 944 LINE",
"208 944 LINE"
);
}
);
width = 389;
}
);
note = Ecircumflex;
unicode = 00CA;
},
{
glyphname = Edieresis;
lastChange = "2016-07-05 19:32:38 +0000";
layers = (
{
layerId = "6418A72B-B7AF-4A99-B2A7-67092BA5BFD7";
paths = (
{
closed = 1;
nodes = (
"354 0 LINE",
"354 29 LINE",
"118 29 LINE",
"118 284 LINE",
"315 284 LINE",
"315 313 LINE",
"118 313 LINE",
"118 721 LINE",
"354 721 LINE",
"354 750 LINE",
"85 750 LINE",
"85 0 LINE"
);
},
{
closed = 1;
nodes = (
"185 858 OFFCURVE",
"195 867 OFFCURVE",
"195 885 CURVE SMOOTH",
"195 903 OFFCURVE",
"185 912 OFFCURVE",
"166 912 CURVE SMOOTH",
"147 912 OFFCURVE",
"137 903 OFFCURVE",
"137 885 CURVE SMOOTH",
"137 867 OFFCURVE",
"147 858 OFFCURVE",
"166 858 CURVE SMOOTH"
);
},
{
closed = 1;
nodes = (
"290 858 OFFCURVE",
"299 867 OFFCURVE",
"299 885 CURVE SMOOTH",
"299 903 OFFCURVE",
"290 912 OFFCURVE",
"272 912 CURVE SMOOTH",
"253 912 OFFCURVE",
"244 903 OFFCURVE",
"244 885 CURVE SMOOTH",
"244 867 OFFCURVE",
"253 858 OFFCURVE",
"272 858 CURVE SMOOTH"
);
}
);
width = 389;
}
);
note = Edieresis;
unicode = 00CB;
},
{
glyphname = Igrave;
lastChange = "2016-07-05 19:32:38 +0000";
layers = (
{
layerId = "6418A72B-B7AF-4A99-B2A7-67092BA5BFD7";
paths = (
{
closed = 1;
nodes = (
"123 0 LINE",
"123 750 LINE",
"90 750 LINE",
"90 0 LINE"
);
},
{
closed = 1;
nodes = (
"197 829 LINE",
"57 944 LINE",
"16 944 LINE",
"155 829 LINE"
);
}
);
width = 213;
}
);
note = Igrave;
unicode = 00CC;
},
{
glyphname = Iacute;
lastChange = "2016-07-05 19:32:38 +0000";
layers = (
{
layerId = "6418A72B-B7AF-4A99-B2A7-67092BA5BFD7";
paths = (
{
closed = 1;
nodes = (
"123 0 LINE",
"123 750 LINE",
"90 750 LINE",
"90 0 LINE"
);
},
{
closed = 1;
nodes = (
"58 829 LINE",
"197 944 LINE",
"156 944 LINE",
"16 829 LINE"
);
}
);
width = 213;
}
);
note = Iacute;
unicode = 00CD;
},
{
glyphname = Icircumflex;
lastChange = "2016-07-05 19:32:38 +0000";
layers = (
{
layerId = "6418A72B-B7AF-4A99-B2A7-67092BA5BFD7";
paths = (
{
closed = 1;
nodes = (
"123 0 LINE",
"123 750 LINE",
"90 750 LINE",
"90 0 LINE"
);
},
{
closed = 1;
nodes = (
"-41 829 LINE",
"1 829 LINE",
"107 920 LINE",
"214 829 LINE",
"255 829 LINE",
"123 944 LINE",
"93 944 LINE"
);
}
);
width = 213;
}
);
note = Icircumflex;
unicode = 00CE;
},
{
glyphname = Idieresis;
lastChange = "2016-07-05 19:32:38 +0000";
layers = (
{
layerId = "6418A72B-B7AF-4A99-B2A7-67092BA5BFD7";
paths = (
{
closed = 1;
nodes = (
"123 0 LINE",
"123 750 LINE",
"90 750 LINE",
"90 0 LINE"
);
},
{
closed = 1;
nodes = (
"73 858 OFFCURVE",
"83 867 OFFCURVE",
"83 885 CURVE SMOOTH",
"83 903 OFFCURVE",
"73 912 OFFCURVE",
"54 912 CURVE SMOOTH",
"35 912 OFFCURVE",
"25 903 OFFCURVE",
"25 885 CURVE SMOOTH",
"25 867 OFFCURVE",
"35 858 OFFCURVE",
"54 858 CURVE SMOOTH"
);
},
{
closed = 1;
nodes = (
"178 858 OFFCURVE",
"187 867 OFFCURVE",
"187 885 CURVE SMOOTH",
"187 903 OFFCURVE",
"178 912 OFFCURVE",
"160 912 CURVE SMOOTH",
"141 912 OFFCURVE",
"132 903 OFFCURVE",
"132 885 CURVE SMOOTH",
"132 867 OFFCURVE",
"141 858 OFFCURVE",
"160 858 CURVE SMOOTH"
);
}
);
width = 213;
}
);
note = Idieresis;
unicode = 00CF;
},
{
glyphname = Eth;
lastChange = "2016-07-05 19:32:38 +0000";
layers = (
{
layerId = "6418A72B-B7AF-4A99-B2A7-67092BA5BFD7";
paths = (
{
closed = 1;
nodes = (
"15 390 LINE",
"15 361 LINE",
"75 361 LINE",
"75 0 LINE",
"107 0 LINE SMOOTH",
"332 0 OFFCURVE",
"481 169 OFFCURVE",
"481 375 CURVE SMOOTH",
"481 581 OFFCURVE",
"331 750 OFFCURVE",
"107 750 CURVE SMOOTH",
"75 750 LINE",
"75 390 LINE"
);
},
{
closed = 1;
nodes = (
"310 720 OFFCURVE",
"448 563 OFFCURVE",
"448 375 CURVE SMOOTH",
"448 186 OFFCURVE",
"310 31 OFFCURVE",
"115 31 CURVE SMOOTH",
"107 31 LINE",
"107 361 LINE",
"231 361 LINE",
"231 390 LINE",
"107 390 LINE",
"107 720 LINE",
"115 720 LINE SMOOTH"
);
}
);
width = 526;
}
);
note = Eth;
unicode = 00D0;
},
{
glyphname = Ntilde;
lastChange = "2016-07-05 19:32:38 +0000";
layers = (
{
layerId = "6418A72B-B7AF-4A99-B2A7-67092BA5BFD7";
paths = (
{
closed = 1;
nodes = (
"85 761 LINE",
"85 0 LINE",
"114 0 LINE",
"114 668 LINE",
"666 -11 LINE",
"666 750 LINE",
"637 750 LINE",
"637 83 LINE"
);
},
{
closed = 1;
nodes = (
"485 847 OFFCURVE",
"515 873 OFFCURVE",
"546 924 CURVE",
"515 924 LINE",
"494 891 OFFCURVE",
"475 875 OFFCURVE",
"457 875 CURVE SMOOTH",
"438 875 OFFCURVE",
"414 884 OFFCURVE",
"384 902 CURVE SMOOTH",
"354 919 OFFCURVE",
"329 928 OFFCURVE",
"309 928 CURVE SMOOTH",
"300 928 LINE SMOOTH",
"263 928 OFFCURVE",
"231 901 OFFCURVE",
"205 848 CURVE",
"236 848 LINE",
"279 919 OFFCURVE",
"312 911 OFFCURVE",
"378 875 CURVE SMOOTH",
"411 856 OFFCURVE",
"437 847 OFFCURVE",
"456 847 CURVE SMOOTH"
);
}
);
width = 751;
}
);
note = Ntilde;
unicode = 00D1;
},
{
glyphname = Ograve;
lastChange = "2016-07-05 19:32:38 +0000";
layers = (
{
layerId = "6418A72B-B7AF-4A99-B2A7-67092BA5BFD7";
paths = (
{
closed = 1;
nodes = (
"661 -13 OFFCURVE",
"835 168 OFFCURVE",
"835 378 CURVE SMOOTH",
"835 588 OFFCURVE",
"661 763 OFFCURVE",
"446 763 CURVE SMOOTH",
"231 763 OFFCURVE",
"55 586 OFFCURVE",
"55 378 CURVE SMOOTH",
"55 169 OFFCURVE",
"230 -13 OFFCURVE",
"437 -13 CURVE SMOOTH",
"452 -13 LINE SMOOTH"
);
},
{
closed = 1;
nodes = (
"802 179 OFFCURVE",
"641 16 OFFCURVE",
"445 16 CURVE SMOOTH",
"249 16 OFFCURVE",
"88 179 OFFCURVE",
"88 376 CURVE SMOOTH",
"88 572 OFFCURVE",
"249 734 OFFCURVE",
"446 734 CURVE SMOOTH",
"642 734 OFFCURVE",
"802 572 OFFCURVE",
"802 376 CURVE SMOOTH"
);
},
{
closed = 1;
nodes = (
"535 829 LINE",
"395 944 LINE",
"354 944 LINE",
"493 829 LINE"
);
}
);
width = 890;
}
);
note = Ograve;
unicode = 00D2;
},
{
glyphname = Oacute;
lastChange = "2016-07-05 19:32:38 +0000";
layers = (
{
layerId = "6418A72B-B7AF-4A99-B2A7-67092BA5BFD7";
paths = (
{
closed = 1;
nodes = (
"661 -13 OFFCURVE",
"835 168 OFFCURVE",
"835 378 CURVE SMOOTH",
"835 588 OFFCURVE",
"661 763 OFFCURVE",
"446 763 CURVE SMOOTH",
"231 763 OFFCURVE",
"55 586 OFFCURVE",
"55 378 CURVE SMOOTH",
"55 169 OFFCURVE",
"230 -13 OFFCURVE",
"437 -13 CURVE SMOOTH",
"452 -13 LINE SMOOTH"
);
},
{
closed = 1;
nodes = (
"802 179 OFFCURVE",
"641 16 OFFCURVE",
"445 16 CURVE SMOOTH",
"249 16 OFFCURVE",
"88 179 OFFCURVE",
"88 376 CURVE SMOOTH",
"88 572 OFFCURVE",
"249 734 OFFCURVE",
"446 734 CURVE SMOOTH",
"642 734 OFFCURVE",
"802 572 OFFCURVE",
"802 376 CURVE SMOOTH"
);
},
{
closed = 1;
nodes = (
"396 829 LINE",
"535 944 LINE",
"494 944 LINE",
"354 829 LINE"
);
}
);
width = 890;
}
);
note = Oacute;
unicode = 00D3;
},
{
glyphname = Ocircumflex;
lastChange = "2016-07-05 19:32:38 +0000";
layers = (
{
layerId = "6418A72B-B7AF-4A99-B2A7-67092BA5BFD7";
paths = (
{
closed = 1;
nodes = (
"661 -13 OFFCURVE",
"835 168 OFFCURVE",
"835 378 CURVE SMOOTH",
"835 588 OFFCURVE",
"661 763 OFFCURVE",
"446 763 CURVE SMOOTH",
"231 763 OFFCURVE",
"55 586 OFFCURVE",
"55 378 CURVE SMOOTH",
"55 169 OFFCURVE",
"230 -13 OFFCURVE",
"437 -13 CURVE SMOOTH",
"452 -13 LINE SMOOTH"
);
},
{
closed = 1;
nodes = (
"802 179 OFFCURVE",
"641 16 OFFCURVE",
"445 16 CURVE SMOOTH",
"249 16 OFFCURVE",
"88 179 OFFCURVE",
"88 376 CURVE SMOOTH",
"88 572 OFFCURVE",
"249 734 OFFCURVE",
"446 734 CURVE SMOOTH",
"642 734 OFFCURVE",
"802 572 OFFCURVE",
"802 376 CURVE SMOOTH"
);
},
{
closed = 1;
nodes = (
"297 829 LINE",
"339 829 LINE",
"445 920 LINE",
"552 829 LINE",
"593 829 LINE",
"461 944 LINE",
"431 944 LINE"
);
}
);
width = 890;
}
);
note = Ocircumflex;
unicode = 00D4;
},
{
glyphname = Otilde;
lastChange = "2016-07-05 19:32:38 +0000";
layers = (
{
layerId = "6418A72B-B7AF-4A99-B2A7-67092BA5BFD7";
paths = (
{
closed = 1;
nodes = (
"661 -13 OFFCURVE",
"835 168 OFFCURVE",
"835 378 CURVE SMOOTH",
"835 588 OFFCURVE",
"661 763 OFFCURVE",
"446 763 CURVE SMOOTH",
"231 763 OFFCURVE",
"55 586 OFFCURVE",
"55 378 CURVE SMOOTH",
"55 169 OFFCURVE",
"230 -13 OFFCURVE",
"437 -13 CURVE SMOOTH",
"452 -13 LINE SMOOTH"
);
},
{
closed = 1;
nodes = (
"802 179 OFFCURVE",
"641 16 OFFCURVE",
"445 16 CURVE SMOOTH",
"249 16 OFFCURVE",
"88 179 OFFCURVE",
"88 376 CURVE SMOOTH",
"88 572 OFFCURVE",
"249 734 OFFCURVE",
"446 734 CURVE SMOOTH",
"642 734 OFFCURVE",
"802 572 OFFCURVE",
"802 376 CURVE SMOOTH"
);
},
{
closed = 1;
nodes = (
"554 847 OFFCURVE",
"584 873 OFFCURVE",
"615 924 CURVE",
"584 924 LINE",
"563 891 OFFCURVE",
"544 875 OFFCURVE",
"526 875 CURVE SMOOTH",
"507 875 OFFCURVE",
"483 884 OFFCURVE",
"453 902 CURVE SMOOTH",
"423 919 OFFCURVE",
"398 928 OFFCURVE",
"378 928 CURVE SMOOTH",
"369 928 LINE SMOOTH",
"332 928 OFFCURVE",
"300 901 OFFCURVE",
"274 848 CURVE",
"305 848 LINE",
"348 919 OFFCURVE",
"381 911 OFFCURVE",
"447 875 CURVE SMOOTH",
"480 856 OFFCURVE",
"506 847 OFFCURVE",
"525 847 CURVE SMOOTH"
);
}
);
width = 890;
}
);
note = Otilde;
unicode = 00D5;
},
{
glyphname = Odieresis;
lastChange = "2016-07-05 19:32:38 +0000";
layers = (
{
layerId = "6418A72B-B7AF-4A99-B2A7-67092BA5BFD7";
paths = (
{
closed = 1;
nodes = (
"661 -13 OFFCURVE",
"835 168 OFFCURVE",
"835 378 CURVE SMOOTH",
"835 588 OFFCURVE",
"661 763 OFFCURVE",
"446 763 CURVE SMOOTH",
"231 763 OFFCURVE",
"55 586 OFFCURVE",
"55 378 CURVE SMOOTH",
"55 169 OFFCURVE",
"230 -13 OFFCURVE",
"437 -13 CURVE SMOOTH",
"452 -13 LINE SMOOTH"
);
},
{
closed = 1;
nodes = (
"802 179 OFFCURVE",
"641 16 OFFCURVE",
"445 16 CURVE SMOOTH",
"249 16 OFFCURVE",
"88 179 OFFCURVE",
"88 376 CURVE SMOOTH",
"88 572 OFFCURVE",
"249 734 OFFCURVE",
"446 734 CURVE SMOOTH",
"642 734 OFFCURVE",
"802 572 OFFCURVE",
"802 376 CURVE SMOOTH"
);
},
{
closed = 1;
nodes = (
"412 858 OFFCURVE",
"422 867 OFFCURVE",
"422 885 CURVE SMOOTH",
"422 903 OFFCURVE",
"412 912 OFFCURVE",
"393 912 CURVE SMOOTH",
"374 912 OFFCURVE",
"364 903 OFFCURVE",
"364 885 CURVE SMOOTH",
"364 867 OFFCURVE",
"374 858 OFFCURVE",
"393 858 CURVE SMOOTH"
);
},
{
closed = 1;
nodes = (
"517 858 OFFCURVE",
"526 867 OFFCURVE",
"526 885 CURVE SMOOTH",
"526 903 OFFCURVE",
"517 912 OFFCURVE",
"499 912 CURVE SMOOTH",
"480 912 OFFCURVE",
"471 903 OFFCURVE",
"471 885 CURVE SMOOTH",
"471 867 OFFCURVE",
"480 858 OFFCURVE",
"499 858 CURVE SMOOTH"
);
}
);
width = 890;
}
);
note = Odieresis;
unicode = 00D6;
},
{
glyphname = multiply;
lastChange = "2016-07-05 19:32:38 +0000";
layers = (
{
layerId = "6418A72B-B7AF-4A99-B2A7-67092BA5BFD7";
paths = (
{
closed = 1;
nodes = (
"103 287 LINE",
"197 381 LINE",
"295 284 LINE",
"317 306 LINE",
"219 403 LINE",
"318 502 LINE",
"294 525 LINE",
"196 427 LINE",
"97 526 LINE",
"75 504 LINE",
"174 405 LINE",
"79 310 LINE"
);
}
);
width = 393;
}
);
note = multiply;
unicode = 00D7;
},
{
glyphname = Oslash;
lastChange = "2016-07-05 19:32:38 +0000";
layers = (
{
layerId = "6418A72B-B7AF-4A99-B2A7-67092BA5BFD7";
paths = (
{
closed = 1;
nodes = (
"830 494 OFFCURVE",
"776 602 OFFCURVE",
"685 675 CURVE",
"740 748 LINE",
"701 748 LINE",
"661 694 LINE",
"594 740 OFFCURVE",
"521 763 OFFCURVE",
"440 763 CURVE SMOOTH",
"227 763 OFFCURVE",
"50 587 OFFCURVE",
"50 375 CURVE SMOOTH",
"50 256 OFFCURVE",
"106 147 OFFCURVE",
"198 72 CURVE",
"144 0 LINE",
"181 0 LINE",
"221 54 LINE",
"284 9 OFFCURVE",
"355 -13 OFFCURVE",
"432 -13 CURVE SMOOTH",
"447 -13 LINE SMOOTH",
"656 -13 OFFCURVE",
"830 168 OFFCURVE",
"830 375 CURVE SMOOTH"
);
},
{
closed = 1;
nodes = (
"513 734 OFFCURVE",
"580 713 OFFCURVE",
"643 670 CURVE",
"216 96 LINE",
"133 164 OFFCURVE",
"83 264 OFFCURVE",
"83 375 CURVE SMOOTH",
"83 572 OFFCURVE",
"244 734 OFFCURVE",
"440 734 CURVE SMOOTH"
);
},
{
closed = 1;
nodes = (
"797 179 OFFCURVE",
"636 16 OFFCURVE",
"440 16 CURVE SMOOTH",
"368 16 OFFCURVE",
"301 37 OFFCURVE",
"239 79 CURVE",
"667 651 LINE",
"748 583 OFFCURVE",
"797 484 OFFCURVE",
"797 375 CURVE SMOOTH"
);
}
);
width = 880;
}
);
note = Oslash;
unicode = 00D8;
},
{
glyphname = Ugrave;
lastChange = "2016-07-05 19:32:38 +0000";
layers = (
{
layerId = "6418A72B-B7AF-4A99-B2A7-67092BA5BFD7";
paths = (
{
closed = 1;
nodes = (
"435 -14 OFFCURVE",
"532 82 OFFCURVE",
"532 213 CURVE SMOOTH",
"532 750 LINE",
"499 750 LINE",
"499 212 LINE SMOOTH",
"499 97 OFFCURVE",
"417 15 OFFCURVE",
"309 15 CURVE SMOOTH",
"201 15 OFFCURVE",
"118 99 OFFCURVE",
"118 212 CURVE SMOOTH",
"118 750 LINE",
"85 750 LINE",
"85 211 LINE SMOOTH",
"85 82 OFFCURVE",
"181 -14 OFFCURVE",
"304 -14 CURVE SMOOTH",
"314 -14 LINE SMOOTH"
);
},
{
closed = 1;
nodes = (
"399 829 LINE",
"259 944 LINE",
"218 944 LINE",
"357 829 LINE"
);
}
);
width = 617;
}
);
note = Ugrave;
unicode = 00D9;
},
{
glyphname = Uacute;
lastChange = "2016-07-05 19:32:38 +0000";
layers = (
{
layerId = "6418A72B-B7AF-4A99-B2A7-67092BA5BFD7";
paths = (
{
closed = 1;
nodes = (
"435 -14 OFFCURVE",
"532 82 OFFCURVE",
"532 213 CURVE SMOOTH",
"532 750 LINE",
"499 750 LINE",
"499 212 LINE SMOOTH",
"499 97 OFFCURVE",
"417 15 OFFCURVE",
"309 15 CURVE SMOOTH",
"201 15 OFFCURVE",
"118 99 OFFCURVE",
"118 212 CURVE SMOOTH",
"118 750 LINE",
"85 750 LINE",
"85 211 LINE SMOOTH",
"85 82 OFFCURVE",
"181 -14 OFFCURVE",
"304 -14 CURVE SMOOTH",
"314 -14 LINE SMOOTH"
);
},
{
closed = 1;
nodes = (
"260 829 LINE",
"399 944 LINE",
"358 944 LINE",
"218 829 LINE"
);
}
);
width = 617;
}
);
note = Uacute;
unicode = 00DA;
},
{
glyphname = Ucircumflex;
lastChange = "2016-07-05 19:32:38 +0000";
layers = (
{
layerId = "6418A72B-B7AF-4A99-B2A7-67092BA5BFD7";
paths = (
{
closed = 1;
nodes = (
"435 -14 OFFCURVE",
"532 82 OFFCURVE",
"532 213 CURVE SMOOTH",
"532 750 LINE",
"499 750 LINE",
"499 212 LINE SMOOTH",
"499 97 OFFCURVE",
"417 15 OFFCURVE",
"309 15 CURVE SMOOTH",
"201 15 OFFCURVE",
"118 99 OFFCURVE",
"118 212 CURVE SMOOTH",
"118 750 LINE",
"85 750 LINE",
"85 211 LINE SMOOTH",
"85 82 OFFCURVE",
"181 -14 OFFCURVE",
"304 -14 CURVE SMOOTH",
"314 -14 LINE SMOOTH"
);
},
{
closed = 1;
nodes = (
"160 829 LINE",
"202 829 LINE",
"308 920 LINE",
"415 829 LINE",
"456 829 LINE",
"324 944 LINE",
"294 944 LINE"
);
}
);
width = 617;
}
);
note = Ucircumflex;
unicode = 00DB;
},
{
glyphname = Udieresis;
lastChange = "2016-07-05 19:32:38 +0000";
layers = (
{
layerId = "6418A72B-B7AF-4A99-B2A7-67092BA5BFD7";
paths = (
{
closed = 1;
nodes = (
"435 -14 OFFCURVE",
"532 82 OFFCURVE",
"532 213 CURVE SMOOTH",
"532 750 LINE",
"499 750 LINE",
"499 212 LINE SMOOTH",
"499 97 OFFCURVE",
"417 15 OFFCURVE",
"309 15 CURVE SMOOTH",
"201 15 OFFCURVE",
"118 99 OFFCURVE",
"118 212 CURVE SMOOTH",
"118 750 LINE",
"85 750 LINE",
"85 211 LINE SMOOTH",
"85 82 OFFCURVE",
"181 -14 OFFCURVE",
"304 -14 CURVE SMOOTH",
"314 -14 LINE SMOOTH"
);
},
{
closed = 1;
nodes = (
"275 858 OFFCURVE",
"285 867 OFFCURVE",
"285 885 CURVE SMOOTH",
"285 903 OFFCURVE",
"275 912 OFFCURVE",
"256 912 CURVE SMOOTH",
"237 912 OFFCURVE",
"227 903 OFFCURVE",
"227 885 CURVE SMOOTH",
"227 867 OFFCURVE",
"237 858 OFFCURVE",
"256 858 CURVE SMOOTH"
);
},
{
closed = 1;
nodes = (
"380 858 OFFCURVE",
"389 867 OFFCURVE",
"389 885 CURVE SMOOTH",
"389 903 OFFCURVE",
"380 912 OFFCURVE",
"362 912 CURVE SMOOTH",
"343 912 OFFCURVE",
"334 903 OFFCURVE",
"334 885 CURVE SMOOTH",
"334 867 OFFCURVE",
"343 858 OFFCURVE",
"362 858 CURVE SMOOTH"
);
}
);
width = 617;
}
);
note = Udieresis;
unicode = 00DC;
},
{
glyphname = Yacute;
lastChange = "2016-07-05 19:32:38 +0000";
layers = (
{
layerId = "6418A72B-B7AF-4A99-B2A7-67092BA5BFD7";
paths = (
{
closed = 1;
nodes = (
"514 750 LINE",
"484 750 LINE",
"277 335 LINE",
"66 750 LINE",
"30 750 LINE",
"258 300 LINE",
"258 0 LINE",
"291 0 LINE",
"291 300 LINE"
);
},
{
closed = 1;
nodes = (
"223 829 LINE",
"362 944 LINE",
"321 944 LINE",
"181 829 LINE"
);
}
);
width = 544;
}
);
note = Yacute;
unicode = 00DD;
},
{
glyphname = Thorn;
lastChange = "2016-07-05 19:32:38 +0000";
layers = (
{
layerId = "6418A72B-B7AF-4A99-B2A7-67092BA5BFD7";
paths = (
{
closed = 1;
nodes = (
"107 153 LINE",
"116 153 LINE SMOOTH",
"239 153 OFFCURVE",
"360 262 OFFCURVE",
"360 391 CURVE SMOOTH",
"360 520 OFFCURVE",
"245 631 OFFCURVE",
"116 631 CURVE SMOOTH",
"107 631 LINE",
"107 749 LINE",
"75 749 LINE",
"75 0 LINE",
"107 0 LINE"
);
},
{
closed = 1;
nodes = (
"228 602 OFFCURVE",
"328 505 OFFCURVE",
"328 390 CURVE SMOOTH",
"328 275 OFFCURVE",
"228 182 OFFCURVE",
"116 182 CURVE SMOOTH",
"107 182 LINE",
"107 602 LINE",
"116 602 LINE SMOOTH"
);
}
);
width = 410;
}
);
note = Thorn;
unicode = 00DE;
},
{
glyphname = germandbls;
lastChange = "2016-07-05 19:32:38 +0000";
layers = (
{
layerId = "6418A72B-B7AF-4A99-B2A7-67092BA5BFD7";
paths = (
{
closed = 1;
nodes = (
"138 707 OFFCURVE",
"75 644 OFFCURVE",
"75 567 CURVE SMOOTH",
"75 0 LINE",
"107 0 LINE",
"107 567 LINE SMOOTH",
"107 627 OFFCURVE",
"158 678 OFFCURVE",
"217 678 CURVE SMOOTH",
"276 678 OFFCURVE",
"327 627 OFFCURVE",
"327 568 CURVE SMOOTH",
"327 508 OFFCURVE",
"276 456 OFFCURVE",
"216 456 CURVE",
"216 427 LINE",
"297 427 LINE SMOOTH",
"409 427 OFFCURVE",
"502 335 OFFCURVE",
"502 224 CURVE SMOOTH",
"502 112 OFFCURVE",
"408 19 OFFCURVE",
"297 19 CURVE SMOOTH",
"264 19 OFFCURVE",
"233 27 OFFCURVE",
"202 44 CURVE",
"202 10 LINE",
"234 -3 OFFCURVE",
"266 -10 OFFCURVE",
"297 -10 CURVE SMOOTH",
"426 -10 OFFCURVE",
"532 95 OFFCURVE",
"532 223 CURVE SMOOTH",
"532 350 OFFCURVE",
"431 451 OFFCURVE",
"303 456 CURVE",
"340 487 OFFCURVE",
"359 523 OFFCURVE",
"359 564 CURVE SMOOTH",
"359 645 OFFCURVE",
"296 707 OFFCURVE",
"217 707 CURVE SMOOTH"
);
}
);
width = 572;
}
);
note = germandbls;
unicode = 00DF;
},
{
glyphname = agrave;
lastChange = "2016-07-05 19:32:38 +0000";
layers = (
{
layerId = "6418A72B-B7AF-4A99-B2A7-67092BA5BFD7";
paths = (
{
closed = 1;
nodes = (
"487 337 LINE",
"456 412 OFFCURVE",
"368 461 OFFCURVE",
"283 461 CURVE SMOOTH",
"152 461 OFFCURVE",
"45 354 OFFCURVE",
"45 225 CURVE SMOOTH",
"45 96 OFFCURVE",
"152 -11 OFFCURVE",
"283 -11 CURVE SMOOTH",
"368 -11 OFFCURVE",
"450 36 OFFCURVE",
"487 112 CURVE",
"487 0 LINE",
"519 0 LINE",
"519 450 LINE",
"487 450 LINE"
);
},
{
closed = 1;
nodes = (
"77 336 OFFCURVE",
"172 433 OFFCURVE",
"284 433 CURVE SMOOTH",
"396 433 OFFCURVE",
"489 337 OFFCURVE",
"489 225 CURVE SMOOTH",
"489 112 OFFCURVE",
"397 17 OFFCURVE",
"285 17 CURVE SMOOTH",
"172 17 OFFCURVE",
"77 112 OFFCURVE",
"77 224 CURVE SMOOTH"
);
},
{
closed = 1;
nodes = (
"385 529 LINE",
"245 644 LINE",
"204 644 LINE",
"343 529 LINE"
);
}
);
width = 589;
}
);
note = agrave;
unicode = 00E0;
},
{
glyphname = aacute;
lastChange = "2016-07-05 19:32:38 +0000";
layers = (
{
layerId = "6418A72B-B7AF-4A99-B2A7-67092BA5BFD7";
paths = (
{
closed = 1;
nodes = (
"487 337 LINE",
"456 412 OFFCURVE",
"368 461 OFFCURVE",
"283 461 CURVE SMOOTH",
"152 461 OFFCURVE",
"45 354 OFFCURVE",
"45 225 CURVE SMOOTH",
"45 96 OFFCURVE",
"152 -11 OFFCURVE",
"283 -11 CURVE SMOOTH",
"368 -11 OFFCURVE",
"450 36 OFFCURVE",
"487 112 CURVE",
"487 0 LINE",
"519 0 LINE",
"519 450 LINE",
"487 450 LINE"
);
},
{
closed = 1;
nodes = (
"77 336 OFFCURVE",
"172 433 OFFCURVE",
"284 433 CURVE SMOOTH",
"396 433 OFFCURVE",
"489 337 OFFCURVE",
"489 225 CURVE SMOOTH",
"489 112 OFFCURVE",
"397 17 OFFCURVE",
"285 17 CURVE SMOOTH",
"172 17 OFFCURVE",
"77 112 OFFCURVE",
"77 224 CURVE SMOOTH"
);
},
{
closed = 1;
nodes = (
"246 529 LINE",
"385 644 LINE",
"344 644 LINE",
"204 529 LINE"
);
}
);
width = 589;
}
);
note = aacute;
unicode = 00E1;
},
{
glyphname = acircumflex;
lastChange = "2016-07-05 19:32:38 +0000";
layers = (
{
layerId = "6418A72B-B7AF-4A99-B2A7-67092BA5BFD7";
paths = (
{
closed = 1;
nodes = (
"487 337 LINE",
"456 412 OFFCURVE",
"368 461 OFFCURVE",
"283 461 CURVE SMOOTH",
"152 461 OFFCURVE",
"45 354 OFFCURVE",
"45 225 CURVE SMOOTH",
"45 96 OFFCURVE",
"152 -11 OFFCURVE",
"283 -11 CURVE SMOOTH",
"368 -11 OFFCURVE",
"450 36 OFFCURVE",
"487 112 CURVE",
"487 0 LINE",
"519 0 LINE",
"519 450 LINE",
"487 450 LINE"
);
},
{
closed = 1;
nodes = (
"77 336 OFFCURVE",
"172 433 OFFCURVE",
"284 433 CURVE SMOOTH",
"396 433 OFFCURVE",
"489 337 OFFCURVE",
"489 225 CURVE SMOOTH",
"489 112 OFFCURVE",
"397 17 OFFCURVE",
"285 17 CURVE SMOOTH",
"172 17 OFFCURVE",
"77 112 OFFCURVE",
"77 224 CURVE SMOOTH"
);
},
{
closed = 1;
nodes = (
"146 529 LINE",
"188 529 LINE",
"294 620 LINE",
"401 529 LINE",
"442 529 LINE",
"310 644 LINE",
"280 644 LINE"
);
}
);
width = 589;
}
);
note = acircumflex;
unicode = 00E2;
},
{
glyphname = atilde;
lastChange = "2016-07-05 19:32:38 +0000";
layers = (
{
layerId = "6418A72B-B7AF-4A99-B2A7-67092BA5BFD7";
paths = (
{
closed = 1;
nodes = (
"487 337 LINE",
"456 412 OFFCURVE",
"368 461 OFFCURVE",
"283 461 CURVE SMOOTH",
"152 461 OFFCURVE",
"45 354 OFFCURVE",
"45 225 CURVE SMOOTH",
"45 96 OFFCURVE",
"152 -11 OFFCURVE",
"283 -11 CURVE SMOOTH",
"368 -11 OFFCURVE",
"450 36 OFFCURVE",
"487 112 CURVE",
"487 0 LINE",
"519 0 LINE",
"519 450 LINE",
"487 450 LINE"
);
},
{
closed = 1;
nodes = (
"77 336 OFFCURVE",
"172 433 OFFCURVE",
"284 433 CURVE SMOOTH",
"396 433 OFFCURVE",
"489 337 OFFCURVE",
"489 225 CURVE SMOOTH",
"489 112 OFFCURVE",
"397 17 OFFCURVE",
"285 17 CURVE SMOOTH",
"172 17 OFFCURVE",
"77 112 OFFCURVE",
"77 224 CURVE SMOOTH"
);
},
{
closed = 1;
nodes = (
"404 547 OFFCURVE",
"434 573 OFFCURVE",
"465 624 CURVE",
"434 624 LINE",
"413 591 OFFCURVE",
"394 575 OFFCURVE",
"376 575 CURVE SMOOTH",
"357 575 OFFCURVE",
"333 584 OFFCURVE",
"303 602 CURVE SMOOTH",
"273 619 OFFCURVE",
"248 628 OFFCURVE",
"228 628 CURVE SMOOTH",
"219 628 LINE SMOOTH",
"182 628 OFFCURVE",
"150 601 OFFCURVE",
"124 548 CURVE",
"155 548 LINE",
"198 619 OFFCURVE",
"231 611 OFFCURVE",
"297 575 CURVE SMOOTH",
"330 556 OFFCURVE",
"356 547 OFFCURVE",
"375 547 CURVE SMOOTH"
);
}
);
width = 589;
}
);
note = atilde;
unicode = 00E3;
},
{
glyphname = adieresis;
lastChange = "2016-07-05 19:32:38 +0000";
layers = (
{
layerId = "6418A72B-B7AF-4A99-B2A7-67092BA5BFD7";
paths = (
{
closed = 1;
nodes = (
"487 337 LINE",
"456 412 OFFCURVE",
"368 461 OFFCURVE",
"283 461 CURVE SMOOTH",
"152 461 OFFCURVE",
"45 354 OFFCURVE",
"45 225 CURVE SMOOTH",
"45 96 OFFCURVE",
"152 -11 OFFCURVE",
"283 -11 CURVE SMOOTH",
"368 -11 OFFCURVE",
"450 36 OFFCURVE",
"487 112 CURVE",
"487 0 LINE",
"519 0 LINE",
"519 450 LINE",
"487 450 LINE"
);
},
{
closed = 1;
nodes = (
"77 336 OFFCURVE",
"172 433 OFFCURVE",
"284 433 CURVE SMOOTH",
"396 433 OFFCURVE",
"489 337 OFFCURVE",
"489 225 CURVE SMOOTH",
"489 112 OFFCURVE",
"397 17 OFFCURVE",
"285 17 CURVE SMOOTH",
"172 17 OFFCURVE",
"77 112 OFFCURVE",
"77 224 CURVE SMOOTH"
);
},
{
closed = 1;
nodes = (
"261 558 OFFCURVE",
"271 567 OFFCURVE",
"271 585 CURVE SMOOTH",
"271 603 OFFCURVE",
"261 612 OFFCURVE",
"242 612 CURVE SMOOTH",
"223 612 OFFCURVE",
"213 603 OFFCURVE",
"213 585 CURVE SMOOTH",
"213 567 OFFCURVE",
"223 558 OFFCURVE",
"242 558 CURVE SMOOTH"
);
},
{
closed = 1;
nodes = (
"366 558 OFFCURVE",
"375 567 OFFCURVE",
"375 585 CURVE SMOOTH",
"375 603 OFFCURVE",
"366 612 OFFCURVE",
"348 612 CURVE SMOOTH",
"329 612 OFFCURVE",
"320 603 OFFCURVE",
"320 585 CURVE SMOOTH",
"320 567 OFFCURVE",
"329 558 OFFCURVE",
"348 558 CURVE SMOOTH"
);
}
);
width = 589;
}
);
note = adieresis;
unicode = 00E4;
},
{
glyphname = aring;
lastChange = "2016-07-05 19:32:38 +0000";
layers = (
{
layerId = "6418A72B-B7AF-4A99-B2A7-67092BA5BFD7";
paths = (
{
closed = 1;
nodes = (
"487 337 LINE",
"456 412 OFFCURVE",
"368 461 OFFCURVE",
"283 461 CURVE SMOOTH",
"152 461 OFFCURVE",
"45 354 OFFCURVE",
"45 225 CURVE SMOOTH",
"45 96 OFFCURVE",
"152 -11 OFFCURVE",
"283 -11 CURVE SMOOTH",
"368 -11 OFFCURVE",
"450 36 OFFCURVE",
"487 112 CURVE",
"487 0 LINE",
"519 0 LINE",
"519 450 LINE",
"487 450 LINE"
);
},
{
closed = 1;
nodes = (
"77 336 OFFCURVE",
"172 433 OFFCURVE",
"284 433 CURVE SMOOTH",
"396 433 OFFCURVE",
"489 337 OFFCURVE",
"489 225 CURVE SMOOTH",
"489 112 OFFCURVE",
"397 17 OFFCURVE",
"285 17 CURVE SMOOTH",
"172 17 OFFCURVE",
"77 112 OFFCURVE",
"77 224 CURVE SMOOTH"
);
},
{
closed = 1;
nodes = (
"336 512 OFFCURVE",
"370 547 OFFCURVE",
"370 588 CURVE SMOOTH",
"370 628 OFFCURVE",
"337 662 OFFCURVE",
"295 662 CURVE SMOOTH",
"253 662 OFFCURVE",
"219 628 OFFCURVE",
"219 588 CURVE SMOOTH",
"219 547 OFFCURVE",
"252 512 OFFCURVE",
"292 512 CURVE SMOOTH",
"296 512 LINE SMOOTH"
);
},
{
closed = 1;
nodes = (
"344 559 OFFCURVE",
"322 536 OFFCURVE",
"295 536 CURVE SMOOTH",
"267 536 OFFCURVE",
"244 560 OFFCURVE",
"244 587 CURVE SMOOTH",
"244 614 OFFCURVE",
"267 638 OFFCURVE",
"295 638 CURVE SMOOTH",
"322 638 OFFCURVE",
"344 615 OFFCURVE",
"344 587 CURVE SMOOTH"
);
}
);
width = 589;
}
);
note = aring;
unicode = 00E5;
},
{
glyphname = ae;
lastChange = "2016-07-05 19:32:38 +0000";
layers = (
{
layerId = "6418A72B-B7AF-4A99-B2A7-67092BA5BFD7";
paths = (
{
closed = 1;
nodes = (
"789 -11 OFFCURVE",
"847 15 OFFCURVE",
"894 67 CURVE",
"894 118 LINE",
"853 57 OFFCURVE",
"788 17 OFFCURVE",
"708 17 CURVE SMOOTH",
"668 17 OFFCURVE",
"626 34 OFFCURVE",
"583 69 CURVE",
"897 379 LINE",
"848 434 OFFCURVE",
"787 461 OFFCURVE",
"715 461 CURVE SMOOTH",
"627 461 OFFCURVE",
"549 412 OFFCURVE",
"508 339 CURVE",
"508 450 LINE",
"482 450 LINE",
"482 345 LINE",
"439 417 OFFCURVE",
"361 461 OFFCURVE",
"278 461 CURVE SMOOTH",
"147 461 OFFCURVE",
"40 354 OFFCURVE",
"40 225 CURVE SMOOTH",
"40 96 OFFCURVE",
"147 -11 OFFCURVE",
"278 -11 CURVE SMOOTH",
"361 -11 OFFCURVE",
"439 33 OFFCURVE",
"482 105 CURVE",
"482 0 LINE",
"508 0 LINE",
"508 112 LINE",
"549 39 OFFCURVE",
"624 -11 OFFCURVE",
"707 -11 CURVE SMOOTH",
"722 -11 LINE SMOOTH"
);
},
{
closed = 1;
nodes = (
"72 336 OFFCURVE",
"167 433 OFFCURVE",
"279 433 CURVE SMOOTH",
"391 433 OFFCURVE",
"484 337 OFFCURVE",
"484 225 CURVE SMOOTH",
"484 112 OFFCURVE",
"392 17 OFFCURVE",
"280 17 CURVE SMOOTH",
"167 17 OFFCURVE",
"72 112 OFFCURVE",
"72 224 CURVE SMOOTH"
);
},
{
closed = 1;
nodes = (
"764 433 OFFCURVE",
"812 415 OFFCURVE",
"853 379 CURVE",
"562 90 LINE",
"526 131 OFFCURVE",
"508 178 OFFCURVE",
"508 231 CURVE SMOOTH",
"508 337 OFFCURVE",
"604 433 OFFCURVE",
"711 433 CURVE SMOOTH"
);
}
);
width = 932;
}
);
note = ae;
unicode = 00E6;
},
{
glyphname = ccedilla;
lastChange = "2016-07-05 19:32:38 +0000";
layers = (
{
layerId = "6418A72B-B7AF-4A99-B2A7-67092BA5BFD7";
paths = (
{
closed = 1;
nodes = (
"305 -75 OFFCURVE",
"327 -97 OFFCURVE",
"327 -125 CURVE SMOOTH",
"327 -153 OFFCURVE",
"305 -175 OFFCURVE",
"274 -175 CURVE SMOOTH",
"239 -175 LINE",
"239 -200 LINE",
"274 -200 LINE SMOOTH",
"318 -200 OFFCURVE",
"351 -167 OFFCURVE",
"351 -127 CURVE SMOOTH",
"351 -123 LINE SMOOTH",
"351 -83 OFFCURVE",
"317 -49 OFFCURVE",
"274 -49 CURVE SMOOTH",
"264 -49 LINE",
"264 -12 LINE",
"266 -13 OFFCURVE",
"271 -13 OFFCURVE",
"279 -13 CURVE SMOOTH",
"288 -13 LINE SMOOTH",
"357 -13 OFFCURVE",
"414 13 OFFCURVE",
"461 64 CURVE",
"461 116 LINE",
"420 53 OFFCURVE",
"352 15 OFFCURVE",
"283 15 CURVE SMOOTH",
"172 15 OFFCURVE",
"77 110 OFFCURVE",
"77 223 CURVE SMOOTH",
"77 336 OFFCURVE",
"172 431 OFFCURVE",
"283 431 CURVE SMOOTH",
"352 431 OFFCURVE",
"420 392 OFFCURVE",
"461 331 CURVE",
"461 382 LINE",
"413 433 OFFCURVE",
"355 459 OFFCURVE",
"287 459 CURVE SMOOTH",
"151 459 OFFCURVE",
"45 350 OFFCURVE",
"45 231 CURVE SMOOTH",
"45 111 OFFCURVE",
"128 10 OFFCURVE",
"239 -9 CURVE",
"239 -75 LINE",
"274 -75 LINE SMOOTH"
);
}
);
width = 496;
}
);
note = ccedilla;
unicode = 00E7;
},
{
glyphname = egrave;
lastChange = "2016-07-05 19:32:38 +0000";
layers = (
{
layerId = "6418A72B-B7AF-4A99-B2A7-67092BA5BFD7";
paths = (
{
closed = 1;
nodes = (
"362 -12 OFFCURVE",
"420 14 OFFCURVE",
"467 66 CURVE",
"467 117 LINE",
"426 56 OFFCURVE",
"361 16 OFFCURVE",
"281 16 CURVE SMOOTH",
"241 16 OFFCURVE",
"199 33 OFFCURVE",
"156 68 CURVE",
"470 378 LINE",
"421 433 OFFCURVE",
"362 460 OFFCURVE",
"293 460 CURVE SMOOTH",
"156 460 OFFCURVE",
"50 353 OFFCURVE",
"50 226 CURVE SMOOTH",
"50 99 OFFCURVE",
"159 -12 OFFCURVE",
"286 -12 CURVE SMOOTH",
"295 -12 LINE SMOOTH"
);
},
{
closed = 1;
nodes = (
"338 432 OFFCURVE",
"385 414 OFFCURVE",
"426 378 CURVE",
"135 89 LINE",
"100 129 OFFCURVE",
"82 176 OFFCURVE",
"82 229 CURVE SMOOTH",
"82 336 OFFCURVE",
"179 432 OFFCURVE",
"285 432 CURVE SMOOTH"
);
},
{
closed = 1;
nodes = (
"348 529 LINE",
"208 644 LINE",
"167 644 LINE",
"306 529 LINE"
);
}
);
width = 515;
}
);
note = egrave;
unicode = 00E8;
},
{
glyphname = eacute;
lastChange = "2016-07-05 19:32:38 +0000";
layers = (
{
layerId = "6418A72B-B7AF-4A99-B2A7-67092BA5BFD7";
paths = (
{
closed = 1;
nodes = (
"362 -12 OFFCURVE",
"420 14 OFFCURVE",
"467 66 CURVE",
"467 117 LINE",
"426 56 OFFCURVE",
"361 16 OFFCURVE",
"281 16 CURVE SMOOTH",
"241 16 OFFCURVE",
"199 33 OFFCURVE",
"156 68 CURVE",
"470 378 LINE",
"421 433 OFFCURVE",
"362 460 OFFCURVE",
"293 460 CURVE SMOOTH",
"156 460 OFFCURVE",
"50 353 OFFCURVE",
"50 226 CURVE SMOOTH",
"50 99 OFFCURVE",
"159 -12 OFFCURVE",
"286 -12 CURVE SMOOTH",
"295 -12 LINE SMOOTH"
);
},
{
closed = 1;
nodes = (
"338 432 OFFCURVE",
"385 414 OFFCURVE",
"426 378 CURVE",
"135 89 LINE",
"100 129 OFFCURVE",
"82 176 OFFCURVE",
"82 229 CURVE SMOOTH",
"82 336 OFFCURVE",
"179 432 OFFCURVE",
"285 432 CURVE SMOOTH"
);
},
{
closed = 1;
nodes = (
"209 529 LINE",
"348 644 LINE",
"307 644 LINE",
"167 529 LINE"
);
}
);
width = 515;
}
);
note = eacute;
unicode = 00E9;
},
{
glyphname = ecircumflex;
lastChange = "2016-07-05 19:32:38 +0000";
layers = (
{
layerId = "6418A72B-B7AF-4A99-B2A7-67092BA5BFD7";
paths = (
{
closed = 1;
nodes = (
"362 -12 OFFCURVE",
"420 14 OFFCURVE",
"467 66 CURVE",
"467 117 LINE",
"426 56 OFFCURVE",
"361 16 OFFCURVE",
"281 16 CURVE SMOOTH",
"241 16 OFFCURVE",
"199 33 OFFCURVE",
"156 68 CURVE",
"470 378 LINE",
"421 433 OFFCURVE",
"362 460 OFFCURVE",
"293 460 CURVE SMOOTH",
"156 460 OFFCURVE",
"50 353 OFFCURVE",
"50 226 CURVE SMOOTH",
"50 99 OFFCURVE",
"159 -12 OFFCURVE",
"286 -12 CURVE SMOOTH",
"295 -12 LINE SMOOTH"
);
},
{
closed = 1;
nodes = (
"338 432 OFFCURVE",
"385 414 OFFCURVE",
"426 378 CURVE",
"135 89 LINE",
"100 129 OFFCURVE",
"82 176 OFFCURVE",
"82 229 CURVE SMOOTH",
"82 336 OFFCURVE",
"179 432 OFFCURVE",
"285 432 CURVE SMOOTH"
);
},
{
closed = 1;
nodes = (
"109 529 LINE",
"151 529 LINE",
"257 620 LINE",
"364 529 LINE",
"405 529 LINE",
"273 644 LINE",
"243 644 LINE"
);
}
);
width = 515;
}
);
note = ecircumflex;
unicode = 00EA;
},
{
glyphname = edieresis;
lastChange = "2016-07-05 19:32:38 +0000";
layers = (
{
layerId = "6418A72B-B7AF-4A99-B2A7-67092BA5BFD7";
paths = (
{
closed = 1;
nodes = (
"362 -12 OFFCURVE",
"420 14 OFFCURVE",
"467 66 CURVE",
"467 117 LINE",
"426 56 OFFCURVE",
"361 16 OFFCURVE",
"281 16 CURVE SMOOTH",
"241 16 OFFCURVE",
"199 33 OFFCURVE",
"156 68 CURVE",
"470 378 LINE",
"421 433 OFFCURVE",
"362 460 OFFCURVE",
"293 460 CURVE SMOOTH",
"156 460 OFFCURVE",
"50 353 OFFCURVE",
"50 226 CURVE SMOOTH",
"50 99 OFFCURVE",
"159 -12 OFFCURVE",
"286 -12 CURVE SMOOTH",
"295 -12 LINE SMOOTH"
);
},
{
closed = 1;
nodes = (
"338 432 OFFCURVE",
"385 414 OFFCURVE",
"426 378 CURVE",
"135 89 LINE",
"100 129 OFFCURVE",
"82 176 OFFCURVE",
"82 229 CURVE SMOOTH",
"82 336 OFFCURVE",
"179 432 OFFCURVE",
"285 432 CURVE SMOOTH"
);
},
{
closed = 1;
nodes = (
"224 558 OFFCURVE",
"234 567 OFFCURVE",
"234 585 CURVE SMOOTH",
"234 603 OFFCURVE",
"224 612 OFFCURVE",
"205 612 CURVE SMOOTH",
"186 612 OFFCURVE",
"176 603 OFFCURVE",
"176 585 CURVE SMOOTH",
"176 567 OFFCURVE",
"186 558 OFFCURVE",
"205 558 CURVE SMOOTH"
);
},
{
closed = 1;
nodes = (
"329 558 OFFCURVE",
"338 567 OFFCURVE",
"338 585 CURVE SMOOTH",
"338 603 OFFCURVE",
"329 612 OFFCURVE",
"311 612 CURVE SMOOTH",
"292 612 OFFCURVE",
"283 603 OFFCURVE",
"283 585 CURVE SMOOTH",
"283 567 OFFCURVE",
"292 558 OFFCURVE",
"311 558 CURVE SMOOTH"
);
}
);
width = 515;
}
);
note = edieresis;
unicode = 00EB;
},
{
glyphname = igrave;
lastChange = "2016-07-05 19:32:38 +0000";
layers = (
{
layerId = "6418A72B-B7AF-4A99-B2A7-67092BA5BFD7";
paths = (
{
closed = 1;
nodes = (
"83 0 LINE",
"115 0 LINE",
"115 449 LINE",
"83 449 LINE"
);
},
{
closed = 1;
nodes = (
"190 529 LINE",
"50 644 LINE",
"9 644 LINE",
"148 529 LINE"
);
}
);
width = 198;
}
);
note = igrave;
unicode = 00EC;
},
{
glyphname = iacute;
lastChange = "2016-07-05 19:32:38 +0000";
layers = (
{
layerId = "6418A72B-B7AF-4A99-B2A7-67092BA5BFD7";
paths = (
{
closed = 1;
nodes = (
"83 0 LINE",
"115 0 LINE",
"115 449 LINE",
"83 449 LINE"
);
},
{
closed = 1;
nodes = (
"51 529 LINE",
"190 644 LINE",
"149 644 LINE",
"9 529 LINE"
);
}
);
width = 198;
}
);
note = iacute;
unicode = 00ED;
},
{
glyphname = icircumflex;
lastChange = "2016-07-05 19:32:38 +0000";
layers = (
{
layerId = "6418A72B-B7AF-4A99-B2A7-67092BA5BFD7";
paths = (
{
closed = 1;
nodes = (
"83 0 LINE",
"115 0 LINE",
"115 449 LINE",
"83 449 LINE"
);
},
{
closed = 1;
nodes = (
"-49 529 LINE",
"-7 529 LINE",
"99 620 LINE",
"206 529 LINE",
"247 529 LINE",
"115 644 LINE",
"85 644 LINE"
);
}
);
width = 198;
}
);
note = icircumflex;
unicode = 00EE;
},
{
glyphname = idieresis;
lastChange = "2016-07-05 19:32:38 +0000";
layers = (
{
layerId = "6418A72B-B7AF-4A99-B2A7-67092BA5BFD7";
paths = (
{
closed = 1;
nodes = (
"83 0 LINE",
"115 0 LINE",
"115 449 LINE",
"83 449 LINE"
);
},
{
closed = 1;
nodes = (
"66 558 OFFCURVE",
"76 567 OFFCURVE",
"76 585 CURVE SMOOTH",
"76 603 OFFCURVE",
"66 612 OFFCURVE",
"47 612 CURVE SMOOTH",
"28 612 OFFCURVE",
"18 603 OFFCURVE",
"18 585 CURVE SMOOTH",
"18 567 OFFCURVE",
"28 558 OFFCURVE",
"47 558 CURVE SMOOTH"
);
},
{
closed = 1;
nodes = (
"171 558 OFFCURVE",
"180 567 OFFCURVE",
"180 585 CURVE SMOOTH",
"180 603 OFFCURVE",
"171 612 OFFCURVE",
"153 612 CURVE SMOOTH",
"134 612 OFFCURVE",
"125 603 OFFCURVE",
"125 585 CURVE SMOOTH",
"125 567 OFFCURVE",
"134 558 OFFCURVE",
"153 558 CURVE SMOOTH"
);
}
);
width = 198;
}
);
note = idieresis;
unicode = 00EF;
},
{
glyphname = eth;
lastChange = "2016-07-05 19:32:38 +0000";
layers = (
{
layerId = "6418A72B-B7AF-4A99-B2A7-67092BA5BFD7";
paths = (
{
closed = 1;
nodes = (
"531 393 OFFCURVE",
"511 459 OFFCURVE",
"470 502 CURVE SMOOTH",
"429 546 OFFCURVE",
"392 567 OFFCURVE",
"327 595 CURVE",
"460 651 LINE",
"460 682 LINE",
"290 610 LINE",
"107 685 LINE",
"107 656 LINE",
"254 595 LINE",
"107 533 LINE",
"107 504 LINE",
"292 580 LINE",
"431 525 OFFCURVE",
"500 445 OFFCURVE",
"500 340 CURVE SMOOTH",
"500 331 LINE",
"461 411 OFFCURVE",
"378 459 OFFCURVE",
"293 459 CURVE SMOOTH",
"161 459 OFFCURVE",
"55 352 OFFCURVE",
"55 225 CURVE SMOOTH",
"55 97 OFFCURVE",
"158 -13 OFFCURVE",
"286 -13 CURVE SMOOTH",
"301 -13 LINE SMOOTH",
"425 -13 OFFCURVE",
"531 101 OFFCURVE",
"531 228 CURVE SMOOTH",
"531 304 LINE SMOOTH"
);
},
{
closed = 1;
nodes = (
"87 335 OFFCURVE",
"180 431 OFFCURVE",
"292 431 CURVE SMOOTH",
"404 431 OFFCURVE",
"499 334 OFFCURVE",
"499 222 CURVE SMOOTH",
"499 110 OFFCURVE",
"404 15 OFFCURVE",
"292 15 CURVE SMOOTH",
"179 15 OFFCURVE",
"87 110 OFFCURVE",
"87 223 CURVE SMOOTH"
);
}
);
width = 571;
}
);
note = eth;
unicode = 00F0;
},
{
glyphname = ntilde;
lastChange = "2016-07-05 19:32:38 +0000";
layers = (
{
layerId = "6418A72B-B7AF-4A99-B2A7-67092BA5BFD7";
paths = (
{
closed = 1;
nodes = (
"102 354 OFFCURVE",
"184 433 OFFCURVE",
"276 433 CURVE SMOOTH",
"368 433 OFFCURVE",
"442 354 OFFCURVE",
"442 262 CURVE SMOOTH",
"442 0 LINE",
"474 0 LINE",
"474 262 LINE SMOOTH",
"474 373 OFFCURVE",
"388 461 OFFCURVE",
"276 461 CURVE SMOOTH",
"194 461 OFFCURVE",
"136 427 OFFCURVE",
"102 359 CURVE",
"102 450 LINE",
"70 450 LINE",
"70 0 LINE",
"102 0 LINE",
"102 262 LINE SMOOTH"
);
},
{
closed = 1;
nodes = (
"381 547 OFFCURVE",
"411 573 OFFCURVE",
"442 624 CURVE",
"411 624 LINE",
"390 591 OFFCURVE",
"371 575 OFFCURVE",
"353 575 CURVE SMOOTH",
"334 575 OFFCURVE",
"310 584 OFFCURVE",
"280 602 CURVE SMOOTH",
"250 619 OFFCURVE",
"225 628 OFFCURVE",
"205 628 CURVE SMOOTH",
"196 628 LINE SMOOTH",
"159 628 OFFCURVE",
"127 601 OFFCURVE",
"101 548 CURVE",
"132 548 LINE",
"175 619 OFFCURVE",
"208 611 OFFCURVE",
"274 575 CURVE SMOOTH",
"307 556 OFFCURVE",
"333 547 OFFCURVE",
"352 547 CURVE SMOOTH"
);
}
);
width = 544;
}
);
note = ntilde;
unicode = 00F1;
},
{
glyphname = ograve;
lastChange = "2016-07-05 19:32:38 +0000";
layers = (
{
layerId = "6418A72B-B7AF-4A99-B2A7-67092BA5BFD7";
paths = (
{
closed = 1;
nodes = (
"417 -11 OFFCURVE",
"521 99 OFFCURVE",
"521 227 CURVE SMOOTH",
"521 354 OFFCURVE",
"415 461 OFFCURVE",
"284 461 CURVE SMOOTH",
"152 461 OFFCURVE",
"45 354 OFFCURVE",
"45 227 CURVE SMOOTH",
"45 100 OFFCURVE",
"151 -11 OFFCURVE",
"279 -11 CURVE SMOOTH",
"288 -11 LINE SMOOTH"
);
},
{
closed = 1;
nodes = (
"489 112 OFFCURVE",
"397 17 OFFCURVE",
"285 17 CURVE SMOOTH",
"172 17 OFFCURVE",
"77 112 OFFCURVE",
"77 224 CURVE SMOOTH",
"77 336 OFFCURVE",
"172 433 OFFCURVE",
"284 433 CURVE SMOOTH",
"396 433 OFFCURVE",
"489 337 OFFCURVE",
"489 225 CURVE SMOOTH"
);
},
{
closed = 1;
nodes = (
"373 529 LINE",
"233 644 LINE",
"192 644 LINE",
"331 529 LINE"
);
}
);
width = 566;
}
);
note = ograve;
unicode = 00F2;
},
{
glyphname = oacute;
lastChange = "2016-07-05 19:32:38 +0000";
layers = (
{
layerId = "6418A72B-B7AF-4A99-B2A7-67092BA5BFD7";
paths = (
{
closed = 1;
nodes = (
"417 -11 OFFCURVE",
"521 99 OFFCURVE",
"521 227 CURVE SMOOTH",
"521 354 OFFCURVE",
"415 461 OFFCURVE",
"284 461 CURVE SMOOTH",
"152 461 OFFCURVE",
"45 354 OFFCURVE",
"45 227 CURVE SMOOTH",
"45 100 OFFCURVE",
"151 -11 OFFCURVE",
"279 -11 CURVE SMOOTH",
"288 -11 LINE SMOOTH"
);
},
{
closed = 1;
nodes = (
"489 112 OFFCURVE",
"397 17 OFFCURVE",
"285 17 CURVE SMOOTH",
"172 17 OFFCURVE",
"77 112 OFFCURVE",
"77 224 CURVE SMOOTH",
"77 336 OFFCURVE",
"172 433 OFFCURVE",
"284 433 CURVE SMOOTH",
"396 433 OFFCURVE",
"489 337 OFFCURVE",
"489 225 CURVE SMOOTH"
);
},
{
closed = 1;
nodes = (
"234 529 LINE",
"373 644 LINE",
"332 644 LINE",
"192 529 LINE"
);
}
);
width = 566;
}
);
note = oacute;
unicode = 00F3;
},
{
glyphname = ocircumflex;
lastChange = "2016-07-05 19:32:38 +0000";
layers = (
{
layerId = "6418A72B-B7AF-4A99-B2A7-67092BA5BFD7";
paths = (
{
closed = 1;
nodes = (
"417 -11 OFFCURVE",
"521 99 OFFCURVE",
"521 227 CURVE SMOOTH",
"521 354 OFFCURVE",
"415 461 OFFCURVE",
"284 461 CURVE SMOOTH",
"152 461 OFFCURVE",
"45 354 OFFCURVE",
"45 227 CURVE SMOOTH",
"45 100 OFFCURVE",
"151 -11 OFFCURVE",
"279 -11 CURVE SMOOTH",
"288 -11 LINE SMOOTH"
);
},
{
closed = 1;
nodes = (
"489 112 OFFCURVE",
"397 17 OFFCURVE",
"285 17 CURVE SMOOTH",
"172 17 OFFCURVE",
"77 112 OFFCURVE",
"77 224 CURVE SMOOTH",
"77 336 OFFCURVE",
"172 433 OFFCURVE",
"284 433 CURVE SMOOTH",
"396 433 OFFCURVE",
"489 337 OFFCURVE",
"489 225 CURVE SMOOTH"
);
},
{
closed = 1;
nodes = (
"135 529 LINE",
"177 529 LINE",
"283 620 LINE",
"390 529 LINE",
"431 529 LINE",
"299 644 LINE",
"269 644 LINE"
);
}
);
width = 566;
}
);
note = ocircumflex;
unicode = 00F4;
},
{
glyphname = otilde;
lastChange = "2016-07-05 19:32:38 +0000";
layers = (
{
layerId = "6418A72B-B7AF-4A99-B2A7-67092BA5BFD7";
paths = (
{
closed = 1;
nodes = (
"417 -11 OFFCURVE",
"521 99 OFFCURVE",
"521 227 CURVE SMOOTH",
"521 354 OFFCURVE",
"415 461 OFFCURVE",
"284 461 CURVE SMOOTH",
"152 461 OFFCURVE",
"45 354 OFFCURVE",
"45 227 CURVE SMOOTH",
"45 100 OFFCURVE",
"151 -11 OFFCURVE",
"279 -11 CURVE SMOOTH",
"288 -11 LINE SMOOTH"
);
},
{
closed = 1;
nodes = (
"489 112 OFFCURVE",
"397 17 OFFCURVE",
"285 17 CURVE SMOOTH",
"172 17 OFFCURVE",
"77 112 OFFCURVE",
"77 224 CURVE SMOOTH",
"77 336 OFFCURVE",
"172 433 OFFCURVE",
"284 433 CURVE SMOOTH",
"396 433 OFFCURVE",
"489 337 OFFCURVE",
"489 225 CURVE SMOOTH"
);
},
{
closed = 1;
nodes = (
"392 547 OFFCURVE",
"422 573 OFFCURVE",
"453 624 CURVE",
"422 624 LINE",
"401 591 OFFCURVE",
"382 575 OFFCURVE",
"364 575 CURVE SMOOTH",
"345 575 OFFCURVE",
"321 584 OFFCURVE",
"291 602 CURVE SMOOTH",
"261 619 OFFCURVE",
"236 628 OFFCURVE",
"216 628 CURVE SMOOTH",
"207 628 LINE SMOOTH",
"170 628 OFFCURVE",
"138 601 OFFCURVE",
"112 548 CURVE",
"143 548 LINE",
"186 619 OFFCURVE",
"219 611 OFFCURVE",
"285 575 CURVE SMOOTH",
"318 556 OFFCURVE",
"344 547 OFFCURVE",
"363 547 CURVE SMOOTH"
);
}
);
width = 566;
}
);
note = otilde;
unicode = 00F5;
},
{
glyphname = odieresis;
lastChange = "2016-07-05 19:32:38 +0000";
layers = (
{
layerId = "6418A72B-B7AF-4A99-B2A7-67092BA5BFD7";
paths = (
{
closed = 1;
nodes = (
"417 -11 OFFCURVE",
"521 99 OFFCURVE",
"521 227 CURVE SMOOTH",
"521 354 OFFCURVE",
"415 461 OFFCURVE",
"284 461 CURVE SMOOTH",
"152 461 OFFCURVE",
"45 354 OFFCURVE",
"45 227 CURVE SMOOTH",
"45 100 OFFCURVE",
"151 -11 OFFCURVE",
"279 -11 CURVE SMOOTH",
"288 -11 LINE SMOOTH"
);
},
{
closed = 1;
nodes = (
"489 112 OFFCURVE",
"397 17 OFFCURVE",
"285 17 CURVE SMOOTH",
"172 17 OFFCURVE",
"77 112 OFFCURVE",
"77 224 CURVE SMOOTH",
"77 336 OFFCURVE",
"172 433 OFFCURVE",
"284 433 CURVE SMOOTH",
"396 433 OFFCURVE",
"489 337 OFFCURVE",
"489 225 CURVE SMOOTH"
);
},
{
closed = 1;
nodes = (
"250 558 OFFCURVE",
"260 567 OFFCURVE",
"260 585 CURVE SMOOTH",
"260 603 OFFCURVE",
"250 612 OFFCURVE",
"231 612 CURVE SMOOTH",
"212 612 OFFCURVE",
"202 603 OFFCURVE",
"202 585 CURVE SMOOTH",
"202 567 OFFCURVE",
"212 558 OFFCURVE",
"231 558 CURVE SMOOTH"
);
},
{
closed = 1;
nodes = (
"355 558 OFFCURVE",
"364 567 OFFCURVE",
"364 585 CURVE SMOOTH",
"364 603 OFFCURVE",
"355 612 OFFCURVE",
"337 612 CURVE SMOOTH",
"318 612 OFFCURVE",
"309 603 OFFCURVE",
"309 585 CURVE SMOOTH",
"309 567 OFFCURVE",
"318 558 OFFCURVE",
"337 558 CURVE SMOOTH"
);
}
);
width = 566;
}
);
note = odieresis;
unicode = 00F6;
},
{
glyphname = divide;
lastChange = "2016-07-05 19:32:38 +0000";
layers = (
{
layerId = "6418A72B-B7AF-4A99-B2A7-67092BA5BFD7";
paths = (
{
closed = 1;
nodes = (
"75 418 LINE",
"75 387 LINE",
"386 387 LINE",
"386 418 LINE"
);
},
{
closed = 1;
nodes = (
"257 255 OFFCURVE",
"268 265 OFFCURVE",
"268 286 CURVE SMOOTH",
"268 307 OFFCURVE",
"257 317 OFFCURVE",
"234 317 CURVE SMOOTH",
"211 317 OFFCURVE",
"199 307 OFFCURVE",
"199 286 CURVE SMOOTH",
"199 265 OFFCURVE",
"211 255 OFFCURVE",
"234 255 CURVE SMOOTH"
);
},
{
closed = 1;
nodes = (
"257 495 OFFCURVE",
"268 505 OFFCURVE",
"268 526 CURVE SMOOTH",
"268 547 OFFCURVE",
"257 557 OFFCURVE",
"234 557 CURVE SMOOTH",
"211 557 OFFCURVE",
"199 547 OFFCURVE",
"199 526 CURVE SMOOTH",
"199 505 OFFCURVE",
"211 495 OFFCURVE",
"234 495 CURVE SMOOTH"
);
}
);
width = 461;
}
);
note = divide;
unicode = 00F7;
},
{
glyphname = oslash;
lastChange = "2016-07-05 19:32:38 +0000";
layers = (
{
layerId = "6418A72B-B7AF-4A99-B2A7-67092BA5BFD7";
paths = (
{
closed = 1;
nodes = (
"428 450 LINE",
"408 423 LINE",
"369 448 OFFCURVE",
"325 461 OFFCURVE",
"278 461 CURVE SMOOTH",
"147 461 OFFCURVE",
"40 357 OFFCURVE",
"40 219 CURVE SMOOTH",
"40 150 OFFCURVE",
"69 91 OFFCURVE",
"126 44 CURVE",
"93 0 LINE",
"130 0 LINE",
"149 26 LINE",
"184 1 OFFCURVE",
"225 -11 OFFCURVE",
"270 -11 CURVE SMOOTH",
"285 -11 LINE SMOOTH",
"413 -11 OFFCURVE",
"516 98 OFFCURVE",
"516 232 CURVE SMOOTH",
"516 299 OFFCURVE",
"488 356 OFFCURVE",
"432 404 CURVE",
"467 450 LINE"
);
},
{
closed = 1;
nodes = (
"318 433 OFFCURVE",
"355 422 OFFCURVE",
"390 399 CURVE",
"144 68 LINE",
"96 111 OFFCURVE",
"72 161 OFFCURVE",
"72 220 CURVE SMOOTH",
"72 337 OFFCURVE",
"167 433 OFFCURVE",
"278 433 CURVE SMOOTH"
);
},
{
closed = 1;
nodes = (
"238 17 OFFCURVE",
"201 28 OFFCURVE",
"168 50 CURVE",
"414 380 LINE",
"461 338 OFFCURVE",
"484 288 OFFCURVE",
"484 229 CURVE SMOOTH",
"484 111 OFFCURVE",
"393 17 OFFCURVE",
"278 17 CURVE SMOOTH"
);
}
);
width = 556;
}
);
note = oslash;
unicode = 00F8;
},
{
glyphname = ugrave;
lastChange = "2016-07-05 19:32:38 +0000";
layers = (
{
layerId = "6418A72B-B7AF-4A99-B2A7-67092BA5BFD7";
paths = (
{
closed = 1;
nodes = (
"432 96 OFFCURVE",
"350 17 OFFCURVE",
"258 17 CURVE SMOOTH",
"166 17 OFFCURVE",
"92 96 OFFCURVE",
"92 188 CURVE SMOOTH",
"92 450 LINE",
"60 450 LINE",
"60 188 LINE SMOOTH",
"60 77 OFFCURVE",
"146 -11 OFFCURVE",
"258 -11 CURVE SMOOTH",
"340 -11 OFFCURVE",
"398 23 OFFCURVE",
"432 91 CURVE",
"432 0 LINE",
"464 0 LINE",
"464 450 LINE",
"432 450 LINE",
"432 188 LINE SMOOTH"
);
},
{
closed = 1;
nodes = (
"352 529 LINE",
"212 644 LINE",
"171 644 LINE",
"310 529 LINE"
);
}
);
width = 524;
}
);
note = ugrave;
unicode = 00F9;
},
{
glyphname = uacute;
lastChange = "2016-07-05 19:32:38 +0000";
layers = (
{
layerId = "6418A72B-B7AF-4A99-B2A7-67092BA5BFD7";
paths = (
{
closed = 1;
nodes = (
"432 96 OFFCURVE",
"350 17 OFFCURVE",
"258 17 CURVE SMOOTH",
"166 17 OFFCURVE",
"92 96 OFFCURVE",
"92 188 CURVE SMOOTH",
"92 450 LINE",
"60 450 LINE",
"60 188 LINE SMOOTH",
"60 77 OFFCURVE",
"146 -11 OFFCURVE",
"258 -11 CURVE SMOOTH",
"340 -11 OFFCURVE",
"398 23 OFFCURVE",
"432 91 CURVE",
"432 0 LINE",
"464 0 LINE",
"464 450 LINE",
"432 450 LINE",
"432 188 LINE SMOOTH"
);
},
{
closed = 1;
nodes = (
"213 529 LINE",
"352 644 LINE",
"311 644 LINE",
"171 529 LINE"
);
}
);
width = 524;
}
);
note = uacute;
unicode = 00FA;
},
{
glyphname = ucircumflex;
lastChange = "2016-07-05 19:32:38 +0000";
layers = (
{
layerId = "6418A72B-B7AF-4A99-B2A7-67092BA5BFD7";
paths = (
{
closed = 1;
nodes = (
"432 96 OFFCURVE",
"350 17 OFFCURVE",
"258 17 CURVE SMOOTH",
"166 17 OFFCURVE",
"92 96 OFFCURVE",
"92 188 CURVE SMOOTH",
"92 450 LINE",
"60 450 LINE",
"60 188 LINE SMOOTH",
"60 77 OFFCURVE",
"146 -11 OFFCURVE",
"258 -11 CURVE SMOOTH",
"340 -11 OFFCURVE",
"398 23 OFFCURVE",
"432 91 CURVE",
"432 0 LINE",
"464 0 LINE",
"464 450 LINE",
"432 450 LINE",
"432 188 LINE SMOOTH"
);
},
{
closed = 1;
nodes = (
"114 529 LINE",
"156 529 LINE",
"262 620 LINE",
"369 529 LINE",
"410 529 LINE",
"278 644 LINE",
"248 644 LINE"
);
}
);
width = 524;
}
);
note = ucircumflex;
unicode = 00FB;
},
{
glyphname = udieresis;
lastChange = "2016-07-05 19:32:38 +0000";
layers = (
{
layerId = "6418A72B-B7AF-4A99-B2A7-67092BA5BFD7";
paths = (
{
closed = 1;
nodes = (
"432 96 OFFCURVE",
"350 17 OFFCURVE",
"258 17 CURVE SMOOTH",
"166 17 OFFCURVE",
"92 96 OFFCURVE",
"92 188 CURVE SMOOTH",
"92 450 LINE",
"60 450 LINE",
"60 188 LINE SMOOTH",
"60 77 OFFCURVE",
"146 -11 OFFCURVE",
"258 -11 CURVE SMOOTH",
"340 -11 OFFCURVE",
"398 23 OFFCURVE",
"432 91 CURVE",
"432 0 LINE",
"464 0 LINE",
"464 450 LINE",
"432 450 LINE",
"432 188 LINE SMOOTH"
);
},
{
closed = 1;
nodes = (
"229 558 OFFCURVE",
"239 567 OFFCURVE",
"239 585 CURVE SMOOTH",
"239 603 OFFCURVE",
"229 612 OFFCURVE",
"210 612 CURVE SMOOTH",
"191 612 OFFCURVE",
"181 603 OFFCURVE",
"181 585 CURVE SMOOTH",
"181 567 OFFCURVE",
"191 558 OFFCURVE",
"210 558 CURVE SMOOTH"
);
},
{
closed = 1;
nodes = (
"334 558 OFFCURVE",
"343 567 OFFCURVE",
"343 585 CURVE SMOOTH",
"343 603 OFFCURVE",
"334 612 OFFCURVE",
"316 612 CURVE SMOOTH",
"297 612 OFFCURVE",
"288 603 OFFCURVE",
"288 585 CURVE SMOOTH",
"288 567 OFFCURVE",
"297 558 OFFCURVE",
"316 558 CURVE SMOOTH"
);
}
);
width = 524;
}
);
note = udieresis;
unicode = 00FC;
},
{
glyphname = yacute;
lastChange = "2016-07-05 19:32:38 +0000";
layers = (
{
layerId = "6418A72B-B7AF-4A99-B2A7-67092BA5BFD7";
paths = (
{
closed = 1;
nodes = (
"432 96 OFFCURVE",
"354 17 OFFCURVE",
"262 17 CURVE SMOOTH",
"170 17 OFFCURVE",
"92 96 OFFCURVE",
"92 188 CURVE SMOOTH",
"92 450 LINE",
"60 450 LINE",
"60 188 LINE SMOOTH",
"60 79 OFFCURVE",
"150 -11 OFFCURVE",
"261 -11 CURVE SMOOTH",
"342 -11 OFFCURVE",
"399 22 OFFCURVE",
"432 87 CURVE",
"432 11 LINE SMOOTH",
"432 -89 OFFCURVE",
"349 -171 OFFCURVE",
"250 -171 CURVE SMOOTH",
"183 -171 OFFCURVE",
"118 -130 OFFCURVE",
"81 -66 CURVE",
"79 -116 LINE",
"121 -171 OFFCURVE",
"178 -199 OFFCURVE",
"250 -199 CURVE SMOOTH",
"370 -199 OFFCURVE",
"464 -105 OFFCURVE",
"464 14 CURVE SMOOTH",
"464 450 LINE",
"432 450 LINE",
"432 188 LINE SMOOTH"
);
},
{
closed = 1;
nodes = (
"213 529 LINE",
"352 644 LINE",
"311 644 LINE",
"171 529 LINE"
);
}
);
width = 524;
}
);
note = yacute;
unicode = 00FD;
},
{
glyphname = thorn;
lastChange = "2016-07-05 19:32:38 +0000";
layers = (
{
layerId = "6418A72B-B7AF-4A99-B2A7-67092BA5BFD7";
paths = (
{
closed = 1;
nodes = (
"107 103 LINE",
"151 32 OFFCURVE",
"230 -12 OFFCURVE",
"311 -12 CURVE SMOOTH",
"443 -12 OFFCURVE",
"549 95 OFFCURVE",
"549 224 CURVE SMOOTH",
"549 353 OFFCURVE",
"443 460 OFFCURVE",
"311 460 CURVE SMOOTH",
"231 460 OFFCURVE",
"151 416 OFFCURVE",
"107 345 CURVE",
"107 629 LINE",
"75 629 LINE",
"75 -200 LINE",
"107 -200 LINE"
);
},
{
closed = 1;
nodes = (
"517 111 OFFCURVE",
"425 16 OFFCURVE",
"313 16 CURVE SMOOTH",
"200 16 OFFCURVE",
"105 111 OFFCURVE",
"105 224 CURVE SMOOTH",
"105 337 OFFCURVE",
"200 432 OFFCURVE",
"313 432 CURVE SMOOTH",
"425 432 OFFCURVE",
"517 337 OFFCURVE",
"517 224 CURVE SMOOTH"
);
}
);
width = 589;
}
);
note = thorn;
unicode = 00FE;
},
{
glyphname = ydieresis;
lastChange = "2016-07-05 19:32:38 +0000";
layers = (
{
layerId = "6418A72B-B7AF-4A99-B2A7-67092BA5BFD7";
paths = (
{
closed = 1;
nodes = (
"432 96 OFFCURVE",
"354 17 OFFCURVE",
"262 17 CURVE SMOOTH",
"170 17 OFFCURVE",
"92 96 OFFCURVE",
"92 188 CURVE SMOOTH",
"92 450 LINE",
"60 450 LINE",
"60 188 LINE SMOOTH",
"60 79 OFFCURVE",
"150 -11 OFFCURVE",
"261 -11 CURVE SMOOTH",
"342 -11 OFFCURVE",
"399 22 OFFCURVE",
"432 87 CURVE",
"432 11 LINE SMOOTH",
"432 -89 OFFCURVE",
"349 -171 OFFCURVE",
"250 -171 CURVE SMOOTH",
"183 -171 OFFCURVE",
"118 -130 OFFCURVE",
"81 -66 CURVE",
"79 -116 LINE",
"121 -171 OFFCURVE",
"178 -199 OFFCURVE",
"250 -199 CURVE SMOOTH",
"370 -199 OFFCURVE",
"464 -105 OFFCURVE",
"464 14 CURVE SMOOTH",
"464 450 LINE",
"432 450 LINE",
"432 188 LINE SMOOTH"
);
},
{
closed = 1;
nodes = (
"229 558 OFFCURVE",
"239 567 OFFCURVE",
"239 585 CURVE SMOOTH",
"239 603 OFFCURVE",
"229 612 OFFCURVE",
"210 612 CURVE SMOOTH",
"191 612 OFFCURVE",
"181 603 OFFCURVE",
"181 585 CURVE SMOOTH",
"181 567 OFFCURVE",
"191 558 OFFCURVE",
"210 558 CURVE SMOOTH"
);
},
{
closed = 1;
nodes = (
"334 558 OFFCURVE",
"343 567 OFFCURVE",
"343 585 CURVE SMOOTH",
"343 603 OFFCURVE",
"334 612 OFFCURVE",
"316 612 CURVE SMOOTH",
"297 612 OFFCURVE",
"288 603 OFFCURVE",
"288 585 CURVE SMOOTH",
"288 567 OFFCURVE",
"297 558 OFFCURVE",
"316 558 CURVE SMOOTH"
);
}
);
width = 524;
}
);
note = ydieresis;
unicode = 00FF;
},
{
glyphname = Amacron;
lastChange = "2016-07-05 19:32:38 +0000";
layers = (
{
layerId = "6418A72B-B7AF-4A99-B2A7-67092BA5BFD7";
paths = (
{
closed = 1;
nodes = (
"51 0 LINE",
"191 286 LINE",
"592 286 LINE",
"734 0 LINE",
"769 0 LINE",
"394 768 LINE",
"20 0 LINE"
);
},
{
closed = 1;
nodes = (
"204 315 LINE",
"391 699 LINE",
"580 315 LINE"
);
}
);
width = 789;
}
);
note = Amacron;
unicode = 0100;
},
{
glyphname = amacron;
lastChange = "2016-07-05 19:32:38 +0000";
layers = (
{
layerId = "6418A72B-B7AF-4A99-B2A7-67092BA5BFD7";
paths = (
{
closed = 1;
nodes = (
"477 337 LINE",
"446 412 OFFCURVE",
"358 461 OFFCURVE",
"273 461 CURVE SMOOTH",
"142 461 OFFCURVE",
"35 354 OFFCURVE",
"35 225 CURVE SMOOTH",
"35 96 OFFCURVE",
"142 -11 OFFCURVE",
"273 -11 CURVE SMOOTH",
"358 -11 OFFCURVE",
"440 36 OFFCURVE",
"477 112 CURVE",
"477 0 LINE",
"509 0 LINE",
"509 450 LINE",
"477 450 LINE"
);
},
{
closed = 1;
nodes = (
"67 336 OFFCURVE",
"162 433 OFFCURVE",
"274 433 CURVE SMOOTH",
"386 433 OFFCURVE",
"479 337 OFFCURVE",
"479 225 CURVE SMOOTH",
"479 112 OFFCURVE",
"387 17 OFFCURVE",
"275 17 CURVE SMOOTH",
"162 17 OFFCURVE",
"67 112 OFFCURVE",
"67 224 CURVE SMOOTH"
);
},
{
closed = 1;
nodes = (
"186 594 LINE",
"186 566 LINE",
"383 566 LINE",
"383 594 LINE"
);
}
);
width = 569;
}
);
note = amacron;
unicode = 0101;
},
{
glyphname = Abreve;
lastChange = "2016-07-05 19:32:38 +0000";
layers = (
{
layerId = "6418A72B-B7AF-4A99-B2A7-67092BA5BFD7";
paths = (
{
closed = 1;
nodes = (
"51 0 LINE",
"191 286 LINE",
"592 286 LINE",
"734 0 LINE",
"769 0 LINE",
"394 768 LINE",
"20 0 LINE"
);
},
{
closed = 1;
nodes = (
"204 315 LINE",
"391 699 LINE",
"580 315 LINE"
);
},
{
closed = 1;
nodes = (
"273 880 OFFCURVE",
"326 828 OFFCURVE",
"390 828 CURVE SMOOTH",
"398 828 LINE SMOOTH",
"462 828 OFFCURVE",
"516 881 OFFCURVE",
"519 944 CURVE",
"490 944 LINE",
"485 896 OFFCURVE",
"441 853 OFFCURVE",
"394 853 CURVE SMOOTH",
"346 853 OFFCURVE",
"301 896 OFFCURVE",
"298 944 CURVE",
"270 944 LINE"
);
}
);
width = 789;
}
);
note = Abreve;
unicode = 0102;
},
{
glyphname = abreve;
lastChange = "2016-07-05 19:32:38 +0000";
layers = (
{
layerId = "6418A72B-B7AF-4A99-B2A7-67092BA5BFD7";
paths = (
{
closed = 1;
nodes = (
"477 337 LINE",
"446 412 OFFCURVE",
"358 461 OFFCURVE",
"273 461 CURVE SMOOTH",
"142 461 OFFCURVE",
"35 354 OFFCURVE",
"35 225 CURVE SMOOTH",
"35 96 OFFCURVE",
"142 -11 OFFCURVE",
"273 -11 CURVE SMOOTH",
"358 -11 OFFCURVE",
"440 36 OFFCURVE",
"477 112 CURVE",
"477 0 LINE",
"509 0 LINE",
"509 450 LINE",
"477 450 LINE"
);
},
{
closed = 1;
nodes = (
"67 336 OFFCURVE",
"162 433 OFFCURVE",
"274 433 CURVE SMOOTH",
"386 433 OFFCURVE",
"479 337 OFFCURVE",
"479 225 CURVE SMOOTH",
"479 112 OFFCURVE",
"387 17 OFFCURVE",
"275 17 CURVE SMOOTH",
"162 17 OFFCURVE",
"67 112 OFFCURVE",
"67 224 CURVE SMOOTH"
);
},
{
closed = 1;
nodes = (
"163 580 OFFCURVE",
"216 528 OFFCURVE",
"280 528 CURVE SMOOTH",
"288 528 LINE SMOOTH",
"352 528 OFFCURVE",
"406 581 OFFCURVE",
"409 644 CURVE",
"380 644 LINE",
"375 596 OFFCURVE",
"331 553 OFFCURVE",
"284 553 CURVE SMOOTH",
"236 553 OFFCURVE",
"191 596 OFFCURVE",
"188 644 CURVE",
"160 644 LINE"
);
}
);
width = 569;
}
);
note = abreve;
unicode = 0103;
},
{
glyphname = Aogonek;
lastChange = "2016-07-05 19:32:38 +0000";
layers = (
{
layerId = "6418A72B-B7AF-4A99-B2A7-67092BA5BFD7";
paths = (
{
closed = 1;
nodes = (
"705 -175 OFFCURVE",
"689 -154 OFFCURVE",
"689 -125 CURVE",
"769 0 LINE",
"394 768 LINE",
"20 0 LINE",
"51 0 LINE",
"191 286 LINE",
"592 286 LINE",
"734 0 LINE",
"654 -123 LINE",
"654 -130 LINE SMOOTH",
"654 -170 OFFCURVE",
"685 -200 OFFCURVE",
"729 -200 CURVE SMOOTH",
"769 -200 LINE",
"769 -175 LINE",
"734 -175 LINE SMOOTH"
);
},
{
closed = 1;
nodes = (
"204 315 LINE",
"391 699 LINE",
"580 315 LINE"
);
}
);
width = 789;
}
);
note = Aogonek;
unicode = 0104;
},
{
glyphname = aogonek;
lastChange = "2016-07-05 19:32:38 +0000";
layers = (
{
layerId = "6418A72B-B7AF-4A99-B2A7-67092BA5BFD7";
paths = (
{
closed = 1;
nodes = (
"477 337 LINE",
"446 412 OFFCURVE",
"358 461 OFFCURVE",
"273 461 CURVE SMOOTH",
"142 461 OFFCURVE",
"35 354 OFFCURVE",
"35 225 CURVE SMOOTH",
"35 96 OFFCURVE",
"142 -11 OFFCURVE",
"273 -11 CURVE SMOOTH",
"358 -11 OFFCURVE",
"440 36 OFFCURVE",
"477 112 CURVE",
"477 0 LINE",
"480 0 LINE",
"394 -123 LINE",
"394 -130 LINE SMOOTH",
"394 -170 OFFCURVE",
"425 -200 OFFCURVE",
"469 -200 CURVE SMOOTH",
"509 -200 LINE",
"509 -175 LINE",
"471 -175 LINE SMOOTH",
"440 -175 OFFCURVE",
"421 -153 OFFCURVE",
"421 -125 CURVE",
"508 0 LINE",
"509 0 LINE",
"509 450 LINE",
"477 450 LINE"
);
},
{
closed = 1;
nodes = (
"67 336 OFFCURVE",
"162 433 OFFCURVE",
"274 433 CURVE SMOOTH",
"386 433 OFFCURVE",
"479 337 OFFCURVE",
"479 225 CURVE SMOOTH",
"479 112 OFFCURVE",
"387 17 OFFCURVE",
"275 17 CURVE SMOOTH",
"162 17 OFFCURVE",
"67 112 OFFCURVE",
"67 224 CURVE SMOOTH"
);
}
);
width = 569;
}
);
note = aogonek;
unicode = 0105;
},
{
glyphname = Cacute;
lastChange = "2016-07-05 19:32:38 +0000";
layers = (
{
layerId = "6418A72B-B7AF-4A99-B2A7-67092BA5BFD7";
paths = (
{
closed = 1;
nodes = (
"511 -11 OFFCURVE",
"577 8 OFFCURVE",
"638 45 CURVE",
"638 82 LINE",
"575 39 OFFCURVE",
"508 18 OFFCURVE",
"435 18 CURVE SMOOTH",
"239 18 OFFCURVE",
"78 181 OFFCURVE",
"78 378 CURVE SMOOTH",
"78 574 OFFCURVE",
"239 736 OFFCURVE",
"435 736 CURVE SMOOTH",
"508 736 OFFCURVE",
"575 715 OFFCURVE",
"638 672 CURVE",
"638 709 LINE",
"574 746 OFFCURVE",
"506 765 OFFCURVE",
"435 765 CURVE SMOOTH",
"222 765 OFFCURVE",
"45 589 OFFCURVE",
"45 377 CURVE SMOOTH",
"45 310 OFFCURVE",
"62 246 OFFCURVE",
"97 187 CURVE SMOOTH",
"165 67 OFFCURVE",
"292 -11 OFFCURVE",
"429 -11 CURVE SMOOTH",
"440 -11 LINE SMOOTH"
);
},
{
closed = 1;
nodes = (
"385 829 LINE",
"524 944 LINE",
"483 944 LINE",
"343 829 LINE"
);
}
);
width = 698;
}
);
note = Cacute;
unicode = 0106;
},
{
glyphname = cacute;
lastChange = "2016-07-05 19:32:38 +0000";
layers = (
{
layerId = "6418A72B-B7AF-4A99-B2A7-67092BA5BFD7";
paths = (
{
closed = 1;
nodes = (
"347 -13 OFFCURVE",
"404 13 OFFCURVE",
"451 64 CURVE",
"451 116 LINE",
"410 53 OFFCURVE",
"342 15 OFFCURVE",
"273 15 CURVE SMOOTH",
"162 15 OFFCURVE",
"67 110 OFFCURVE",
"67 223 CURVE SMOOTH",
"67 336 OFFCURVE",
"162 431 OFFCURVE",
"273 431 CURVE SMOOTH",
"342 431 OFFCURVE",
"410 392 OFFCURVE",
"451 331 CURVE",
"451 382 LINE",
"403 433 OFFCURVE",
"345 459 OFFCURVE",
"277 459 CURVE SMOOTH",
"141 459 OFFCURVE",
"35 352 OFFCURVE",
"35 225 CURVE SMOOTH",
"35 97 OFFCURVE",
"141 -13 OFFCURVE",
"269 -13 CURVE SMOOTH",
"278 -13 LINE SMOOTH"
);
},
{
closed = 1;
nodes = (
"189 529 LINE",
"328 644 LINE",
"287 644 LINE",
"147 529 LINE"
);
}
);
width = 476;
}
);
note = cacute;
unicode = 0107;
},
{
glyphname = Ccircumflex;
lastChange = "2016-07-05 19:32:38 +0000";
layers = (
{
layerId = "6418A72B-B7AF-4A99-B2A7-67092BA5BFD7";
paths = (
{
closed = 1;
nodes = (
"511 -11 OFFCURVE",
"577 8 OFFCURVE",
"638 45 CURVE",
"638 82 LINE",
"575 39 OFFCURVE",
"508 18 OFFCURVE",
"435 18 CURVE SMOOTH",
"239 18 OFFCURVE",
"78 181 OFFCURVE",
"78 378 CURVE SMOOTH",
"78 574 OFFCURVE",
"239 736 OFFCURVE",
"435 736 CURVE SMOOTH",
"508 736 OFFCURVE",
"575 715 OFFCURVE",
"638 672 CURVE",
"638 709 LINE",
"574 746 OFFCURVE",
"506 765 OFFCURVE",
"435 765 CURVE SMOOTH",
"222 765 OFFCURVE",
"45 589 OFFCURVE",
"45 377 CURVE SMOOTH",
"45 310 OFFCURVE",
"62 246 OFFCURVE",
"97 187 CURVE SMOOTH",
"165 67 OFFCURVE",
"292 -11 OFFCURVE",
"429 -11 CURVE SMOOTH",
"440 -11 LINE SMOOTH"
);
},
{
closed = 1;
nodes = (
"288 829 LINE",
"330 829 LINE",
"436 920 LINE",
"543 829 LINE",
"584 829 LINE",
"452 944 LINE",
"422 944 LINE"
);
}
);
width = 698;
}
);
note = Ccircumflex;
unicode = 0108;
},
{
glyphname = ccircumflex;
lastChange = "2016-07-05 19:32:38 +0000";
layers = (
{
layerId = "6418A72B-B7AF-4A99-B2A7-67092BA5BFD7";
paths = (
{
closed = 1;
nodes = (
"347 -13 OFFCURVE",
"404 13 OFFCURVE",
"451 64 CURVE",
"451 116 LINE",
"410 53 OFFCURVE",
"342 15 OFFCURVE",
"273 15 CURVE SMOOTH",
"162 15 OFFCURVE",
"67 110 OFFCURVE",
"67 223 CURVE SMOOTH",
"67 336 OFFCURVE",
"162 431 OFFCURVE",
"273 431 CURVE SMOOTH",
"342 431 OFFCURVE",
"410 392 OFFCURVE",
"451 331 CURVE",
"451 382 LINE",
"403 433 OFFCURVE",
"345 459 OFFCURVE",
"277 459 CURVE SMOOTH",
"141 459 OFFCURVE",
"35 352 OFFCURVE",
"35 225 CURVE SMOOTH",
"35 97 OFFCURVE",
"141 -13 OFFCURVE",
"269 -13 CURVE SMOOTH",
"278 -13 LINE SMOOTH"
);
},
{
closed = 1;
nodes = (
"129 529 LINE",
"171 529 LINE",
"277 620 LINE",
"384 529 LINE",
"425 529 LINE",
"293 644 LINE",
"263 644 LINE"
);
}
);
width = 476;
}
);
note = ccircumflex;
unicode = 0109;
},
{
glyphname = Cdotaccent;
lastChange = "2016-07-05 19:32:38 +0000";
layers = (
{
layerId = "6418A72B-B7AF-4A99-B2A7-67092BA5BFD7";
paths = (
{
closed = 1;
nodes = (
"511 -11 OFFCURVE",
"577 8 OFFCURVE",
"638 45 CURVE",
"638 82 LINE",
"575 39 OFFCURVE",
"508 18 OFFCURVE",
"435 18 CURVE SMOOTH",
"239 18 OFFCURVE",
"78 181 OFFCURVE",
"78 378 CURVE SMOOTH",
"78 574 OFFCURVE",
"239 736 OFFCURVE",
"435 736 CURVE SMOOTH",
"508 736 OFFCURVE",
"575 715 OFFCURVE",
"638 672 CURVE",
"638 709 LINE",
"574 746 OFFCURVE",
"506 765 OFFCURVE",
"435 765 CURVE SMOOTH",
"222 765 OFFCURVE",
"45 589 OFFCURVE",
"45 377 CURVE SMOOTH",
"45 310 OFFCURVE",
"62 246 OFFCURVE",
"97 187 CURVE SMOOTH",
"165 67 OFFCURVE",
"292 -11 OFFCURVE",
"429 -11 CURVE SMOOTH",
"440 -11 LINE SMOOTH"
);
},
{
closed = 1;
nodes = (
"458 859 OFFCURVE",
"468 868 OFFCURVE",
"468 886 CURVE SMOOTH",
"468 904 OFFCURVE",
"458 913 OFFCURVE",
"439 913 CURVE SMOOTH",
"420 913 OFFCURVE",
"410 904 OFFCURVE",
"410 886 CURVE SMOOTH",
"410 868 OFFCURVE",
"420 859 OFFCURVE",
"439 859 CURVE SMOOTH"
);
}
);
width = 698;
}
);
note = Cdotaccent;
unicode = 010A;
},
{
glyphname = cdotaccent;
lastChange = "2016-07-05 19:32:38 +0000";
layers = (
{
layerId = "6418A72B-B7AF-4A99-B2A7-67092BA5BFD7";
paths = (
{
closed = 1;
nodes = (
"347 -13 OFFCURVE",
"404 13 OFFCURVE",
"451 64 CURVE",
"451 116 LINE",
"410 53 OFFCURVE",
"342 15 OFFCURVE",
"273 15 CURVE SMOOTH",
"162 15 OFFCURVE",
"67 110 OFFCURVE",
"67 223 CURVE SMOOTH",
"67 336 OFFCURVE",
"162 431 OFFCURVE",
"273 431 CURVE SMOOTH",
"342 431 OFFCURVE",
"410 392 OFFCURVE",
"451 331 CURVE",
"451 382 LINE",
"403 433 OFFCURVE",
"345 459 OFFCURVE",
"277 459 CURVE SMOOTH",
"141 459 OFFCURVE",
"35 352 OFFCURVE",
"35 225 CURVE SMOOTH",
"35 97 OFFCURVE",
"141 -13 OFFCURVE",
"269 -13 CURVE SMOOTH",
"278 -13 LINE SMOOTH"
);
},
{
closed = 1;
nodes = (
"289 559 OFFCURVE",
"299 568 OFFCURVE",
"299 586 CURVE SMOOTH",
"299 604 OFFCURVE",
"289 613 OFFCURVE",
"270 613 CURVE SMOOTH",
"251 613 OFFCURVE",
"241 604 OFFCURVE",
"241 586 CURVE SMOOTH",
"241 568 OFFCURVE",
"251 559 OFFCURVE",
"270 559 CURVE SMOOTH"
);
}
);
width = 476;
}
);
note = cdotaccent;
unicode = 010B;
},
{
glyphname = Ccaron;
lastChange = "2016-07-05 19:32:38 +0000";
layers = (
{
layerId = "6418A72B-B7AF-4A99-B2A7-67092BA5BFD7";
paths = (
{
closed = 1;
nodes = (
"511 -11 OFFCURVE",
"577 8 OFFCURVE",
"638 45 CURVE",
"638 82 LINE",
"575 39 OFFCURVE",
"508 18 OFFCURVE",
"435 18 CURVE SMOOTH",
"239 18 OFFCURVE",
"78 181 OFFCURVE",
"78 378 CURVE SMOOTH",
"78 574 OFFCURVE",
"239 736 OFFCURVE",
"435 736 CURVE SMOOTH",
"508 736 OFFCURVE",
"575 715 OFFCURVE",
"638 672 CURVE",
"638 709 LINE",
"574 746 OFFCURVE",
"506 765 OFFCURVE",
"435 765 CURVE SMOOTH",
"222 765 OFFCURVE",
"45 589 OFFCURVE",
"45 377 CURVE SMOOTH",
"45 310 OFFCURVE",
"62 246 OFFCURVE",
"97 187 CURVE SMOOTH",
"165 67 OFFCURVE",
"292 -11 OFFCURVE",
"429 -11 CURVE SMOOTH",
"440 -11 LINE SMOOTH"
);
},
{
closed = 1;
nodes = (
"433 853 LINE",
"327 944 LINE",
"285 944 LINE",
"419 829 LINE",
"449 829 LINE",
"581 944 LINE",
"540 944 LINE"
);
}
);
width = 698;
}
);
note = Ccaron;
unicode = 010C;
},
{
glyphname = ccaron;
lastChange = "2016-07-05 19:32:38 +0000";
layers = (
{
layerId = "6418A72B-B7AF-4A99-B2A7-67092BA5BFD7";
paths = (
{
closed = 1;
nodes = (
"347 -13 OFFCURVE",
"404 13 OFFCURVE",
"451 64 CURVE",
"451 116 LINE",
"410 53 OFFCURVE",
"342 15 OFFCURVE",
"273 15 CURVE SMOOTH",
"162 15 OFFCURVE",
"67 110 OFFCURVE",
"67 223 CURVE SMOOTH",
"67 336 OFFCURVE",
"162 431 OFFCURVE",
"273 431 CURVE SMOOTH",
"342 431 OFFCURVE",
"410 392 OFFCURVE",
"451 331 CURVE",
"451 382 LINE",
"403 433 OFFCURVE",
"345 459 OFFCURVE",
"277 459 CURVE SMOOTH",
"141 459 OFFCURVE",
"35 352 OFFCURVE",
"35 225 CURVE SMOOTH",
"35 97 OFFCURVE",
"141 -13 OFFCURVE",
"269 -13 CURVE SMOOTH",
"278 -13 LINE SMOOTH"
);
},
{
closed = 1;
nodes = (
"277 553 LINE",
"171 644 LINE",
"129 644 LINE",
"263 529 LINE",
"293 529 LINE",
"425 644 LINE",
"384 644 LINE"
);
}
);
width = 476;
}
);
note = ccaron;
unicode = 010D;
},
{
glyphname = Dcaron;
lastChange = "2016-07-05 19:32:38 +0000";
layers = (
{
layerId = "6418A72B-B7AF-4A99-B2A7-67092BA5BFD7";
paths = (
{
closed = 1;
nodes = (
"107 0 LINE SMOOTH",
"332 0 OFFCURVE",
"481 169 OFFCURVE",
"481 375 CURVE SMOOTH",
"481 581 OFFCURVE",
"331 750 OFFCURVE",
"107 750 CURVE SMOOTH",
"75 750 LINE",
"75 0 LINE"
);
},
{
closed = 1;
nodes = (
"310 720 OFFCURVE",
"448 563 OFFCURVE",
"448 375 CURVE SMOOTH",
"448 186 OFFCURVE",
"310 31 OFFCURVE",
"115 31 CURVE SMOOTH",
"107 31 LINE",
"107 720 LINE",
"115 720 LINE SMOOTH"
);
},
{
closed = 1;
nodes = (
"205 853 LINE",
"99 944 LINE",
"57 944 LINE",
"191 829 LINE",
"221 829 LINE",
"353 944 LINE",
"312 944 LINE"
);
}
);
width = 526;
}
);
note = Dcaron;
unicode = 010E;
},
{
glyphname = dcaron;
lastChange = "2016-07-05 19:32:38 +0000";
layers = (
{
layerId = "6418A72B-B7AF-4A99-B2A7-67092BA5BFD7";
paths = (
{
closed = 1;
nodes = (
"477 340 LINE",
"441 413 OFFCURVE",
"356 461 OFFCURVE",
"273 461 CURVE SMOOTH",
"141 461 OFFCURVE",
"35 354 OFFCURVE",
"35 225 CURVE SMOOTH",
"35 96 OFFCURVE",
"141 -11 OFFCURVE",
"273 -11 CURVE SMOOTH",
"353 -11 OFFCURVE",
"437 36 OFFCURVE",
"477 109 CURVE",
"477 0 LINE",
"509 0 LINE",
"509 750 LINE",
"477 750 LINE"
);
},
{
closed = 1;
nodes = (
"67 337 OFFCURVE",
"160 433 OFFCURVE",
"272 433 CURVE SMOOTH",
"384 433 OFFCURVE",
"479 336 OFFCURVE",
"479 224 CURVE SMOOTH",
"479 112 OFFCURVE",
"384 17 OFFCURVE",
"272 17 CURVE SMOOTH",
"159 17 OFFCURVE",
"67 112 OFFCURVE",
"67 225 CURVE SMOOTH"
);
},
{
closed = 1;
nodes = (
"625 704 LINE",
"627 710 OFFCURVE",
"628 715 OFFCURVE",
"628 720 CURVE SMOOTH",
"628 741 OFFCURVE",
"617 751 OFFCURVE",
"594 751 CURVE SMOOTH",
"571 751 OFFCURVE",
"559 741 OFFCURVE",
"559 720 CURVE SMOOTH",
"559 699 OFFCURVE",
"569 689 OFFCURVE",
"590 689 CURVE",
"590 633 LINE",
"594 633 LINE"
);
}
);
width = 645;
}
);
note = dcaron;
unicode = 010F;
},
{
glyphname = Dcroat;
lastChange = "2016-07-05 19:32:38 +0000";
layers = (
{
layerId = "6418A72B-B7AF-4A99-B2A7-67092BA5BFD7";
paths = (
{
closed = 1;
nodes = (
"15 390 LINE",
"15 361 LINE",
"75 361 LINE",
"75 0 LINE",
"107 0 LINE SMOOTH",
"332 0 OFFCURVE",
"481 169 OFFCURVE",
"481 375 CURVE SMOOTH",
"481 581 OFFCURVE",
"331 750 OFFCURVE",
"107 750 CURVE SMOOTH",
"75 750 LINE",
"75 390 LINE"
);
},
{
closed = 1;
nodes = (
"310 720 OFFCURVE",
"448 563 OFFCURVE",
"448 375 CURVE SMOOTH",
"448 186 OFFCURVE",
"310 31 OFFCURVE",
"115 31 CURVE SMOOTH",
"107 31 LINE",
"107 361 LINE",
"231 361 LINE",
"231 390 LINE",
"107 390 LINE",
"107 720 LINE",
"115 720 LINE SMOOTH"
);
}
);
width = 526;
}
);
note = Dcroat;
unicode = 0110;
},
{
glyphname = dcroat;
lastChange = "2016-07-05 19:32:38 +0000";
layers = (
{
layerId = "6418A72B-B7AF-4A99-B2A7-67092BA5BFD7";
paths = (
{
closed = 1;
nodes = (
"477 595 LINE",
"360 595 LINE",
"360 566 LINE",
"477 566 LINE",
"477 340 LINE",
"441 413 OFFCURVE",
"356 461 OFFCURVE",
"273 461 CURVE SMOOTH",
"141 461 OFFCURVE",
"35 354 OFFCURVE",
"35 225 CURVE SMOOTH",
"35 96 OFFCURVE",
"141 -11 OFFCURVE",
"273 -11 CURVE SMOOTH",
"353 -11 OFFCURVE",
"437 36 OFFCURVE",
"477 109 CURVE",
"477 0 LINE",
"509 0 LINE",
"509 566 LINE",
"576 566 LINE",
"576 595 LINE",
"509 595 LINE",
"509 750 LINE",
"477 750 LINE"
);
},
{
closed = 1;
nodes = (
"67 337 OFFCURVE",
"160 433 OFFCURVE",
"272 433 CURVE SMOOTH",
"384 433 OFFCURVE",
"479 336 OFFCURVE",
"479 224 CURVE SMOOTH",
"479 112 OFFCURVE",
"384 17 OFFCURVE",
"272 17 CURVE SMOOTH",
"159 17 OFFCURVE",
"67 112 OFFCURVE",
"67 225 CURVE SMOOTH"
);
}
);
width = 595;
}
);
note = dcroat;
unicode = 0111;
},
{
glyphname = Emacron;
lastChange = "2016-07-05 19:32:38 +0000";
layers = (
{
layerId = "6418A72B-B7AF-4A99-B2A7-67092BA5BFD7";
paths = (
{
closed = 1;
nodes = (
"344 0 LINE",
"344 29 LINE",
"108 29 LINE",
"108 284 LINE",
"305 284 LINE",
"305 313 LINE",
"108 313 LINE",
"108 721 LINE",
"344 721 LINE",
"344 750 LINE",
"75 750 LINE",
"75 0 LINE"
);
}
);
width = 369;
}
);
note = Emacron;
unicode = 0112;
},
{
glyphname = emacron;
lastChange = "2016-07-05 19:32:38 +0000";
layers = (
{
layerId = "6418A72B-B7AF-4A99-B2A7-67092BA5BFD7";
paths = (
{
closed = 1;
nodes = (
"352 -12 OFFCURVE",
"410 14 OFFCURVE",
"457 66 CURVE",
"457 117 LINE",
"416 56 OFFCURVE",
"351 16 OFFCURVE",
"271 16 CURVE SMOOTH",
"231 16 OFFCURVE",
"189 33 OFFCURVE",
"146 68 CURVE",
"460 378 LINE",
"411 433 OFFCURVE",
"352 460 OFFCURVE",
"283 460 CURVE SMOOTH",
"146 460 OFFCURVE",
"40 353 OFFCURVE",
"40 226 CURVE SMOOTH",
"40 99 OFFCURVE",
"149 -12 OFFCURVE",
"276 -12 CURVE SMOOTH",
"285 -12 LINE SMOOTH"
);
},
{
closed = 1;
nodes = (
"328 432 OFFCURVE",
"375 414 OFFCURVE",
"416 378 CURVE",
"125 89 LINE",
"90 129 OFFCURVE",
"72 176 OFFCURVE",
"72 229 CURVE SMOOTH",
"72 336 OFFCURVE",
"169 432 OFFCURVE",
"275 432 CURVE SMOOTH"
);
},
{
closed = 1;
nodes = (
"149 594 LINE",
"149 566 LINE",
"346 566 LINE",
"346 594 LINE"
);
}
);
width = 495;
}
);
note = emacron;
unicode = 0113;
},
{
glyphname = Ebreve;
lastChange = "2016-07-05 19:32:38 +0000";
layers = (
{
layerId = "6418A72B-B7AF-4A99-B2A7-67092BA5BFD7";
paths = (
{
closed = 1;
nodes = (
"344 0 LINE",
"344 29 LINE",
"108 29 LINE",
"108 284 LINE",
"305 284 LINE",
"305 313 LINE",
"108 313 LINE",
"108 721 LINE",
"344 721 LINE",
"344 750 LINE",
"75 750 LINE",
"75 0 LINE"
);
},
{
closed = 1;
nodes = (
"89 880 OFFCURVE",
"142 828 OFFCURVE",
"206 828 CURVE SMOOTH",
"214 828 LINE SMOOTH",
"278 828 OFFCURVE",
"332 881 OFFCURVE",
"335 944 CURVE",
"306 944 LINE",
"301 896 OFFCURVE",
"257 853 OFFCURVE",
"210 853 CURVE SMOOTH",
"162 853 OFFCURVE",
"117 896 OFFCURVE",
"114 944 CURVE",
"86 944 LINE"
);
}
);
width = 369;
}
);
note = Ebreve;
unicode = 0114;
},
{
glyphname = ebreve;
lastChange = "2016-07-05 19:32:38 +0000";
layers = (
{
layerId = "6418A72B-B7AF-4A99-B2A7-67092BA5BFD7";
paths = (
{
closed = 1;
nodes = (
"352 -12 OFFCURVE",
"410 14 OFFCURVE",
"457 66 CURVE",
"457 117 LINE",
"416 56 OFFCURVE",
"351 16 OFFCURVE",
"271 16 CURVE SMOOTH",
"231 16 OFFCURVE",
"189 33 OFFCURVE",
"146 68 CURVE",
"460 378 LINE",
"411 433 OFFCURVE",
"352 460 OFFCURVE",
"283 460 CURVE SMOOTH",
"146 460 OFFCURVE",
"40 353 OFFCURVE",
"40 226 CURVE SMOOTH",
"40 99 OFFCURVE",
"149 -12 OFFCURVE",
"276 -12 CURVE SMOOTH",
"285 -12 LINE SMOOTH"
);
},
{
closed = 1;
nodes = (
"328 432 OFFCURVE",
"375 414 OFFCURVE",
"416 378 CURVE",
"125 89 LINE",
"90 129 OFFCURVE",
"72 176 OFFCURVE",
"72 229 CURVE SMOOTH",
"72 336 OFFCURVE",
"169 432 OFFCURVE",
"275 432 CURVE SMOOTH"
);
},
{
closed = 1;
nodes = (
"126 580 OFFCURVE",
"179 528 OFFCURVE",
"243 528 CURVE SMOOTH",
"251 528 LINE SMOOTH",
"315 528 OFFCURVE",
"369 581 OFFCURVE",
"372 644 CURVE",
"343 644 LINE",
"338 596 OFFCURVE",
"294 553 OFFCURVE",
"247 553 CURVE SMOOTH",
"199 553 OFFCURVE",
"154 596 OFFCURVE",
"151 644 CURVE",
"123 644 LINE"
);
}
);
width = 495;
}
);
note = ebreve;
unicode = 0115;
},
{
glyphname = Edotaccent;
lastChange = "2016-07-05 19:32:38 +0000";
layers = (
{
layerId = "6418A72B-B7AF-4A99-B2A7-67092BA5BFD7";
paths = (
{
closed = 1;
nodes = (
"344 0 LINE",
"344 29 LINE",
"108 29 LINE",
"108 284 LINE",
"305 284 LINE",
"305 313 LINE",
"108 313 LINE",
"108 721 LINE",
"344 721 LINE",
"344 750 LINE",
"75 750 LINE",
"75 0 LINE"
);
},
{
closed = 1;
nodes = (
"232 859 OFFCURVE",
"242 868 OFFCURVE",
"242 886 CURVE SMOOTH",
"242 904 OFFCURVE",
"232 913 OFFCURVE",
"213 913 CURVE SMOOTH",
"194 913 OFFCURVE",
"184 904 OFFCURVE",
"184 886 CURVE SMOOTH",
"184 868 OFFCURVE",
"194 859 OFFCURVE",
"213 859 CURVE SMOOTH"
);
}
);
width = 369;
}
);
note = Edotaccent;
unicode = 0116;
},
{
glyphname = edotaccent;
lastChange = "2016-07-05 19:32:38 +0000";
layers = (
{
layerId = "6418A72B-B7AF-4A99-B2A7-67092BA5BFD7";
paths = (
{
closed = 1;
nodes = (
"352 -12 OFFCURVE",
"410 14 OFFCURVE",
"457 66 CURVE",
"457 117 LINE",
"416 56 OFFCURVE",
"351 16 OFFCURVE",
"271 16 CURVE SMOOTH",
"231 16 OFFCURVE",
"189 33 OFFCURVE",
"146 68 CURVE",
"460 378 LINE",
"411 433 OFFCURVE",
"352 460 OFFCURVE",
"283 460 CURVE SMOOTH",
"146 460 OFFCURVE",
"40 353 OFFCURVE",
"40 226 CURVE SMOOTH",
"40 99 OFFCURVE",
"149 -12 OFFCURVE",
"276 -12 CURVE SMOOTH",
"285 -12 LINE SMOOTH"
);
},
{
closed = 1;
nodes = (
"328 432 OFFCURVE",
"375 414 OFFCURVE",
"416 378 CURVE",
"125 89 LINE",
"90 129 OFFCURVE",
"72 176 OFFCURVE",
"72 229 CURVE SMOOTH",
"72 336 OFFCURVE",
"169 432 OFFCURVE",
"275 432 CURVE SMOOTH"
);
},
{
closed = 1;
nodes = (
"266 559 OFFCURVE",
"276 568 OFFCURVE",
"276 586 CURVE SMOOTH",
"276 604 OFFCURVE",
"266 613 OFFCURVE",
"247 613 CURVE SMOOTH",
"228 613 OFFCURVE",
"218 604 OFFCURVE",
"218 586 CURVE SMOOTH",
"218 568 OFFCURVE",
"228 559 OFFCURVE",
"247 559 CURVE SMOOTH"
);
}
);
width = 495;
}
);
note = edotaccent;
unicode = 0117;
},
{
glyphname = Eogonek;
lastChange = "2016-07-05 19:32:38 +0000";
layers = (
{
layerId = "6418A72B-B7AF-4A99-B2A7-67092BA5BFD7";
paths = (
{
closed = 1;
nodes = (
"315 0 LINE",
"229 -123 LINE",
"229 -130 LINE SMOOTH",
"229 -170 OFFCURVE",
"260 -200 OFFCURVE",
"304 -200 CURVE SMOOTH",
"344 -200 LINE",
"344 -175 LINE",
"306 -175 LINE SMOOTH",
"275 -175 OFFCURVE",
"256 -153 OFFCURVE",
"256 -125 CURVE",
"343 0 LINE",
"343 29 LINE",
"108 29 LINE",
"108 284 LINE",
"305 284 LINE",
"305 313 LINE",
"108 313 LINE",
"108 721 LINE",
"344 721 LINE",
"344 750 LINE",
"75 750 LINE",
"75 0 LINE"
);
}
);
width = 369;
}
);
note = Eogonek;
unicode = 0118;
},
{
glyphname = eogonek;
lastChange = "2016-07-05 19:32:38 +0000";
layers = (
{
layerId = "6418A72B-B7AF-4A99-B2A7-67092BA5BFD7";
paths = (
{
closed = 1;
nodes = (
"213 -130 LINE SMOOTH",
"213 -170 OFFCURVE",
"244 -200 OFFCURVE",
"288 -200 CURVE SMOOTH",
"328 -200 LINE",
"328 -175 LINE",
"290 -175 LINE SMOOTH",
"259 -175 OFFCURVE",
"240 -153 OFFCURVE",
"240 -125 CURVE",
"320 -9 LINE",
"373 -2 OFFCURVE",
"419 23 OFFCURVE",
"457 66 CURVE",
"457 117 LINE",
"416 56 OFFCURVE",
"351 16 OFFCURVE",
"271 16 CURVE SMOOTH",
"231 16 OFFCURVE",
"189 33 OFFCURVE",
"146 68 CURVE",
"460 378 LINE",
"411 433 OFFCURVE",
"352 460 OFFCURVE",
"283 460 CURVE SMOOTH",
"146 460 OFFCURVE",
"40 353 OFFCURVE",
"40 226 CURVE SMOOTH",
"40 99 OFFCURVE",
"149 -12 OFFCURVE",
"276 -12 CURVE SMOOTH",
"290 -12 LINE",
"213 -123 LINE"
);
},
{
closed = 1;
nodes = (
"328 432 OFFCURVE",
"375 414 OFFCURVE",
"416 378 CURVE",
"125 89 LINE",
"90 129 OFFCURVE",
"72 176 OFFCURVE",
"72 229 CURVE SMOOTH",
"72 336 OFFCURVE",
"169 432 OFFCURVE",
"275 432 CURVE SMOOTH"
);
}
);
width = 495;
}
);
note = eogonek;
unicode = 0119;
},
{
glyphname = Ecaron;
lastChange = "2016-07-05 19:32:38 +0000";
layers = (
{
layerId = "6418A72B-B7AF-4A99-B2A7-67092BA5BFD7";
paths = (
{
closed = 1;
nodes = (
"344 0 LINE",
"344 29 LINE",
"108 29 LINE",
"108 284 LINE",
"305 284 LINE",
"305 313 LINE",
"108 313 LINE",
"108 721 LINE",
"344 721 LINE",
"344 750 LINE",
"75 750 LINE",
"75 0 LINE"
);
},
{
closed = 1;
nodes = (
"211 853 LINE",
"105 944 LINE",
"63 944 LINE",
"197 829 LINE",
"227 829 LINE",
"359 944 LINE",
"318 944 LINE"
);
}
);
width = 369;
}
);
note = Ecaron;
unicode = 011A;
},
{
glyphname = ecaron;
lastChange = "2016-07-05 19:32:38 +0000";
layers = (
{
layerId = "6418A72B-B7AF-4A99-B2A7-67092BA5BFD7";
paths = (
{
closed = 1;
nodes = (
"352 -12 OFFCURVE",
"410 14 OFFCURVE",
"457 66 CURVE",
"457 117 LINE",
"416 56 OFFCURVE",
"351 16 OFFCURVE",
"271 16 CURVE SMOOTH",
"231 16 OFFCURVE",
"189 33 OFFCURVE",
"146 68 CURVE",
"460 378 LINE",
"411 433 OFFCURVE",
"352 460 OFFCURVE",
"283 460 CURVE SMOOTH",
"146 460 OFFCURVE",
"40 353 OFFCURVE",
"40 226 CURVE SMOOTH",
"40 99 OFFCURVE",
"149 -12 OFFCURVE",
"276 -12 CURVE SMOOTH",
"285 -12 LINE SMOOTH"
);
},
{
closed = 1;
nodes = (
"328 432 OFFCURVE",
"375 414 OFFCURVE",
"416 378 CURVE",
"125 89 LINE",
"90 129 OFFCURVE",
"72 176 OFFCURVE",
"72 229 CURVE SMOOTH",
"72 336 OFFCURVE",
"169 432 OFFCURVE",
"275 432 CURVE SMOOTH"
);
},
{
closed = 1;
nodes = (
"247 553 LINE",
"141 644 LINE",
"99 644 LINE",
"233 529 LINE",
"263 529 LINE",
"395 644 LINE",
"354 644 LINE"
);
}
);
width = 495;
}
);
note = ecaron;
unicode = 011B;
},
{
glyphname = Gcircumflex;
lastChange = "2016-07-05 19:32:38 +0000";
layers = (
{
layerId = "6418A72B-B7AF-4A99-B2A7-67092BA5BFD7";
paths = (
{
closed = 1;
nodes = (
"605 60 LINE",
"546 32 OFFCURVE",
"490 18 OFFCURVE",
"435 18 CURVE SMOOTH",
"239 18 OFFCURVE",
"78 181 OFFCURVE",
"78 378 CURVE SMOOTH",
"78 574 OFFCURVE",
"239 736 OFFCURVE",
"435 736 CURVE SMOOTH",
"508 736 OFFCURVE",
"575 715 OFFCURVE",
"638 672 CURVE",
"638 709 LINE",
"574 746 OFFCURVE",
"506 765 OFFCURVE",
"435 765 CURVE SMOOTH",
"222 765 OFFCURVE",
"45 589 OFFCURVE",
"45 377 CURVE SMOOTH",
"45 310 OFFCURVE",
"62 246 OFFCURVE",
"97 187 CURVE SMOOTH",
"165 67 OFFCURVE",
"292 -11 OFFCURVE",
"429 -11 CURVE SMOOTH",
"440 -11 LINE SMOOTH",
"513 -11 OFFCURVE",
"579 7 OFFCURVE",
"638 44 CURVE",
"638 315 LINE",
"357 315 LINE",
"357 286 LINE",
"605 286 LINE"
);
},
{
closed = 1;
nodes = (
"286 829 LINE",
"328 829 LINE",
"434 920 LINE",
"541 829 LINE",
"582 829 LINE",
"450 944 LINE",
"420 944 LINE"
);
}
);
width = 693;
}
);
note = Gcircumflex;
unicode = 011C;
},
{
glyphname = gcircumflex;
lastChange = "2016-07-05 19:32:38 +0000";
layers = (
{
layerId = "6418A72B-B7AF-4A99-B2A7-67092BA5BFD7";
paths = (
{
closed = 1;
nodes = (
"442 414 OFFCURVE",
"360 460 OFFCURVE",
"273 460 CURVE SMOOTH",
"142 460 OFFCURVE",
"35 353 OFFCURVE",
"35 224 CURVE SMOOTH",
"35 95 OFFCURVE",
"142 -12 OFFCURVE",
"273 -12 CURVE SMOOTH",
"356 -12 OFFCURVE",
"442 36 OFFCURVE",
"478 109 CURVE",
"478 42 LINE SMOOTH",
"478 -95 OFFCURVE",
"395 -180 OFFCURVE",
"278 -180 CURVE SMOOTH",
"201 -180 OFFCURVE",
"118 -132 OFFCURVE",
"83 -68 CURVE",
"83 -114 LINE",
"123 -170 OFFCURVE",
"202 -208 OFFCURVE",
"278 -208 CURVE SMOOTH",
"417 -208 OFFCURVE",
"510 -113 OFFCURVE",
"510 42 CURVE SMOOTH",
"510 450 LINE",
"478 450 LINE",
"478 338 LINE"
);
},
{
closed = 1;
nodes = (
"67 337 OFFCURVE",
"162 432 OFFCURVE",
"275 432 CURVE SMOOTH",
"387 432 OFFCURVE",
"479 337 OFFCURVE",
"479 224 CURVE SMOOTH",
"479 111 OFFCURVE",
"387 16 OFFCURVE",
"275 16 CURVE SMOOTH",
"162 16 OFFCURVE",
"67 111 OFFCURVE",
"67 224 CURVE SMOOTH"
);
},
{
closed = 1;
nodes = (
"137 529 LINE",
"179 529 LINE",
"285 620 LINE",
"392 529 LINE",
"433 529 LINE",
"301 644 LINE",
"271 644 LINE"
);
}
);
width = 570;
}
);
note = gcircumflex;
unicode = 011D;
},
{
glyphname = Gbreve;
lastChange = "2016-07-05 19:32:38 +0000";
layers = (
{
layerId = "6418A72B-B7AF-4A99-B2A7-67092BA5BFD7";
paths = (
{
closed = 1;
nodes = (
"605 60 LINE",
"546 32 OFFCURVE",
"490 18 OFFCURVE",
"435 18 CURVE SMOOTH",
"239 18 OFFCURVE",
"78 181 OFFCURVE",
"78 378 CURVE SMOOTH",
"78 574 OFFCURVE",
"239 736 OFFCURVE",
"435 736 CURVE SMOOTH",
"508 736 OFFCURVE",
"575 715 OFFCURVE",
"638 672 CURVE",
"638 709 LINE",
"574 746 OFFCURVE",
"506 765 OFFCURVE",
"435 765 CURVE SMOOTH",
"222 765 OFFCURVE",
"45 589 OFFCURVE",
"45 377 CURVE SMOOTH",
"45 310 OFFCURVE",
"62 246 OFFCURVE",
"97 187 CURVE SMOOTH",
"165 67 OFFCURVE",
"292 -11 OFFCURVE",
"429 -11 CURVE SMOOTH",
"440 -11 LINE SMOOTH",
"513 -11 OFFCURVE",
"579 7 OFFCURVE",
"638 44 CURVE",
"638 315 LINE",
"357 315 LINE",
"357 286 LINE",
"605 286 LINE"
);
},
{
closed = 1;
nodes = (
"316 880 OFFCURVE",
"369 828 OFFCURVE",
"433 828 CURVE SMOOTH",
"441 828 LINE SMOOTH",
"505 828 OFFCURVE",
"559 881 OFFCURVE",
"562 944 CURVE",
"533 944 LINE",
"528 896 OFFCURVE",
"484 853 OFFCURVE",
"437 853 CURVE SMOOTH",
"389 853 OFFCURVE",
"344 896 OFFCURVE",
"341 944 CURVE",
"313 944 LINE"
);
}
);
width = 693;
}
);
note = Gbreve;
unicode = 011E;
},
{
glyphname = gbreve;
lastChange = "2016-07-05 19:32:38 +0000";
layers = (
{
layerId = "6418A72B-B7AF-4A99-B2A7-67092BA5BFD7";
paths = (
{
closed = 1;
nodes = (
"442 414 OFFCURVE",
"360 460 OFFCURVE",
"273 460 CURVE SMOOTH",
"142 460 OFFCURVE",
"35 353 OFFCURVE",
"35 224 CURVE SMOOTH",
"35 95 OFFCURVE",
"142 -12 OFFCURVE",
"273 -12 CURVE SMOOTH",
"356 -12 OFFCURVE",
"442 36 OFFCURVE",
"478 109 CURVE",
"478 42 LINE SMOOTH",
"478 -95 OFFCURVE",
"395 -180 OFFCURVE",
"278 -180 CURVE SMOOTH",
"201 -180 OFFCURVE",
"118 -132 OFFCURVE",
"83 -68 CURVE",
"83 -114 LINE",
"123 -170 OFFCURVE",
"202 -208 OFFCURVE",
"278 -208 CURVE SMOOTH",
"417 -208 OFFCURVE",
"510 -113 OFFCURVE",
"510 42 CURVE SMOOTH",
"510 450 LINE",
"478 450 LINE",
"478 338 LINE"
);
},
{
closed = 1;
nodes = (
"67 337 OFFCURVE",
"162 432 OFFCURVE",
"275 432 CURVE SMOOTH",
"387 432 OFFCURVE",
"479 337 OFFCURVE",
"479 224 CURVE SMOOTH",
"479 111 OFFCURVE",
"387 16 OFFCURVE",
"275 16 CURVE SMOOTH",
"162 16 OFFCURVE",
"67 111 OFFCURVE",
"67 224 CURVE SMOOTH"
);
},
{
closed = 1;
nodes = (
"163 580 OFFCURVE",
"216 528 OFFCURVE",
"280 528 CURVE SMOOTH",
"288 528 LINE SMOOTH",
"352 528 OFFCURVE",
"406 581 OFFCURVE",
"409 644 CURVE",
"380 644 LINE",
"375 596 OFFCURVE",
"331 553 OFFCURVE",
"284 553 CURVE SMOOTH",
"236 553 OFFCURVE",
"191 596 OFFCURVE",
"188 644 CURVE",
"160 644 LINE"
);
}
);
width = 570;
}
);
note = gbreve;
unicode = 011F;
},
{
glyphname = Gdotaccent;
lastChange = "2016-07-05 19:32:38 +0000";
layers = (
{
layerId = "6418A72B-B7AF-4A99-B2A7-67092BA5BFD7";
paths = (
{
closed = 1;
nodes = (
"605 60 LINE",
"546 32 OFFCURVE",
"490 18 OFFCURVE",
"435 18 CURVE SMOOTH",
"239 18 OFFCURVE",
"78 181 OFFCURVE",
"78 378 CURVE SMOOTH",
"78 574 OFFCURVE",
"239 736 OFFCURVE",
"435 736 CURVE SMOOTH",
"508 736 OFFCURVE",
"575 715 OFFCURVE",
"638 672 CURVE",
"638 709 LINE",
"574 746 OFFCURVE",
"506 765 OFFCURVE",
"435 765 CURVE SMOOTH",
"222 765 OFFCURVE",
"45 589 OFFCURVE",
"45 377 CURVE SMOOTH",
"45 310 OFFCURVE",
"62 246 OFFCURVE",
"97 187 CURVE SMOOTH",
"165 67 OFFCURVE",
"292 -11 OFFCURVE",
"429 -11 CURVE SMOOTH",
"440 -11 LINE SMOOTH",
"513 -11 OFFCURVE",
"579 7 OFFCURVE",
"638 44 CURVE",
"638 315 LINE",
"357 315 LINE",
"357 286 LINE",
"605 286 LINE"
);
},
{
closed = 1;
nodes = (
"454 859 OFFCURVE",
"464 868 OFFCURVE",
"464 886 CURVE SMOOTH",
"464 904 OFFCURVE",
"454 913 OFFCURVE",
"435 913 CURVE SMOOTH",
"416 913 OFFCURVE",
"406 904 OFFCURVE",
"406 886 CURVE SMOOTH",
"406 868 OFFCURVE",
"416 859 OFFCURVE",
"435 859 CURVE SMOOTH"
);
}
);
width = 693;
}
);
note = Gdotaccent;
unicode = 0120;
},
{
glyphname = gdotaccent;
lastChange = "2016-07-05 19:32:38 +0000";
layers = (
{
layerId = "6418A72B-B7AF-4A99-B2A7-67092BA5BFD7";
paths = (
{
closed = 1;
nodes = (
"442 414 OFFCURVE",
"360 460 OFFCURVE",
"273 460 CURVE SMOOTH",
"142 460 OFFCURVE",
"35 353 OFFCURVE",
"35 224 CURVE SMOOTH",
"35 95 OFFCURVE",
"142 -12 OFFCURVE",
"273 -12 CURVE SMOOTH",
"356 -12 OFFCURVE",
"442 36 OFFCURVE",
"478 109 CURVE",
"478 42 LINE SMOOTH",
"478 -95 OFFCURVE",
"395 -180 OFFCURVE",
"278 -180 CURVE SMOOTH",
"201 -180 OFFCURVE",
"118 -132 OFFCURVE",
"83 -68 CURVE",
"83 -114 LINE",
"123 -170 OFFCURVE",
"202 -208 OFFCURVE",
"278 -208 CURVE SMOOTH",
"417 -208 OFFCURVE",
"510 -113 OFFCURVE",
"510 42 CURVE SMOOTH",
"510 450 LINE",
"478 450 LINE",
"478 338 LINE"
);
},
{
closed = 1;
nodes = (
"67 337 OFFCURVE",
"162 432 OFFCURVE",
"275 432 CURVE SMOOTH",
"387 432 OFFCURVE",
"479 337 OFFCURVE",
"479 224 CURVE SMOOTH",
"479 111 OFFCURVE",
"387 16 OFFCURVE",
"275 16 CURVE SMOOTH",
"162 16 OFFCURVE",
"67 111 OFFCURVE",
"67 224 CURVE SMOOTH"
);
},
{
closed = 1;
nodes = (
"304 559 OFFCURVE",
"314 568 OFFCURVE",
"314 586 CURVE SMOOTH",
"314 604 OFFCURVE",
"304 613 OFFCURVE",
"285 613 CURVE SMOOTH",
"266 613 OFFCURVE",
"256 604 OFFCURVE",
"256 586 CURVE SMOOTH",
"256 568 OFFCURVE",
"266 559 OFFCURVE",
"285 559 CURVE SMOOTH"
);
}
);
width = 570;
}
);
note = gdotaccent;
unicode = 0121;
},
{
glyphname = Hcircumflex;
lastChange = "2016-07-05 19:32:38 +0000";
layers = (
{
layerId = "6418A72B-B7AF-4A99-B2A7-67092BA5BFD7";
paths = (
{
closed = 1;
nodes = (
"108 315 LINE",
"108 750 LINE",
"75 750 LINE",
"75 0 LINE",
"108 0 LINE",
"108 286 LINE",
"622 286 LINE",
"622 0 LINE",
"655 0 LINE",
"655 750 LINE",
"622 750 LINE",
"622 315 LINE"
);
},
{
closed = 1;
nodes = (
"217 829 LINE",
"259 829 LINE",
"365 920 LINE",
"472 829 LINE",
"513 829 LINE",
"381 944 LINE",
"351 944 LINE"
);
}
);
width = 730;
}
);
note = Hcircumflex;
unicode = 0124;
},
{
glyphname = hcircumflex;
lastChange = "2016-07-05 19:32:38 +0000";
layers = (
{
layerId = "6418A72B-B7AF-4A99-B2A7-67092BA5BFD7";
paths = (
{
closed = 1;
nodes = (
"92 354 OFFCURVE",
"173 433 OFFCURVE",
"265 433 CURVE SMOOTH",
"357 433 OFFCURVE",
"432 355 OFFCURVE",
"432 262 CURVE SMOOTH",
"432 0 LINE",
"464 0 LINE",
"464 262 LINE SMOOTH",
"464 373 OFFCURVE",
"377 461 OFFCURVE",
"265 461 CURVE SMOOTH",
"183 461 OFFCURVE",
"125 428 OFFCURVE",
"92 363 CURVE",
"92 749 LINE",
"60 749 LINE",
"60 0 LINE",
"92 0 LINE",
"92 262 LINE SMOOTH"
);
},
{
closed = 1;
nodes = (
"128 529 LINE",
"170 529 LINE",
"276 620 LINE",
"383 529 LINE",
"424 529 LINE",
"292 644 LINE",
"262 644 LINE"
);
}
);
width = 514;
}
);
note = hcircumflex;
unicode = 0125;
},
{
glyphname = Hbar;
lastChange = "2016-07-05 19:32:38 +0000";
layers = (
{
layerId = "6418A72B-B7AF-4A99-B2A7-67092BA5BFD7";
paths = (
{
closed = 1;
nodes = (
"108 558 LINE",
"108 750 LINE",
"75 750 LINE",
"75 558 LINE",
"20 558 LINE",
"20 529 LINE",
"75 529 LINE",
"75 0 LINE",
"108 0 LINE",
"108 286 LINE",
"622 286 LINE",
"622 0 LINE",
"655 0 LINE",
"655 529 LINE",
"711 529 LINE",
"711 558 LINE",
"655 558 LINE",
"655 750 LINE",
"622 750 LINE",
"622 558 LINE"
);
},
{
closed = 1;
nodes = (
"622 529 LINE",
"622 315 LINE",
"108 315 LINE",
"108 529 LINE"
);
}
);
width = 730;
}
);
note = Hbar;
unicode = 0126;
},
{
glyphname = hbar;
lastChange = "2016-07-05 19:32:38 +0000";
layers = (
{
layerId = "6418A72B-B7AF-4A99-B2A7-67092BA5BFD7";
paths = (
{
closed = 1;
nodes = (
"102 354 OFFCURVE",
"183 433 OFFCURVE",
"275 433 CURVE SMOOTH",
"367 433 OFFCURVE",
"442 355 OFFCURVE",
"442 262 CURVE SMOOTH",
"442 0 LINE",
"474 0 LINE",
"474 262 LINE SMOOTH",
"474 373 OFFCURVE",
"387 461 OFFCURVE",
"275 461 CURVE SMOOTH",
"193 461 OFFCURVE",
"135 428 OFFCURVE",
"102 363 CURVE",
"102 581 LINE",
"231 581 LINE",
"231 610 LINE",
"102 610 LINE",
"102 749 LINE",
"70 749 LINE",
"70 610 LINE",
"15 610 LINE",
"15 581 LINE",
"70 581 LINE",
"70 0 LINE",
"102 0 LINE",
"102 262 LINE SMOOTH"
);
}
);
width = 527;
}
);
note = hbar;
unicode = 0127;
},
{
glyphname = Itilde;
lastChange = "2016-07-05 19:32:38 +0000";
layers = (
{
layerId = "6418A72B-B7AF-4A99-B2A7-67092BA5BFD7";
paths = (
{
closed = 1;
nodes = (
"113 0 LINE",
"113 750 LINE",
"80 750 LINE",
"80 0 LINE"
);
},
{
closed = 1;
nodes = (
"206 847 OFFCURVE",
"236 873 OFFCURVE",
"267 924 CURVE",
"236 924 LINE",
"215 891 OFFCURVE",
"196 875 OFFCURVE",
"178 875 CURVE SMOOTH",
"159 875 OFFCURVE",
"135 884 OFFCURVE",
"105 902 CURVE SMOOTH",
"75 919 OFFCURVE",
"50 928 OFFCURVE",
"30 928 CURVE SMOOTH",
"21 928 LINE SMOOTH",
"-16 928 OFFCURVE",
"-48 901 OFFCURVE",
"-74 848 CURVE",
"-43 848 LINE",
"0 919 OFFCURVE",
"33 911 OFFCURVE",
"99 875 CURVE SMOOTH",
"132 856 OFFCURVE",
"158 847 OFFCURVE",
"177 847 CURVE SMOOTH"
);
}
);
width = 193;
}
);
note = Itilde;
unicode = 0128;
},
{
glyphname = itilde;
lastChange = "2016-07-05 19:32:38 +0000";
layers = (
{
layerId = "6418A72B-B7AF-4A99-B2A7-67092BA5BFD7";
paths = (
{
closed = 1;
nodes = (
"73 0 LINE",
"105 0 LINE",
"105 449 LINE",
"73 449 LINE"
);
},
{
closed = 1;
nodes = (
"199 547 OFFCURVE",
"229 573 OFFCURVE",
"260 624 CURVE",
"229 624 LINE",
"208 591 OFFCURVE",
"189 575 OFFCURVE",
"171 575 CURVE SMOOTH",
"152 575 OFFCURVE",
"128 584 OFFCURVE",
"98 602 CURVE SMOOTH",
"68 619 OFFCURVE",
"43 628 OFFCURVE",
"23 628 CURVE SMOOTH",
"14 628 LINE SMOOTH",
"-23 628 OFFCURVE",
"-55 601 OFFCURVE",
"-81 548 CURVE",
"-50 548 LINE",
"-7 619 OFFCURVE",
"26 611 OFFCURVE",
"92 575 CURVE SMOOTH",
"125 556 OFFCURVE",
"151 547 OFFCURVE",
"170 547 CURVE SMOOTH"
);
}
);
width = 178;
}
);
note = itilde;
unicode = 0129;
},
{
glyphname = Imacron;
lastChange = "2016-07-05 19:32:38 +0000";
layers = (
{
layerId = "6418A72B-B7AF-4A99-B2A7-67092BA5BFD7";
paths = (
{
closed = 1;
nodes = (
"113 0 LINE",
"113 750 LINE",
"80 750 LINE",
"80 0 LINE"
);
},
{
closed = 1;
nodes = (
"0 894 LINE",
"0 866 LINE",
"197 866 LINE",
"197 894 LINE"
);
}
);
width = 193;
}
);
note = Imacron;
unicode = 012A;
},
{
glyphname = imacron;
lastChange = "2016-07-05 19:32:38 +0000";
layers = (
{
layerId = "6418A72B-B7AF-4A99-B2A7-67092BA5BFD7";
paths = (
{
closed = 1;
nodes = (
"73 0 LINE",
"105 0 LINE",
"105 449 LINE",
"73 449 LINE"
);
},
{
closed = 1;
nodes = (
"-9 594 LINE",
"-9 566 LINE",
"188 566 LINE",
"188 594 LINE"
);
}
);
width = 178;
}
);
note = imacron;
unicode = 012B;
},
{
glyphname = Ibreve;
lastChange = "2016-07-05 19:32:38 +0000";
layers = (
{
layerId = "6418A72B-B7AF-4A99-B2A7-67092BA5BFD7";
paths = (
{
closed = 1;
nodes = (
"113 0 LINE",
"113 750 LINE",
"80 750 LINE",
"80 0 LINE"
);
},
{
closed = 1;
nodes = (
"-25 880 OFFCURVE",
"28 828 OFFCURVE",
"92 828 CURVE SMOOTH",
"100 828 LINE SMOOTH",
"164 828 OFFCURVE",
"218 881 OFFCURVE",
"221 944 CURVE",
"192 944 LINE",
"187 896 OFFCURVE",
"143 853 OFFCURVE",
"96 853 CURVE SMOOTH",
"48 853 OFFCURVE",
"3 896 OFFCURVE",
"0 944 CURVE",
"-28 944 LINE"
);
}
);
width = 193;
}
);
note = Ibreve;
unicode = 012C;
},
{
glyphname = ibreve;
lastChange = "2016-07-05 19:32:38 +0000";
layers = (
{
layerId = "6418A72B-B7AF-4A99-B2A7-67092BA5BFD7";
paths = (
{
closed = 1;
nodes = (
"73 0 LINE",
"105 0 LINE",
"105 449 LINE",
"73 449 LINE"
);
},
{
closed = 1;
nodes = (
"-32 580 OFFCURVE",
"21 528 OFFCURVE",
"85 528 CURVE SMOOTH",
"93 528 LINE SMOOTH",
"157 528 OFFCURVE",
"211 581 OFFCURVE",
"214 644 CURVE",
"185 644 LINE",
"180 596 OFFCURVE",
"136 553 OFFCURVE",
"89 553 CURVE SMOOTH",
"41 553 OFFCURVE",
"-4 596 OFFCURVE",
"-7 644 CURVE",
"-35 644 LINE"
);
}
);
width = 178;
}
);
note = ibreve;
unicode = 012D;
},
{
glyphname = Iogonek;
lastChange = "2016-07-05 19:32:38 +0000";
layers = (
{
layerId = "6418A72B-B7AF-4A99-B2A7-67092BA5BFD7";
paths = (
{
closed = 1;
nodes = (
"84 0 LINE",
"-2 -123 LINE",
"-2 -130 LINE SMOOTH",
"-2 -170 OFFCURVE",
"29 -200 OFFCURVE",
"73 -200 CURVE SMOOTH",
"113 -200 LINE",
"113 -175 LINE",
"75 -175 LINE SMOOTH",
"44 -175 OFFCURVE",
"25 -153 OFFCURVE",
"25 -125 CURVE",
"112 0 LINE",
"113 0 LINE",
"113 750 LINE",
"80 750 LINE",
"80 0 LINE"
);
}
);
width = 193;
}
);
note = Iogonek;
unicode = 012E;
},
{
glyphname = iogonek;
lastChange = "2016-07-05 19:32:38 +0000";
layers = (
{
layerId = "6418A72B-B7AF-4A99-B2A7-67092BA5BFD7";
paths = (
{
closed = 1;
nodes = (
"38 -175 OFFCURVE",
"19 -153 OFFCURVE",
"19 -125 CURVE",
"106 0 LINE",
"105 0 LINE",
"105 449 LINE",
"73 449 LINE",
"73 0 LINE",
"78 0 LINE",
"-8 -123 LINE",
"-8 -130 LINE SMOOTH",
"-8 -170 OFFCURVE",
"23 -200 OFFCURVE",
"67 -200 CURVE SMOOTH",
"107 -200 LINE",
"107 -175 LINE",
"69 -175 LINE SMOOTH"
);
},
{
closed = 1;
nodes = (
"108 559 OFFCURVE",
"118 568 OFFCURVE",
"118 586 CURVE SMOOTH",
"118 604 OFFCURVE",
"108 613 OFFCURVE",
"89 613 CURVE SMOOTH",
"70 613 OFFCURVE",
"60 604 OFFCURVE",
"60 586 CURVE SMOOTH",
"60 568 OFFCURVE",
"70 559 OFFCURVE",
"89 559 CURVE SMOOTH"
);
}
);
width = 178;
}
);
note = iogonek;
unicode = 012F;
},
{
glyphname = Idotaccent;
lastChange = "2016-07-05 19:32:38 +0000";
layers = (
{
layerId = "6418A72B-B7AF-4A99-B2A7-67092BA5BFD7";
paths = (
{
closed = 1;
nodes = (
"113 0 LINE",
"113 750 LINE",
"80 750 LINE",
"80 0 LINE"
);
},
{
closed = 1;
nodes = (
"115 859 OFFCURVE",
"125 868 OFFCURVE",
"125 886 CURVE SMOOTH",
"125 904 OFFCURVE",
"115 913 OFFCURVE",
"96 913 CURVE SMOOTH",
"77 913 OFFCURVE",
"67 904 OFFCURVE",
"67 886 CURVE SMOOTH",
"67 868 OFFCURVE",
"77 859 OFFCURVE",
"96 859 CURVE SMOOTH"
);
}
);
width = 193;
}
);
note = Idotaccent;
unicode = 0130;
},
{
glyphname = Jcircumflex;
lastChange = "2016-07-05 19:32:38 +0000";
layers = (
{
layerId = "6418A72B-B7AF-4A99-B2A7-67092BA5BFD7";
paths = (
{
closed = 1;
nodes = (
"359 226 LINE SMOOTH",
"359 102 OFFCURVE",
"288 14 OFFCURVE",
"171 14 CURVE SMOOTH",
"112 14 OFFCURVE",
"62 37 OFFCURVE",
"20 83 CURVE",
"20 42 LINE",
"65 4 OFFCURVE",
"114 -15 OFFCURVE",
"167 -15 CURVE SMOOTH",
"177 -15 LINE SMOOTH",
"305 -15 OFFCURVE",
"392 85 OFFCURVE",
"392 230 CURVE SMOOTH",
"392 750 LINE",
"174 750 LINE",
"174 721 LINE",
"359 721 LINE"
);
},
{
closed = 1;
nodes = (
"138 829 LINE",
"180 829 LINE",
"286 920 LINE",
"393 829 LINE",
"434 829 LINE",
"302 944 LINE",
"272 944 LINE"
);
}
);
width = 467;
}
);
note = Jcircumflex;
unicode = 0134;
},
{
glyphname = jcircumflex;
lastChange = "2016-07-05 19:32:38 +0000";
layers = (
{
layerId = "6418A72B-B7AF-4A99-B2A7-67092BA5BFD7";
paths = (
{
closed = 1;
nodes = (
"91 -198 OFFCURVE",
"168 -128 OFFCURVE",
"168 -29 CURVE SMOOTH",
"168 450 LINE",
"136 450 LINE",
"136 -29 LINE SMOOTH",
"136 -110 OFFCURVE",
"74 -170 OFFCURVE",
"-5 -170 CURVE",
"-5 -198 LINE"
);
},
{
closed = 1;
nodes = (
"0 529 LINE",
"42 529 LINE",
"148 620 LINE",
"255 529 LINE",
"296 529 LINE",
"164 644 LINE",
"134 644 LINE"
);
}
);
width = 242;
}
);
note = jcircumflex;
unicode = 0135;
},
{
glyphname = Lacute;
lastChange = "2016-07-05 19:32:38 +0000";
layers = (
{
layerId = "6418A72B-B7AF-4A99-B2A7-67092BA5BFD7";
paths = (
{
closed = 1;
nodes = (
"75 0 LINE",
"340 0 LINE",
"340 29 LINE",
"108 29 LINE",
"108 750 LINE",
"75 750 LINE"
);
},
{
closed = 1;
nodes = (
"61 829 LINE",
"200 944 LINE",
"159 944 LINE",
"19 829 LINE"
);
}
);
width = 360;
}
);
note = Lacute;
unicode = 0139;
},
{
glyphname = lacute;
lastChange = "2016-07-05 19:32:38 +0000";
layers = (
{
layerId = "6418A72B-B7AF-4A99-B2A7-67092BA5BFD7";
paths = (
{
closed = 1;
nodes = (
"154 19 OFFCURVE",
"92 79 OFFCURVE",
"92 160 CURVE SMOOTH",
"92 750 LINE",
"60 750 LINE",
"60 160 LINE SMOOTH",
"60 61 OFFCURVE",
"136 -9 OFFCURVE",
"231 -9 CURVE",
"231 19 LINE"
);
},
{
closed = 1;
nodes = (
"60 825 LINE",
"199 940 LINE",
"158 940 LINE",
"18 825 LINE"
);
}
);
width = 251;
}
);
note = lacute;
unicode = 013A;
},
{
glyphname = Lcaron;
lastChange = "2016-07-05 19:32:38 +0000";
layers = (
{
layerId = "6418A72B-B7AF-4A99-B2A7-67092BA5BFD7";
paths = (
{
closed = 1;
nodes = (
"75 0 LINE",
"340 0 LINE",
"340 29 LINE",
"108 29 LINE",
"108 750 LINE",
"75 750 LINE"
);
},
{
closed = 1;
nodes = (
"287 702 LINE",
"289 708 OFFCURVE",
"290 713 OFFCURVE",
"290 718 CURVE SMOOTH",
"290 739 OFFCURVE",
"279 749 OFFCURVE",
"256 749 CURVE SMOOTH",
"233 749 OFFCURVE",
"221 739 OFFCURVE",
"221 718 CURVE SMOOTH",
"221 697 OFFCURVE",
"231 687 OFFCURVE",
"252 687 CURVE",
"252 631 LINE",
"256 631 LINE"
);
}
);
width = 360;
}
);
note = Lcaron;
unicode = 013D;
},
{
glyphname = lcaron;
lastChange = "2016-07-05 19:32:38 +0000";
layers = (
{
layerId = "6418A72B-B7AF-4A99-B2A7-67092BA5BFD7";
paths = (
{
closed = 1;
nodes = (
"154 19 OFFCURVE",
"92 79 OFFCURVE",
"92 160 CURVE SMOOTH",
"92 750 LINE",
"60 750 LINE",
"60 160 LINE SMOOTH",
"60 61 OFFCURVE",
"136 -9 OFFCURVE",
"231 -9 CURVE",
"231 19 LINE"
);
},
{
closed = 1;
nodes = (
"247 703 LINE",
"249 709 OFFCURVE",
"250 714 OFFCURVE",
"250 719 CURVE SMOOTH",
"250 740 OFFCURVE",
"239 750 OFFCURVE",
"216 750 CURVE SMOOTH",
"193 750 OFFCURVE",
"181 740 OFFCURVE",
"181 719 CURVE SMOOTH",
"181 698 OFFCURVE",
"191 688 OFFCURVE",
"212 688 CURVE",
"212 632 LINE",
"216 632 LINE"
);
}
);
width = 265;
}
);
note = lcaron;
unicode = 013E;
},
{
glyphname = Ldot;
lastChange = "2016-07-05 19:32:38 +0000";
layers = (
{
layerId = "6418A72B-B7AF-4A99-B2A7-67092BA5BFD7";
paths = (
{
closed = 1;
nodes = (
"75 0 LINE",
"340 0 LINE",
"340 29 LINE",
"108 29 LINE",
"108 750 LINE",
"75 750 LINE"
);
},
{
closed = 1;
nodes = (
"305 367 OFFCURVE",
"315 377 OFFCURVE",
"315 398 CURVE SMOOTH",
"315 419 OFFCURVE",
"305 429 OFFCURVE",
"284 429 CURVE SMOOTH",
"263 429 OFFCURVE",
"253 419 OFFCURVE",
"253 398 CURVE SMOOTH",
"253 377 OFFCURVE",
"263 367 OFFCURVE",
"284 367 CURVE SMOOTH"
);
}
);
width = 360;
}
);
note = Ldot;
unicode = 013F;
},
{
glyphname = ldot;
lastChange = "2016-07-05 19:32:38 +0000";
layers = (
{
layerId = "6418A72B-B7AF-4A99-B2A7-67092BA5BFD7";
paths = (
{
closed = 1;
nodes = (
"154 19 OFFCURVE",
"92 79 OFFCURVE",
"92 160 CURVE SMOOTH",
"92 750 LINE",
"60 750 LINE",
"60 160 LINE SMOOTH",
"60 61 OFFCURVE",
"136 -9 OFFCURVE",
"231 -9 CURVE",
"231 19 LINE"
);
},
{
closed = 1;
nodes = (
"234 261 OFFCURVE",
"244 271 OFFCURVE",
"244 292 CURVE SMOOTH",
"244 313 OFFCURVE",
"234 323 OFFCURVE",
"213 323 CURVE SMOOTH",
"192 323 OFFCURVE",
"182 313 OFFCURVE",
"182 292 CURVE SMOOTH",
"182 271 OFFCURVE",
"192 261 OFFCURVE",
"213 261 CURVE SMOOTH"
);
}
);
width = 289;
}
);
note = ldot;
unicode = 0140;
},
{
glyphname = Lslash;
lastChange = "2016-07-05 19:32:38 +0000";
layers = (
{
layerId = "6418A72B-B7AF-4A99-B2A7-67092BA5BFD7";
paths = (
{
closed = 1;
nodes = (
"75 288 LINE",
"8 221 LINE",
"28 201 LINE",
"75 248 LINE",
"75 0 LINE",
"340 0 LINE",
"340 29 LINE",
"108 29 LINE",
"108 281 LINE",
"248 421 LINE",
"228 441 LINE",
"108 321 LINE",
"108 750 LINE",
"75 750 LINE"
);
}
);
width = 360;
}
);
note = Lslash;
unicode = 0141;
},
{
glyphname = lslash;
lastChange = "2016-07-05 19:32:38 +0000";
layers = (
{
layerId = "6418A72B-B7AF-4A99-B2A7-67092BA5BFD7";
paths = (
{
closed = 1;
nodes = (
"183 19 OFFCURVE",
"121 79 OFFCURVE",
"121 160 CURVE SMOOTH",
"121 294 LINE",
"248 421 LINE",
"228 441 LINE",
"121 334 LINE",
"121 750 LINE",
"89 750 LINE",
"89 302 LINE",
"8 221 LINE",
"28 201 LINE",
"89 262 LINE",
"89 160 LINE SMOOTH",
"89 61 OFFCURVE",
"165 -9 OFFCURVE",
"260 -9 CURVE",
"260 19 LINE"
);
}
);
width = 282;
}
);
note = lslash;
unicode = 0142;
},
{
glyphname = Nacute;
lastChange = "2016-07-05 19:32:38 +0000";
layers = (
{
layerId = "6418A72B-B7AF-4A99-B2A7-67092BA5BFD7";
paths = (
{
closed = 1;
nodes = (
"75 761 LINE",
"75 0 LINE",
"104 0 LINE",
"104 668 LINE",
"656 -11 LINE",
"656 750 LINE",
"627 750 LINE",
"627 83 LINE"
);
},
{
closed = 1;
nodes = (
"317 829 LINE",
"456 944 LINE",
"415 944 LINE",
"275 829 LINE"
);
}
);
width = 731;
}
);
note = Nacute;
unicode = 0143;
},
{
glyphname = nacute;
lastChange = "2016-07-05 19:32:38 +0000";
layers = (
{
layerId = "6418A72B-B7AF-4A99-B2A7-67092BA5BFD7";
paths = (
{
closed = 1;
nodes = (
"92 354 OFFCURVE",
"174 433 OFFCURVE",
"266 433 CURVE SMOOTH",
"358 433 OFFCURVE",
"432 354 OFFCURVE",
"432 262 CURVE SMOOTH",
"432 0 LINE",
"464 0 LINE",
"464 262 LINE SMOOTH",
"464 373 OFFCURVE",
"378 461 OFFCURVE",
"266 461 CURVE SMOOTH",
"184 461 OFFCURVE",
"126 427 OFFCURVE",
"92 359 CURVE",
"92 450 LINE",
"60 450 LINE",
"60 0 LINE",
"92 0 LINE",
"92 262 LINE SMOOTH"
);
},
{
closed = 1;
nodes = (
"213 529 LINE",
"352 644 LINE",
"311 644 LINE",
"171 529 LINE"
);
}
);
width = 524;
}
);
note = nacute;
unicode = 0144;
},
{
glyphname = Ncaron;
lastChange = "2016-07-05 19:32:38 +0000";
layers = (
{
layerId = "6418A72B-B7AF-4A99-B2A7-67092BA5BFD7";
paths = (
{
closed = 1;
nodes = (
"75 761 LINE",
"75 0 LINE",
"104 0 LINE",
"104 668 LINE",
"656 -11 LINE",
"656 750 LINE",
"627 750 LINE",
"627 83 LINE"
);
},
{
closed = 1;
nodes = (
"365 853 LINE",
"259 944 LINE",
"217 944 LINE",
"351 829 LINE",
"381 829 LINE",
"513 944 LINE",
"472 944 LINE"
);
}
);
width = 731;
}
);
note = Ncaron;
unicode = 0147;
},
{
glyphname = ncaron;
lastChange = "2016-07-05 19:32:38 +0000";
layers = (
{
layerId = "6418A72B-B7AF-4A99-B2A7-67092BA5BFD7";
paths = (
{
closed = 1;
nodes = (
"92 354 OFFCURVE",
"174 433 OFFCURVE",
"266 433 CURVE SMOOTH",
"358 433 OFFCURVE",
"432 354 OFFCURVE",
"432 262 CURVE SMOOTH",
"432 0 LINE",
"464 0 LINE",
"464 262 LINE SMOOTH",
"464 373 OFFCURVE",
"378 461 OFFCURVE",
"266 461 CURVE SMOOTH",
"184 461 OFFCURVE",
"126 427 OFFCURVE",
"92 359 CURVE",
"92 450 LINE",
"60 450 LINE",
"60 0 LINE",
"92 0 LINE",
"92 262 LINE SMOOTH"
);
},
{
closed = 1;
nodes = (
"262 553 LINE",
"156 644 LINE",
"114 644 LINE",
"248 529 LINE",
"278 529 LINE",
"410 644 LINE",
"369 644 LINE"
);
}
);
width = 524;
}
);
note = ncaron;
unicode = 0148;
},
{
glyphname = napostrophe;
lastChange = "2016-07-05 19:32:38 +0000";
layers = (
{
layerId = "6418A72B-B7AF-4A99-B2A7-67092BA5BFD7";
paths = (
{
closed = 1;
nodes = (
"92 354 OFFCURVE",
"174 433 OFFCURVE",
"266 433 CURVE SMOOTH",
"358 433 OFFCURVE",
"432 354 OFFCURVE",
"432 262 CURVE SMOOTH",
"432 0 LINE",
"464 0 LINE",
"464 262 LINE SMOOTH",
"464 373 OFFCURVE",
"378 461 OFFCURVE",
"266 461 CURVE SMOOTH",
"184 461 OFFCURVE",
"126 427 OFFCURVE",
"92 359 CURVE",
"92 450 LINE",
"60 450 LINE",
"60 0 LINE",
"92 0 LINE",
"92 262 LINE SMOOTH"
);
},
{
closed = 1;
nodes = (
"125 600 LINE",
"127 606 OFFCURVE",
"128 611 OFFCURVE",
"128 616 CURVE SMOOTH",
"128 637 OFFCURVE",
"117 647 OFFCURVE",
"94 647 CURVE SMOOTH",
"71 647 OFFCURVE",
"59 637 OFFCURVE",
"59 616 CURVE SMOOTH",
"59 595 OFFCURVE",
"69 585 OFFCURVE",
"90 585 CURVE",
"90 529 LINE",
"94 529 LINE"
);
}
);
width = 524;
}
);
note = napostrophe;
unicode = 0149;
},
{
glyphname = Omacron;
lastChange = "2016-07-05 19:32:38 +0000";
layers = (
{
layerId = "6418A72B-B7AF-4A99-B2A7-67092BA5BFD7";
paths = (
{
closed = 1;
nodes = (
"651 -13 OFFCURVE",
"825 168 OFFCURVE",
"825 378 CURVE SMOOTH",
"825 588 OFFCURVE",
"651 763 OFFCURVE",
"436 763 CURVE SMOOTH",
"221 763 OFFCURVE",
"45 586 OFFCURVE",
"45 378 CURVE SMOOTH",
"45 169 OFFCURVE",
"220 -13 OFFCURVE",
"427 -13 CURVE SMOOTH",
"442 -13 LINE SMOOTH"
);
},
{
closed = 1;
nodes = (
"792 179 OFFCURVE",
"631 16 OFFCURVE",
"435 16 CURVE SMOOTH",
"239 16 OFFCURVE",
"78 179 OFFCURVE",
"78 376 CURVE SMOOTH",
"78 572 OFFCURVE",
"239 734 OFFCURVE",
"436 734 CURVE SMOOTH",
"632 734 OFFCURVE",
"792 572 OFFCURVE",
"792 376 CURVE SMOOTH"
);
},
{
closed = 1;
nodes = (
"336 894 LINE",
"336 866 LINE",
"533 866 LINE",
"533 894 LINE"
);
}
);
width = 870;
}
);
note = Omacron;
unicode = 014C;
},
{
glyphname = omacron;
lastChange = "2016-07-05 19:32:38 +0000";
layers = (
{
layerId = "6418A72B-B7AF-4A99-B2A7-67092BA5BFD7";
paths = (
{
closed = 1;
nodes = (
"407 -11 OFFCURVE",
"511 99 OFFCURVE",
"511 227 CURVE SMOOTH",
"511 354 OFFCURVE",
"405 461 OFFCURVE",
"274 461 CURVE SMOOTH",
"142 461 OFFCURVE",
"35 354 OFFCURVE",
"35 227 CURVE SMOOTH",
"35 100 OFFCURVE",
"141 -11 OFFCURVE",
"269 -11 CURVE SMOOTH",
"278 -11 LINE SMOOTH"
);
},
{
closed = 1;
nodes = (
"479 112 OFFCURVE",
"387 17 OFFCURVE",
"275 17 CURVE SMOOTH",
"162 17 OFFCURVE",
"67 112 OFFCURVE",
"67 224 CURVE SMOOTH",
"67 336 OFFCURVE",
"162 433 OFFCURVE",
"274 433 CURVE SMOOTH",
"386 433 OFFCURVE",
"479 337 OFFCURVE",
"479 225 CURVE SMOOTH"
);
},
{
closed = 1;
nodes = (
"174 594 LINE",
"174 566 LINE",
"371 566 LINE",
"371 594 LINE"
);
}
);
width = 546;
}
);
note = omacron;
unicode = 014D;
},
{
glyphname = Obreve;
lastChange = "2016-07-05 19:32:38 +0000";
layers = (
{
layerId = "6418A72B-B7AF-4A99-B2A7-67092BA5BFD7";
paths = (
{
closed = 1;
nodes = (
"651 -13 OFFCURVE",
"825 168 OFFCURVE",
"825 378 CURVE SMOOTH",
"825 588 OFFCURVE",
"651 763 OFFCURVE",
"436 763 CURVE SMOOTH",
"221 763 OFFCURVE",
"45 586 OFFCURVE",
"45 378 CURVE SMOOTH",
"45 169 OFFCURVE",
"220 -13 OFFCURVE",
"427 -13 CURVE SMOOTH",
"442 -13 LINE SMOOTH"
);
},
{
closed = 1;
nodes = (
"792 179 OFFCURVE",
"631 16 OFFCURVE",
"435 16 CURVE SMOOTH",
"239 16 OFFCURVE",
"78 179 OFFCURVE",
"78 376 CURVE SMOOTH",
"78 572 OFFCURVE",
"239 734 OFFCURVE",
"436 734 CURVE SMOOTH",
"632 734 OFFCURVE",
"792 572 OFFCURVE",
"792 376 CURVE SMOOTH"
);
},
{
closed = 1;
nodes = (
"313 880 OFFCURVE",
"366 828 OFFCURVE",
"430 828 CURVE SMOOTH",
"438 828 LINE SMOOTH",
"502 828 OFFCURVE",
"556 881 OFFCURVE",
"559 944 CURVE",
"530 944 LINE",
"525 896 OFFCURVE",
"481 853 OFFCURVE",
"434 853 CURVE SMOOTH",
"386 853 OFFCURVE",
"341 896 OFFCURVE",
"338 944 CURVE",
"310 944 LINE"
);
}
);
width = 870;
}
);
note = Obreve;
unicode = 014E;
},
{
glyphname = obreve;
lastChange = "2016-07-05 19:32:38 +0000";
layers = (
{
layerId = "6418A72B-B7AF-4A99-B2A7-67092BA5BFD7";
paths = (
{
closed = 1;
nodes = (
"407 -11 OFFCURVE",
"511 99 OFFCURVE",
"511 227 CURVE SMOOTH",
"511 354 OFFCURVE",
"405 461 OFFCURVE",
"274 461 CURVE SMOOTH",
"142 461 OFFCURVE",
"35 354 OFFCURVE",
"35 227 CURVE SMOOTH",
"35 100 OFFCURVE",
"141 -11 OFFCURVE",
"269 -11 CURVE SMOOTH",
"278 -11 LINE SMOOTH"
);
},
{
closed = 1;
nodes = (
"479 112 OFFCURVE",
"387 17 OFFCURVE",
"275 17 CURVE SMOOTH",
"162 17 OFFCURVE",
"67 112 OFFCURVE",
"67 224 CURVE SMOOTH",
"67 336 OFFCURVE",
"162 433 OFFCURVE",
"274 433 CURVE SMOOTH",
"386 433 OFFCURVE",
"479 337 OFFCURVE",
"479 225 CURVE SMOOTH"
);
},
{
closed = 1;
nodes = (
"151 580 OFFCURVE",
"204 528 OFFCURVE",
"268 528 CURVE SMOOTH",
"276 528 LINE SMOOTH",
"340 528 OFFCURVE",
"394 581 OFFCURVE",
"397 644 CURVE",
"368 644 LINE",
"363 596 OFFCURVE",
"319 553 OFFCURVE",
"272 553 CURVE SMOOTH",
"224 553 OFFCURVE",
"179 596 OFFCURVE",
"176 644 CURVE",
"148 644 LINE"
);
}
);
width = 546;
}
);
note = obreve;
unicode = 014F;
},
{
glyphname = Ohungarumlaut;
lastChange = "2016-07-05 19:32:38 +0000";
layers = (
{
layerId = "6418A72B-B7AF-4A99-B2A7-67092BA5BFD7";
paths = (
{
closed = 1;
nodes = (
"651 -13 OFFCURVE",
"825 168 OFFCURVE",
"825 378 CURVE SMOOTH",
"825 588 OFFCURVE",
"651 763 OFFCURVE",
"436 763 CURVE SMOOTH",
"221 763 OFFCURVE",
"45 586 OFFCURVE",
"45 378 CURVE SMOOTH",
"45 169 OFFCURVE",
"220 -13 OFFCURVE",
"427 -13 CURVE SMOOTH",
"442 -13 LINE SMOOTH"
);
},
{
closed = 1;
nodes = (
"792 179 OFFCURVE",
"631 16 OFFCURVE",
"435 16 CURVE SMOOTH",
"239 16 OFFCURVE",
"78 179 OFFCURVE",
"78 376 CURVE SMOOTH",
"78 572 OFFCURVE",
"239 734 OFFCURVE",
"436 734 CURVE SMOOTH",
"632 734 OFFCURVE",
"792 572 OFFCURVE",
"792 376 CURVE SMOOTH"
);
},
{
closed = 1;
nodes = (
"325 829 LINE",
"464 944 LINE",
"423 944 LINE",
"283 829 LINE"
);
},
{
closed = 1;
nodes = (
"447 829 LINE",
"586 944 LINE",
"545 944 LINE",
"405 829 LINE"
);
}
);
width = 870;
}
);
note = Ohungarumlaut;
unicode = 0150;
},
{
glyphname = ohungarumlaut;
lastChange = "2016-07-05 19:32:38 +0000";
layers = (
{
layerId = "6418A72B-B7AF-4A99-B2A7-67092BA5BFD7";
paths = (
{
closed = 1;
nodes = (
"407 -11 OFFCURVE",
"511 99 OFFCURVE",
"511 227 CURVE SMOOTH",
"511 354 OFFCURVE",
"405 461 OFFCURVE",
"274 461 CURVE SMOOTH",
"142 461 OFFCURVE",
"35 354 OFFCURVE",
"35 227 CURVE SMOOTH",
"35 100 OFFCURVE",
"141 -11 OFFCURVE",
"269 -11 CURVE SMOOTH",
"278 -11 LINE SMOOTH"
);
},
{
closed = 1;
nodes = (
"479 112 OFFCURVE",
"387 17 OFFCURVE",
"275 17 CURVE SMOOTH",
"162 17 OFFCURVE",
"67 112 OFFCURVE",
"67 224 CURVE SMOOTH",
"67 336 OFFCURVE",
"162 433 OFFCURVE",
"274 433 CURVE SMOOTH",
"386 433 OFFCURVE",
"479 337 OFFCURVE",
"479 225 CURVE SMOOTH"
);
},
{
closed = 1;
nodes = (
"163 529 LINE",
"302 644 LINE",
"261 644 LINE",
"121 529 LINE"
);
},
{
closed = 1;
nodes = (
"285 529 LINE",
"424 644 LINE",
"383 644 LINE",
"243 529 LINE"
);
}
);
width = 546;
}
);
note = ohungarumlaut;
unicode = 0151;
},
{
glyphname = OE;
lastChange = "2016-07-05 19:32:38 +0000";
layers = (
{
layerId = "6418A72B-B7AF-4A99-B2A7-67092BA5BFD7";
paths = (
{
closed = 1;
nodes = (
"435 750 LINE SMOOTH",
"220 750 OFFCURVE",
"50 587 OFFCURVE",
"50 379 CURVE SMOOTH",
"50 171 OFFCURVE",
"219 0 OFFCURVE",
"427 0 CURVE SMOOTH",
"724 0 LINE",
"724 29 LINE",
"488 29 LINE",
"488 284 LINE",
"685 284 LINE",
"685 313 LINE",
"488 313 LINE",
"488 721 LINE",
"724 721 LINE",
"724 750 LINE"
);
},
{
closed = 1;
nodes = (
"239 29 OFFCURVE",
"83 181 OFFCURVE",
"83 377 CURVE SMOOTH",
"83 573 OFFCURVE",
"238 721 OFFCURVE",
"435 721 CURVE SMOOTH",
"455 721 LINE",
"455 29 LINE",
"435 29 LINE SMOOTH"
);
}
);
width = 759;
}
);
note = OE;
unicode = 0152;
},
{
glyphname = oe;
lastChange = "2016-07-05 19:32:38 +0000";
layers = (
{
layerId = "6418A72B-B7AF-4A99-B2A7-67092BA5BFD7";
paths = (
{
closed = 1;
nodes = (
"357 -11 OFFCURVE",
"406 8 OFFCURVE",
"449 47 CURVE",
"492 10 OFFCURVE",
"540 -9 OFFCURVE",
"595 -9 CURVE SMOOTH",
"610 -9 LINE SMOOTH",
"677 -9 OFFCURVE",
"735 17 OFFCURVE",
"782 69 CURVE",
"782 120 LINE",
"741 59 OFFCURVE",
"676 19 OFFCURVE",
"596 19 CURVE SMOOTH",
"556 19 OFFCURVE",
"515 36 OFFCURVE",
"472 70 CURVE",
"785 381 LINE",
"736 436 OFFCURVE",
"675 463 OFFCURVE",
"603 463 CURVE SMOOTH",
"546 463 OFFCURVE",
"494 444 OFFCURVE",
"448 405 CURVE",
"402 442 OFFCURVE",
"348 461 OFFCURVE",
"287 461 CURVE SMOOTH",
"164 461 OFFCURVE",
"55 354 OFFCURVE",
"55 227 CURVE SMOOTH",
"55 100 OFFCURVE",
"161 -11 OFFCURVE",
"285 -11 CURVE SMOOTH",
"300 -11 LINE SMOOTH"
);
},
{
closed = 1;
nodes = (
"499 112 OFFCURVE",
"407 17 OFFCURVE",
"295 17 CURVE SMOOTH",
"182 17 OFFCURVE",
"87 112 OFFCURVE",
"87 224 CURVE SMOOTH",
"87 336 OFFCURVE",
"182 433 OFFCURVE",
"294 433 CURVE SMOOTH",
"406 433 OFFCURVE",
"499 337 OFFCURVE",
"499 225 CURVE SMOOTH"
);
},
{
closed = 1;
nodes = (
"528 181 OFFCURVE",
"531 202 OFFCURVE",
"531 225 CURVE SMOOTH",
"531 285 OFFCURVE",
"510 338 OFFCURVE",
"469 383 CURVE",
"508 418 OFFCURVE",
"553 435 OFFCURVE",
"604 435 CURVE SMOOTH",
"654 435 OFFCURVE",
"700 417 OFFCURVE",
"741 381 CURVE",
"522 161 LINE"
);
}
);
width = 820;
}
);
note = oe;
unicode = 0153;
},
{
glyphname = Racute;
lastChange = "2016-07-05 19:32:38 +0000";
layers = (
{
layerId = "6418A72B-B7AF-4A99-B2A7-67092BA5BFD7";
paths = (
{
closed = 1;
nodes = (
"107 0 LINE",
"107 238 LINE",
"334 0 LINE",
"377 0 LINE",
"119 272 LINE",
"126 272 LINE SMOOTH",
"241 272 OFFCURVE",
"362 382 OFFCURVE",
"362 511 CURVE SMOOTH",
"362 639 OFFCURVE",
"247 750 OFFCURVE",
"118 750 CURVE SMOOTH",
"75 750 LINE",
"75 0 LINE"
);
},
{
closed = 1;
nodes = (
"120 721 LINE SMOOTH",
"229 721 OFFCURVE",
"330 623 OFFCURVE",
"330 510 CURVE SMOOTH",
"330 397 OFFCURVE",
"233 301 OFFCURVE",
"125 301 CURVE SMOOTH",
"107 301 LINE",
"107 721 LINE"
);
},
{
closed = 1;
nodes = (
"127 829 LINE",
"266 944 LINE",
"225 944 LINE",
"85 829 LINE"
);
}
);
width = 407;
}
);
note = Racute;
unicode = 0154;
},
{
glyphname = racute;
lastChange = "2016-07-05 19:32:38 +0000";
layers = (
{
layerId = "6418A72B-B7AF-4A99-B2A7-67092BA5BFD7";
paths = (
{
closed = 1;
nodes = (
"294 450 OFFCURVE",
"264 461 OFFCURVE",
"233 461 CURVE SMOOTH",
"170 461 OFFCURVE",
"116 428 OFFCURVE",
"92 383 CURVE",
"92 450 LINE",
"60 450 LINE",
"60 0 LINE",
"92 0 LINE",
"92 300 LINE SMOOTH",
"92 371 OFFCURVE",
"155 433 OFFCURVE",
"226 433 CURVE SMOOTH",
"261 433 OFFCURVE",
"294 418 OFFCURVE",
"323 389 CURVE",
"323 429 LINE"
);
},
{
closed = 1;
nodes = (
"153 529 LINE",
"292 644 LINE",
"251 644 LINE",
"111 529 LINE"
);
}
);
width = 348;
}
);
note = racute;
unicode = 0155;
},
{
glyphname = Rcaron;
lastChange = "2016-07-05 19:32:38 +0000";
layers = (
{
layerId = "6418A72B-B7AF-4A99-B2A7-67092BA5BFD7";
paths = (
{
closed = 1;
nodes = (
"107 0 LINE",
"107 238 LINE",
"334 0 LINE",
"377 0 LINE",
"119 272 LINE",
"126 272 LINE SMOOTH",
"241 272 OFFCURVE",
"362 382 OFFCURVE",
"362 511 CURVE SMOOTH",
"362 639 OFFCURVE",
"247 750 OFFCURVE",
"118 750 CURVE SMOOTH",
"75 750 LINE",
"75 0 LINE"
);
},
{
closed = 1;
nodes = (
"120 721 LINE SMOOTH",
"229 721 OFFCURVE",
"330 623 OFFCURVE",
"330 510 CURVE SMOOTH",
"330 397 OFFCURVE",
"233 301 OFFCURVE",
"125 301 CURVE SMOOTH",
"107 301 LINE",
"107 721 LINE"
);
},
{
closed = 1;
nodes = (
"187 853 LINE",
"81 944 LINE",
"39 944 LINE",
"173 829 LINE",
"203 829 LINE",
"335 944 LINE",
"294 944 LINE"
);
}
);
width = 407;
}
);
note = Rcaron;
unicode = 0158;
},
{
glyphname = rcaron;
lastChange = "2016-07-05 19:32:38 +0000";
layers = (
{
layerId = "6418A72B-B7AF-4A99-B2A7-67092BA5BFD7";
paths = (
{
closed = 1;
nodes = (
"294 450 OFFCURVE",
"264 461 OFFCURVE",
"233 461 CURVE SMOOTH",
"170 461 OFFCURVE",
"116 428 OFFCURVE",
"92 383 CURVE",
"92 450 LINE",
"60 450 LINE",
"60 0 LINE",
"92 0 LINE",
"92 300 LINE SMOOTH",
"92 371 OFFCURVE",
"155 433 OFFCURVE",
"226 433 CURVE SMOOTH",
"261 433 OFFCURVE",
"294 418 OFFCURVE",
"323 389 CURVE",
"323 429 LINE"
);
},
{
closed = 1;
nodes = (
"198 553 LINE",
"92 644 LINE",
"50 644 LINE",
"184 529 LINE",
"214 529 LINE",
"346 644 LINE",
"305 644 LINE"
);
}
);
width = 348;
}
);
note = rcaron;
unicode = 0159;
},
{
glyphname = Sacute;
lastChange = "2016-07-05 19:32:38 +0000";
layers = (
{
layerId = "6418A72B-B7AF-4A99-B2A7-67092BA5BFD7";
paths = (
{
closed = 1;
nodes = (
"341 740 OFFCURVE",
"292 763 OFFCURVE",
"231 763 CURVE SMOOTH",
"143 763 OFFCURVE",
"75 712 OFFCURVE",
"75 619 CURVE SMOOTH",
"75 612 LINE SMOOTH",
"75 582 OFFCURVE",
"84 554 OFFCURVE",
"101 529 CURVE SMOOTH",
"136 478 OFFCURVE",
"190 451 OFFCURVE",
"251 412 CURVE SMOOTH",
"282 393 OFFCURVE",
"310 374 OFFCURVE",
"336 357 CURVE SMOOTH",
"388 321 OFFCURVE",
"427 264 OFFCURVE",
"427 197 CURVE SMOOTH",
"427 191 LINE SMOOTH",
"427 84 OFFCURVE",
"342 15 OFFCURVE",
"242 15 CURVE SMOOTH",
"142 15 OFFCURVE",
"75 67 OFFCURVE",
"40 143 CURVE",
"40 89 LINE",
"86 20 OFFCURVE",
"151 -14 OFFCURVE",
"234 -14 CURVE SMOOTH",
"361 -14 OFFCURVE",
"458 66 OFFCURVE",
"458 193 CURVE SMOOTH",
"458 203 LINE SMOOTH",
"458 267 OFFCURVE",
"429 322 OFFCURVE",
"389 359 CURVE SMOOTH",
"348 395 OFFCURVE",
"296 428 OFFCURVE",
"246 457 CURVE SMOOTH",
"196 485 OFFCURVE",
"108 531 OFFCURVE",
"108 615 CURVE SMOOTH",
"108 620 LINE SMOOTH",
"108 691 OFFCURVE",
"161 734 OFFCURVE",
"226 734 CURVE SMOOTH",
"291 734 OFFCURVE",
"346 700 OFFCURVE",
"377 644 CURVE",
"377 695 LINE"
);
},
{
closed = 1;
nodes = (
"200 829 LINE",
"339 944 LINE",
"298 944 LINE",
"158 829 LINE"
);
}
);
width = 498;
}
);
note = Sacute;
unicode = 015A;
},
{
glyphname = sacute;
lastChange = "2016-07-05 19:32:38 +0000";
layers = (
{
layerId = "6418A72B-B7AF-4A99-B2A7-67092BA5BFD7";
paths = (
{
closed = 1;
nodes = (
"191 434 OFFCURVE",
"218 418 OFFCURVE",
"239 386 CURVE",
"239 427 LINE",
"218 450 OFFCURVE",
"192 462 OFFCURVE",
"162 462 CURVE SMOOTH",
"102 462 OFFCURVE",
"60 425 OFFCURVE",
"60 378 CURVE SMOOTH",
"60 330 OFFCURVE",
"95 295 OFFCURVE",
"137 271 CURVE",
"158 258 OFFCURVE",
"179 246 OFFCURVE",
"200 233 CURVE SMOOTH",
"243 208 OFFCURVE",
"277 173 OFFCURVE",
"277 121 CURVE SMOOTH",
"277 68 OFFCURVE",
"223 17 OFFCURVE",
"154 17 CURVE SMOOTH",
"98 17 OFFCURVE",
"57 45 OFFCURVE",
"32 101 CURVE",
"32 53 LINE",
"53 14 OFFCURVE",
"104 -11 OFFCURVE",
"157 -11 CURVE SMOOTH",
"241 -11 OFFCURVE",
"309 52 OFFCURVE",
"309 131 CURVE SMOOTH",
"309 158 OFFCURVE",
"302 181 OFFCURVE",
"287 202 CURVE SMOOTH",
"257 243 OFFCURVE",
"211 267 OFFCURVE",
"169 291 CURVE SMOOTH",
"127 314 OFFCURVE",
"92 342 OFFCURVE",
"92 375 CURVE SMOOTH",
"92 408 OFFCURVE",
"123 434 OFFCURVE",
"158 434 CURVE SMOOTH"
);
},
{
closed = 1;
nodes = (
"123 529 LINE",
"262 644 LINE",
"221 644 LINE",
"81 529 LINE"
);
}
);
width = 344;
}
);
note = sacute;
unicode = 015B;
},
{
glyphname = Scircumflex;
lastChange = "2016-07-05 19:32:38 +0000";
layers = (
{
layerId = "6418A72B-B7AF-4A99-B2A7-67092BA5BFD7";
paths = (
{
closed = 1;
nodes = (
"341 740 OFFCURVE",
"292 763 OFFCURVE",
"231 763 CURVE SMOOTH",
"143 763 OFFCURVE",
"75 712 OFFCURVE",
"75 619 CURVE SMOOTH",
"75 612 LINE SMOOTH",
"75 582 OFFCURVE",
"84 554 OFFCURVE",
"101 529 CURVE SMOOTH",
"136 478 OFFCURVE",
"190 451 OFFCURVE",
"251 412 CURVE SMOOTH",
"282 393 OFFCURVE",
"310 374 OFFCURVE",
"336 357 CURVE SMOOTH",
"388 321 OFFCURVE",
"427 264 OFFCURVE",
"427 197 CURVE SMOOTH",
"427 191 LINE SMOOTH",
"427 84 OFFCURVE",
"342 15 OFFCURVE",
"242 15 CURVE SMOOTH",
"142 15 OFFCURVE",
"75 67 OFFCURVE",
"40 143 CURVE",
"40 89 LINE",
"86 20 OFFCURVE",
"151 -14 OFFCURVE",
"234 -14 CURVE SMOOTH",
"361 -14 OFFCURVE",
"458 66 OFFCURVE",
"458 193 CURVE SMOOTH",
"458 203 LINE SMOOTH",
"458 267 OFFCURVE",
"429 322 OFFCURVE",
"389 359 CURVE SMOOTH",
"348 395 OFFCURVE",
"296 428 OFFCURVE",
"246 457 CURVE SMOOTH",
"196 485 OFFCURVE",
"108 531 OFFCURVE",
"108 615 CURVE SMOOTH",
"108 620 LINE SMOOTH",
"108 691 OFFCURVE",
"161 734 OFFCURVE",
"226 734 CURVE SMOOTH",
"291 734 OFFCURVE",
"346 700 OFFCURVE",
"377 644 CURVE",
"377 695 LINE"
);
},
{
closed = 1;
nodes = (
"101 829 LINE",
"143 829 LINE",
"249 920 LINE",
"356 829 LINE",
"397 829 LINE",
"265 944 LINE",
"235 944 LINE"
);
}
);
width = 498;
}
);
note = Scircumflex;
unicode = 015C;
},
{
glyphname = scircumflex;
lastChange = "2016-07-05 19:32:38 +0000";
layers = (
{
layerId = "6418A72B-B7AF-4A99-B2A7-67092BA5BFD7";
paths = (
{
closed = 1;
nodes = (
"191 434 OFFCURVE",
"218 418 OFFCURVE",
"239 386 CURVE",
"239 427 LINE",
"218 450 OFFCURVE",
"192 462 OFFCURVE",
"162 462 CURVE SMOOTH",
"102 462 OFFCURVE",
"60 425 OFFCURVE",
"60 378 CURVE SMOOTH",
"60 330 OFFCURVE",
"95 295 OFFCURVE",
"137 271 CURVE",
"158 258 OFFCURVE",
"179 246 OFFCURVE",
"200 233 CURVE SMOOTH",
"243 208 OFFCURVE",
"277 173 OFFCURVE",
"277 121 CURVE SMOOTH",
"277 68 OFFCURVE",
"223 17 OFFCURVE",
"154 17 CURVE SMOOTH",
"98 17 OFFCURVE",
"57 45 OFFCURVE",
"32 101 CURVE",
"32 53 LINE",
"53 14 OFFCURVE",
"104 -11 OFFCURVE",
"157 -11 CURVE SMOOTH",
"241 -11 OFFCURVE",
"309 52 OFFCURVE",
"309 131 CURVE SMOOTH",
"309 158 OFFCURVE",
"302 181 OFFCURVE",
"287 202 CURVE SMOOTH",
"257 243 OFFCURVE",
"211 267 OFFCURVE",
"169 291 CURVE SMOOTH",
"127 314 OFFCURVE",
"92 342 OFFCURVE",
"92 375 CURVE SMOOTH",
"92 408 OFFCURVE",
"123 434 OFFCURVE",
"158 434 CURVE SMOOTH"
);
},
{
closed = 1;
nodes = (
"24 529 LINE",
"66 529 LINE",
"172 620 LINE",
"279 529 LINE",
"320 529 LINE",
"188 644 LINE",
"158 644 LINE"
);
}
);
width = 344;
}
);
note = scircumflex;
unicode = 015D;
},
{
glyphname = Scedilla;
lastChange = "2016-07-05 19:32:38 +0000";
layers = (
{
layerId = "6418A72B-B7AF-4A99-B2A7-67092BA5BFD7";
paths = (
{
closed = 1;
nodes = (
"275 -75 OFFCURVE",
"297 -97 OFFCURVE",
"297 -125 CURVE SMOOTH",
"297 -153 OFFCURVE",
"275 -175 OFFCURVE",
"244 -175 CURVE SMOOTH",
"209 -175 LINE",
"209 -200 LINE",
"244 -200 LINE SMOOTH",
"288 -200 OFFCURVE",
"321 -167 OFFCURVE",
"321 -127 CURVE SMOOTH",
"321 -123 LINE SMOOTH",
"321 -83 OFFCURVE",
"287 -49 OFFCURVE",
"244 -49 CURVE SMOOTH",
"234 -49 LINE",
"234 -14 LINE",
"361 -14 OFFCURVE",
"458 66 OFFCURVE",
"458 193 CURVE SMOOTH",
"458 203 LINE SMOOTH",
"458 267 OFFCURVE",
"429 322 OFFCURVE",
"389 359 CURVE SMOOTH",
"348 395 OFFCURVE",
"296 428 OFFCURVE",
"246 457 CURVE SMOOTH",
"196 485 OFFCURVE",
"108 531 OFFCURVE",
"108 615 CURVE SMOOTH",
"108 620 LINE SMOOTH",
"108 691 OFFCURVE",
"161 734 OFFCURVE",
"226 734 CURVE SMOOTH",
"291 734 OFFCURVE",
"346 700 OFFCURVE",
"377 644 CURVE",
"377 695 LINE",
"341 740 OFFCURVE",
"292 763 OFFCURVE",
"231 763 CURVE SMOOTH",
"143 763 OFFCURVE",
"75 712 OFFCURVE",
"75 619 CURVE SMOOTH",
"75 612 LINE SMOOTH",
"75 582 OFFCURVE",
"84 554 OFFCURVE",
"101 529 CURVE SMOOTH",
"136 478 OFFCURVE",
"190 451 OFFCURVE",
"251 412 CURVE SMOOTH",
"282 393 OFFCURVE",
"310 374 OFFCURVE",
"336 357 CURVE SMOOTH",
"388 321 OFFCURVE",
"427 264 OFFCURVE",
"427 197 CURVE SMOOTH",
"427 191 LINE SMOOTH",
"427 84 OFFCURVE",
"342 15 OFFCURVE",
"242 15 CURVE SMOOTH",
"142 15 OFFCURVE",
"75 67 OFFCURVE",
"40 143 CURVE",
"40 89 LINE",
"79 28 OFFCURVE",
"136 -6 OFFCURVE",
"209 -13 CURVE",
"209 -75 LINE",
"244 -75 LINE SMOOTH"
);
}
);
width = 498;
}
);
note = Scedilla;
unicode = 015E;
},
